999
dxflib 3.3.4.0
  0
SECTION
  2
HEADER
  9
$ACADVER
  1
AC1015
  9
$HANDSEED
  5
FFFFF
  9
$INSUNITS
 70
6
  9
$LUNITS
 70
2
  9
$MEASUREMENT
 70
1
  9
$LTSCALE
 40
10.0
  9
$DIMEXE
 40
1.25
  9
$TEXTSTYLE
  7
Standard
  9
$LIMMIN
 10
0.0
 20
0.0
  9
$SHADEDGE
 70
3
  0
ENDSEC
  0
SECTION
  2
TABLES
  0
TABLE
  2
VPORT
  5
8
100
AcDbSymbolTable
 70
1
  0
VPORT
  5
30
100
AcDbSymbolTableRecord
100
AcDbViewportTableRecord
  2
*Active
 70
0
 10
-2.5023249908637997
 20
-0.96486499490261
 11
2.8112650091361999
 21
3.5802150050973895
 12
0.1544700091362001
 22
1.3076750050973898
 13
0.0
 23
0.0
 14
10.0
 24
10.0
 15
1.0
 25
1.0
 16
0.0
 26
0.0
 36
1.0
 17
0.0
 27
0.0
 37
0.0
 40
5.697515263875192
 41
1.92798353909465
 42
50.0
 43
0.0
 44
0.0
 50
0.0
 51
0.0
 71
0
 72
100
 73
1
 74
3
 75
1
 76
1
 77
0
 78
0
281
0
 65
1
110
0.0
120
0.0
130
0.0
111
1.0
121
0.0
131
0.0
112
0.0
122
1.0
132
0.0
 79
0
146
0.0
  0
ENDTAB
  0
TABLE
  2
LTYPE
  5
5
100
AcDbSymbolTable
 70
4
  0
LTYPE
  5
14
100
AcDbSymbolTableRecord
100
AcDbLinetypeTableRecord
  2
BYBLOCK
 70
0
  3

 72
65
 73
0
 40
0.0
  0
LTYPE
  5
15
100
AcDbSymbolTableRecord
100
AcDbLinetypeTableRecord
  2
BYLAYER
 70
0
  3

 72
65
 73
0
 40
0.0
  0
LTYPE
  5
16
100
AcDbSymbolTableRecord
100
AcDbLinetypeTableRecord
  2
CONTINUOUS
 70
0
  3
Solid line
 72
65
 73
0
 40
0.0
  0
LTYPE
  5
31
100
AcDbSymbolTableRecord
100
AcDbLinetypeTableRecord
  2
DASHED2
 70
0
  3
Dashed (.5x) _ _ _ _ _ _ _ _ _ _ _ _ _ _ _ _ _
 72
65
 73
2
 40
9.5250000000000004
 49
6.3499999999999996
 74
0
 49
-3.1749999999999998
 74
0
  0
ENDTAB
  0
TABLE
  2
LAYER
  5
2
100
AcDbSymbolTable
 70
6
  0
LAYER
  5
10
100
AcDbSymbolTableRecord
100
AcDbLayerTableRecord
  2
0
 70
0
 62
7
  6
CONTINUOUS
370
100
390
F
  0
LAYER
  5
32
100
AcDbSymbolTableRecord
100
AcDbLayerTableRecord
  2
doors
 70
0
 62
1
  6
CONTINUOUS
370
100
390
F
  0
LAYER
  5
33
100
AcDbSymbolTableRecord
100
AcDbLayerTableRecord
  2
furnitures
 70
0
 62
6
  6
CONTINUOUS
370
100
390
F
  0
LAYER
  5
34
100
AcDbSymbolTableRecord
100
AcDbLayerTableRecord
  2
texts
 70
0
 62
5
  6
CONTINUOUS
370
100
390
F
  0
LAYER
  5
35
100
AcDbSymbolTableRecord
100
AcDbLayerTableRecord
  2
walls
 70
0
 62
8
  6
CONTINUOUS
370
100
390
F
  0
LAYER
  5
36
100
AcDbSymbolTableRecord
100
AcDbLayerTableRecord
  2
windows
 70
0
 62
3
  6
CONTINUOUS
370
100
390
F
  0
ENDTAB
  0
TABLE
  2
STYLE
  5
3
100
AcDbSymbolTable
 70
1
  0
STYLE
  5
11
100
AcDbSymbolTableRecord
100
AcDbTextStyleTableRecord
  2
Standard
 70
0
 40
0.0
 41
0.75
 50
0.0
 71
0
 42
2.5
  3
txt
  4

  0
ENDTAB
  0
TABLE
  2
VIEW
  5
6
100
AcDbSymbolTable
 70
0
  0
ENDTAB
  0
TABLE
  2
UCS
  5
7
100
AcDbSymbolTable
 70
0
  0
ENDTAB
  0
TABLE
  2
APPID
  5
9
100
AcDbSymbolTable
 70
1
  0
APPID
  5
12
100
AcDbSymbolTableRecord
100
AcDbRegAppTableRecord
  2
ACAD
 70
0
  0
ENDTAB
  0
TABLE
  2
DIMSTYLE
  5
A
100
AcDbSymbolTable
 70
1
100
AcDbDimStyleTable
 71
0
  0
DIMSTYLE
105
27
100
AcDbSymbolTableRecord
100
AcDbDimStyleTableRecord
  2
Standard
 41
1.0
 42
1.0
 43
3.75
 44
1.0
 70
0
 73
0
 74
0
 77
1
 78
8
140
1.0
141
2.5
143
0.03937007874016
147
1.0
171
3
172
1
271
2
272
2
274
3
278
44
283
0
284
8
340
0
  0
ENDTAB
  0
TABLE
  2
BLOCK_RECORD
  5
1
100
AcDbSymbolTable
 70
1
  0
BLOCK_RECORD
  5
1F
100
AcDbSymbolTableRecord
100
AcDbBlockTableRecord
  2
*Model_Space
340
22
  0
BLOCK_RECORD
  5
1B
100
AcDbSymbolTableRecord
100
AcDbBlockTableRecord
  2
*Paper_Space
340
1E
  0
BLOCK_RECORD
  5
23
100
AcDbSymbolTableRecord
100
AcDbBlockTableRecord
  2
*Paper_Space0
340
26
  0
BLOCK_RECORD
  5
37
100
AcDbSymbolTableRecord
100
AcDbBlockTableRecord
  2
W-0-0
340
0
  0
BLOCK_RECORD
  5
38
100
AcDbSymbolTableRecord
100
AcDbBlockTableRecord
  2
W-0-1
340
0
  0
BLOCK_RECORD
  5
39
100
AcDbSymbolTableRecord
100
AcDbBlockTableRecord
  2
W-0-2
340
0
  0
ENDTAB
  0
ENDSEC
  0
SECTION
  2
BLOCKS
  0
BLOCK
  5
20
100
AcDbEntity
  8
0
100
AcDbBlockBegin
  2
*Model_Space
 70
0
 10
0.0
 20
0.0
 30
0.0
  3
*Model_Space
  1

  0
ENDBLK
  5
21
100
AcDbEntity
  8
0
100
AcDbBlockEnd
  0
BLOCK
  5
1C
100
AcDbEntity
 67
1
  8
0
100
AcDbBlockBegin
  2
*Paper_Space
 70
0
 10
0.0
 20
0.0
 30
0.0
  3
*Paper_Space
  1

  0
ENDBLK
  5
1D
100
AcDbEntity
 67
1
  8
0
100
AcDbBlockEnd
  0
BLOCK
  5
24
100
AcDbEntity
  8
0
100
AcDbBlockBegin
  2
*Paper_Space0
 70
0
 10
0.0
 20
0.0
 30
0.0
  3
*Paper_Space0
  1

  0
ENDBLK
  5
25
100
AcDbEntity
  8
0
100
AcDbBlockEnd
  0
BLOCK
  5
3A
100
AcDbEntity
  8
0
100
AcDbBlockBegin
  2
W-0-0
 70
0
 10
0.0
 20
0.0
 30
0.0
  3
W-0-0
  1

  0
LWPOLYLINE
  5
3B
  8
0
 62
0
370
-1
  6
BYLAYER
100
AcDbEntity
100
AcDbPolyline
 90
2
 70
0
 43
1.0
 10
-396.0000057704746723
 20
-796.0000117309391499
 30
0.0
 10
-396.0000057704746723
 20
-796.0000117309391499
 30
0.0
  0
LWPOLYLINE
  5
3C
  8
0
 62
0
370
-1
  6
BYLAYER
100
AcDbEntity
100
AcDbPolyline
 90
2
 70
0
 43
1.0
 10
-396.0000057704746723
 20
-796.0000117309391499
 30
0.0
 10
-288.5306139823827039
 20
-788.6968818523400842
 30
0.0
  0
LWPOLYLINE
  5
3D
  8
0
 62
0
370
-1
  6
BYLAYER
100
AcDbEntity
100
AcDbPolyline
 90
2
 70
0
 43
1.0
 10
-288.5306139823827039
 20
-788.6968818523400842
 30
0.0
 10
-185.4555549708610727
 20
-767.4229736926041596
 30
0.0
  0
LWPOLYLINE
  5
3E
  8
0
 62
0
370
-1
  6
BYLAYER
100
AcDbEntity
100
AcDbPolyline
 90
2
 70
0
 43
1.0
 10
-185.4555549708610727
 20
-767.4229736926041596
 30
0.0
 10
-87.7184955567528846
 20
-733.1315094658234557
 30
0.0
  0
LWPOLYLINE
  5
3F
  8
0
 62
0
370
-1
  6
BYLAYER
100
AcDbEntity
100
AcDbPolyline
 90
2
 70
0
 43
1.0
 10
-87.7184955567528846
 20
-733.1315094658234557
 30
0.0
 10
3.7368974390988683
 20
-686.7757113860901654
 30
0.0
  0
LWPOLYLINE
  5
40
  8
0
 62
0
370
-1
  6
BYLAYER
100
AcDbEntity
100
AcDbPolyline
 90
2
 70
0
 43
1.0
 10
3.7368974390988683
 20
-686.7757113860901654
 30
0.0
 10
87.9669571958508527
 20
-629.3088016674962546
 30
0.0
  0
LWPOLYLINE
  5
41
  8
0
 62
0
370
-1
  6
BYLAYER
100
AcDbEntity
100
AcDbPolyline
 90
2
 70
0
 43
1.0
 10
87.9669571958508527
 20
-629.3088016674962546
 30
0.0
 10
164.0280168926602755
 20
-561.6840025241338026
 30
0.0
  0
LWPOLYLINE
  5
42
  8
0
 62
0
370
-1
  6
BYLAYER
100
AcDbEntity
100
AcDbPolyline
 90
2
 70
0
 43
1.0
 10
164.0280168926602755
 20
-561.6840025241338026
 30
0.0
 10
230.9764097086838319
 20
-484.8545361700950025
 30
0.0
  0
LWPOLYLINE
  5
43
  8
0
 62
0
370
-1
  6
BYLAYER
100
AcDbEntity
100
AcDbPolyline
 90
2
 70
0
 43
1.0
 10
230.9764097086838319
 20
-484.8545361700950025
 30
0.0
 10
287.8684688230783877
 20
-399.7736248194719337
 30
0.0
  0
LWPOLYLINE
  5
44
  8
0
 62
0
370
-1
  6
BYLAYER
100
AcDbEntity
100
AcDbPolyline
 90
2
 70
0
 43
1.0
 10
287.8684688230783877
 20
-399.7736248194719337
 30
0.0
 10
333.7605274150012065
 20
-307.3944906863566757
 30
0.0
  0
LWPOLYLINE
  5
45
  8
0
 62
0
370
-1
  6
BYLAYER
100
AcDbEntity
100
AcDbPolyline
 90
2
 70
0
 43
1.0
 10
333.7605274150012065
 20
-307.3944906863566757
 30
0.0
 10
367.7089186636089835
 20
-208.6703559848411942
 30
0.0
  0
LWPOLYLINE
  5
46
  8
0
 62
0
370
-1
  6
BYLAYER
100
AcDbEntity
100
AcDbPolyline
 90
2
 70
0
 43
1.0
 10
367.7089186636089835
 20
-208.6703559848411942
 30
0.0
 10
388.7699757480585276
 20
-104.5544429290175685
 30
0.0
  0
LWPOLYLINE
  5
47
  8
0
 62
0
370
-1
  6
BYLAYER
100
AcDbEntity
100
AcDbPolyline
 90
2
 70
0
 43
1.0
 10
388.7699757480585276
 20
-104.5544429290175685
 30
0.0
 10
396.0000318475067616
 20
4.0000262670218945
 30
0.0
  0
LWPOLYLINE
  5
48
  8
0
 62
0
370
-1
  6
BYLAYER
100
AcDbEntity
100
AcDbPolyline
 90
2
 70
0
 43
1.0
 10
-400.0000059604644775
 20
0.0000260770320892
 30
0.0
 10
-400.0000059604644775
 20
0.0000260770320892
 30
0.0
  0
LWPOLYLINE
  5
49
  8
0
 62
0
370
-1
  6
BYLAYER
100
AcDbEntity
100
AcDbPolyline
 90
2
 70
0
 43
1.0
 10
-400.0000059604644775
 20
0.0000260770320892
 30
0.0
 10
-400.0000059604644775
 20
-66.6666354026505132
 30
0.0
  0
LWPOLYLINE
  5
4A
  8
0
 62
0
370
-1
  6
BYLAYER
100
AcDbEntity
100
AcDbPolyline
 90
2
 70
0
 43
1.0
 10
-400.0000059604644775
 20
-66.6666354026505132
 30
0.0
 10
-400.0000059604644775
 20
-133.3333001672109503
 30
0.0
  0
LWPOLYLINE
  5
4B
  8
0
 62
0
370
-1
  6
BYLAYER
100
AcDbEntity
100
AcDbPolyline
 90
2
 70
0
 43
1.0
 10
-400.0000059604644775
 20
-133.3333001672109503
 30
0.0
 10
-400.0000059604644775
 20
-199.9999676868311553
 30
0.0
  0
LWPOLYLINE
  5
4C
  8
0
 62
0
370
-1
  6
BYLAYER
100
AcDbEntity
100
AcDbPolyline
 90
2
 70
0
 43
1.0
 10
-400.0000059604644775
 20
-199.9999676868311553
 30
0.0
 10
-400.0000059604644775
 20
-266.6666374316912425
 30
0.0
  0
LWPOLYLINE
  5
4D
  8
0
 62
0
370
-1
  6
BYLAYER
100
AcDbEntity
100
AcDbPolyline
 90
2
 70
0
 43
1.0
 10
-400.0000059604644775
 20
-266.6666374316912425
 30
0.0
 10
-400.0000059604644775
 20
-333.3333088719728607
 30
0.0
  0
LWPOLYLINE
  5
4E
  8
0
 62
0
370
-1
  6
BYLAYER
100
AcDbEntity
100
AcDbPolyline
 90
2
 70
0
 43
1.0
 10
-400.0000059604644775
 20
-333.3333088719728607
 30
0.0
 10
-400.0000059604644775
 20
-399.9999814778560676
 30
0.0
  0
LWPOLYLINE
  5
4F
  8
0
 62
0
370
-1
  6
BYLAYER
100
AcDbEntity
100
AcDbPolyline
 90
2
 70
0
 43
1.0
 10
-400.0000059604644775
 20
-399.9999814778560676
 30
0.0
 10
-400.0000059604644775
 20
-466.6666547195223416
 30
0.0
  0
LWPOLYLINE
  5
50
  8
0
 62
0
370
-1
  6
BYLAYER
100
AcDbEntity
100
AcDbPolyline
 90
2
 70
0
 43
1.0
 10
-400.0000059604644775
 20
-466.6666547195223416
 30
0.0
 10
-400.0000059604644775
 20
-533.3333280671522516
 30
0.0
  0
LWPOLYLINE
  5
51
  8
0
 62
0
370
-1
  6
BYLAYER
100
AcDbEntity
100
AcDbPolyline
 90
2
 70
0
 43
1.0
 10
-400.0000059604644775
 20
-533.3333280671522516
 30
0.0
 10
-400.0000059604644775
 20
-600.0000009909272194
 30
0.0
  0
LWPOLYLINE
  5
52
  8
0
 62
0
370
-1
  6
BYLAYER
100
AcDbEntity
100
AcDbPolyline
 90
2
 70
0
 43
1.0
 10
-400.0000059604644775
 20
-600.0000009909272194
 30
0.0
 10
-400.0000059604644775
 20
-666.6666729610276434
 30
0.0
  0
LWPOLYLINE
  5
53
  8
0
 62
0
370
-1
  6
BYLAYER
100
AcDbEntity
100
AcDbPolyline
 90
2
 70
0
 43
1.0
 10
-400.0000059604644775
 20
-666.6666729610276434
 30
0.0
 10
-400.0000059604644775
 20
-733.3333434476345474
 30
0.0
  0
LWPOLYLINE
  5
54
  8
0
 62
0
370
-1
  6
BYLAYER
100
AcDbEntity
100
AcDbPolyline
 90
2
 70
0
 43
1.0
 10
-400.0000059604644775
 20
-733.3333434476345474
 30
0.0
 10
-400.0000059604644775
 20
-800.0000119209289551
 30
0.0
  0
LWPOLYLINE
  5
55
  8
0
 62
0
370
-1
  6
BYLAYER
100
AcDbEntity
100
AcDbPolyline
 90
2
 70
0
 43
1.0
 10
-400.0000059604644775
 20
-800.0000119209289551
 30
0.0
 10
-393.3333390621399417
 20
-800.0000119209289551
 30
0.0
  0
LWPOLYLINE
  5
56
  8
0
 62
0
370
-1
  6
BYLAYER
100
AcDbEntity
100
AcDbPolyline
 90
2
 70
0
 43
1.0
 10
-393.3333390621399417
 20
-800.0000119209289551
 30
0.0
 10
-386.6666720379834032
 20
-800.0000119209289551
 30
0.0
  0
LWPOLYLINE
  5
57
  8
0
 62
0
370
-1
  6
BYLAYER
100
AcDbEntity
100
AcDbPolyline
 90
2
 70
0
 43
1.0
 10
-386.6666720379834032
 20
-800.0000119209289551
 30
0.0
 10
-380.0000049211084843
 20
-800.0000119209289551
 30
0.0
  0
LWPOLYLINE
  5
58
  8
0
 62
0
370
-1
  6
BYLAYER
100
AcDbEntity
100
AcDbPolyline
 90
2
 70
0
 43
1.0
 10
-380.0000049211084843
 20
-800.0000119209289551
 30
0.0
 10
-373.3333377446289205
 20
-800.0000119209289551
 30
0.0
  0
LWPOLYLINE
  5
59
  8
0
 62
0
370
-1
  6
BYLAYER
100
AcDbEntity
100
AcDbPolyline
 90
2
 70
0
 43
1.0
 10
-373.3333377446289205
 20
-800.0000119209289551
 30
0.0
 10
-366.6666705416584477
 20
-800.0000119209289551
 30
0.0
  0
LWPOLYLINE
  5
5A
  8
0
 62
0
370
-1
  6
BYLAYER
100
AcDbEntity
100
AcDbPolyline
 90
2
 70
0
 43
1.0
 10
-366.6666705416584477
 20
-800.0000119209289551
 30
0.0
 10
-360.0000033453106312
 20
-800.0000119209289551
 30
0.0
  0
LWPOLYLINE
  5
5B
  8
0
 62
0
370
-1
  6
BYLAYER
100
AcDbEntity
100
AcDbPolyline
 90
2
 70
0
 43
1.0
 10
-360.0000033453106312
 20
-800.0000119209289551
 30
0.0
 10
-353.3333361886993202
 20
-800.0000119209289551
 30
0.0
  0
LWPOLYLINE
  5
5C
  8
0
 62
0
370
-1
  6
BYLAYER
100
AcDbEntity
100
AcDbPolyline
 90
2
 70
0
 43
1.0
 10
-353.3333361886993202
 20
-800.0000119209289551
 30
0.0
 10
-346.6666691049380802
 20
-800.0000119209289551
 30
0.0
  0
LWPOLYLINE
  5
5D
  8
0
 62
0
370
-1
  6
BYLAYER
100
AcDbEntity
100
AcDbPolyline
 90
2
 70
0
 43
1.0
 10
-346.6666691049380802
 20
-800.0000119209289551
 30
0.0
 10
-340.0000021271407036
 20
-800.0000119209289551
 30
0.0
  0
LWPOLYLINE
  5
5E
  8
0
 62
0
370
-1
  6
BYLAYER
100
AcDbEntity
100
AcDbPolyline
 90
2
 70
0
 43
1.0
 10
-340.0000021271407036
 20
-800.0000119209289551
 30
0.0
 10
-333.3333352884208125
 20
-800.0000119209289551
 30
0.0
  0
LWPOLYLINE
  5
5F
  8
0
 62
0
370
-1
  6
BYLAYER
100
AcDbEntity
100
AcDbPolyline
 90
2
 70
0
 43
1.0
 10
-333.3333352884208125
 20
-800.0000119209289551
 30
0.0
 10
-326.6666686218921427
 20
-800.0000119209289551
 30
0.0
  0
LWPOLYLINE
  5
60
  8
0
 62
0
370
-1
  6
BYLAYER
100
AcDbEntity
100
AcDbPolyline
 90
2
 70
0
 43
1.0
 10
-326.6666686218921427
 20
-800.0000119209289551
 30
0.0
 10
-320.0000021606683731
 20
-800.0000119209289551
 30
0.0
  0
LWPOLYLINE
  5
61
  8
0
 62
0
370
-1
  6
BYLAYER
100
AcDbEntity
100
AcDbPolyline
 90
2
 70
0
 43
1.0
 10
-320.0000021606683731
 20
-800.0000119209289551
 30
0.0
 10
-320.0000021606683731
 20
-733.3333434476345474
 30
0.0
  0
LWPOLYLINE
  5
62
  8
0
 62
0
370
-1
  6
BYLAYER
100
AcDbEntity
100
AcDbPolyline
 90
2
 70
0
 43
1.0
 10
-320.0000021606683731
 20
-733.3333434476345474
 30
0.0
 10
-320.0000021606683731
 20
-666.6666729610275297
 30
0.0
  0
LWPOLYLINE
  5
63
  8
0
 62
0
370
-1
  6
BYLAYER
100
AcDbEntity
100
AcDbPolyline
 90
2
 70
0
 43
1.0
 10
-320.0000021606683731
 20
-666.6666729610275297
 30
0.0
 10
-320.0000021606683731
 20
-600.0000009909272194
 30
0.0
  0
LWPOLYLINE
  5
64
  8
0
 62
0
370
-1
  6
BYLAYER
100
AcDbEntity
100
AcDbPolyline
 90
2
 70
0
 43
1.0
 10
-320.0000021606683731
 20
-600.0000009909272194
 30
0.0
 10
-320.0000021606683731
 20
-533.3333280671523653
 30
0.0
  0
LWPOLYLINE
  5
65
  8
0
 62
0
370
-1
  6
BYLAYER
100
AcDbEntity
100
AcDbPolyline
 90
2
 70
0
 43
1.0
 10
-320.0000021606683731
 20
-533.3333280671523653
 30
0.0
 10
-320.0000021606683731
 20
-466.6666547195223416
 30
0.0
  0
LWPOLYLINE
  5
66
  8
0
 62
0
370
-1
  6
BYLAYER
100
AcDbEntity
100
AcDbPolyline
 90
2
 70
0
 43
1.0
 10
-320.0000021606683731
 20
-466.6666547195223416
 30
0.0
 10
-320.0000021606683731
 20
-399.9999814778560676
 30
0.0
  0
LWPOLYLINE
  5
67
  8
0
 62
0
370
-1
  6
BYLAYER
100
AcDbEntity
100
AcDbPolyline
 90
2
 70
0
 43
1.0
 10
-320.0000021606683731
 20
-399.9999814778560676
 30
0.0
 10
-320.0000021606683731
 20
-333.3333088719727471
 30
0.0
  0
LWPOLYLINE
  5
68
  8
0
 62
0
370
-1
  6
BYLAYER
100
AcDbEntity
100
AcDbPolyline
 90
2
 70
0
 43
1.0
 10
-320.0000021606683731
 20
-333.3333088719727471
 30
0.0
 10
-320.0000021606683731
 20
-266.6666374316914698
 30
0.0
  0
LWPOLYLINE
  5
69
  8
0
 62
0
370
-1
  6
BYLAYER
100
AcDbEntity
100
AcDbPolyline
 90
2
 70
0
 43
1.0
 10
-320.0000021606683731
 20
-266.6666374316914698
 30
0.0
 10
-320.0000021606683731
 20
-199.9999676868311553
 30
0.0
  0
LWPOLYLINE
  5
6A
  8
0
 62
0
370
-1
  6
BYLAYER
100
AcDbEntity
100
AcDbPolyline
 90
2
 70
0
 43
1.0
 10
-320.0000021606683731
 20
-199.9999676868311553
 30
0.0
 10
-320.0000021606683731
 20
-133.3333001672109503
 30
0.0
  0
LWPOLYLINE
  5
6B
  8
0
 62
0
370
-1
  6
BYLAYER
100
AcDbEntity
100
AcDbPolyline
 90
2
 70
0
 43
1.0
 10
-320.0000021606683731
 20
-133.3333001672109503
 30
0.0
 10
-320.0000021606683731
 20
-66.6666354026505132
 30
0.0
  0
LWPOLYLINE
  5
6C
  8
0
 62
0
370
-1
  6
BYLAYER
100
AcDbEntity
100
AcDbPolyline
 90
2
 70
0
 43
1.0
 10
-320.0000021606683731
 20
-66.6666354026505132
 30
0.0
 10
-320.0000021606683731
 20
0.0000260770320892
 30
0.0
  0
LWPOLYLINE
  5
6D
  8
0
 62
0
370
-1
  6
BYLAYER
100
AcDbEntity
100
AcDbPolyline
 90
2
 70
0
 43
1.0
 10
-320.0000021606683731
 20
0.0000260770320892
 30
0.0
 10
-326.6666686218921996
 20
0.0000260770318619
 30
0.0
  0
LWPOLYLINE
  5
6E
  8
0
 62
0
370
-1
  6
BYLAYER
100
AcDbEntity
100
AcDbPolyline
 90
2
 70
0
 43
1.0
 10
-326.6666686218921996
 20
0.0000260770318619
 30
0.0
 10
-333.3333352884208125
 20
0.0000260770320892
 30
0.0
  0
LWPOLYLINE
  5
6F
  8
0
 62
0
370
-1
  6
BYLAYER
100
AcDbEntity
100
AcDbPolyline
 90
2
 70
0
 43
1.0
 10
-333.3333352884208125
 20
0.0000260770320892
 30
0.0
 10
-340.0000021271407036
 20
0.0000260770320892
 30
0.0
  0
LWPOLYLINE
  5
70
  8
0
 62
0
370
-1
  6
BYLAYER
100
AcDbEntity
100
AcDbPolyline
 90
2
 70
0
 43
1.0
 10
-340.0000021271407036
 20
0.0000260770320892
 30
0.0
 10
-346.6666691049380802
 20
0.0000260770320892
 30
0.0
  0
LWPOLYLINE
  5
71
  8
0
 62
0
370
-1
  6
BYLAYER
100
AcDbEntity
100
AcDbPolyline
 90
2
 70
0
 43
1.0
 10
-346.6666691049380802
 20
0.0000260770320892
 30
0.0
 10
-353.3333361886993202
 20
0.0000260770320892
 30
0.0
  0
LWPOLYLINE
  5
72
  8
0
 62
0
370
-1
  6
BYLAYER
100
AcDbEntity
100
AcDbPolyline
 90
2
 70
0
 43
1.0
 10
-353.3333361886993202
 20
0.0000260770320892
 30
0.0
 10
-360.0000033453106312
 20
0.0000260770320892
 30
0.0
  0
LWPOLYLINE
  5
73
  8
0
 62
0
370
-1
  6
BYLAYER
100
AcDbEntity
100
AcDbPolyline
 90
2
 70
0
 43
1.0
 10
-360.0000033453106312
 20
0.0000260770320892
 30
0.0
 10
-366.6666705416584477
 20
0.0000260770320892
 30
0.0
  0
LWPOLYLINE
  5
74
  8
0
 62
0
370
-1
  6
BYLAYER
100
AcDbEntity
100
AcDbPolyline
 90
2
 70
0
 43
1.0
 10
-366.6666705416584477
 20
0.0000260770320892
 30
0.0
 10
-373.3333377446289205
 20
0.0000260770320892
 30
0.0
  0
LWPOLYLINE
  5
75
  8
0
 62
0
370
-1
  6
BYLAYER
100
AcDbEntity
100
AcDbPolyline
 90
2
 70
0
 43
1.0
 10
-373.3333377446289205
 20
0.0000260770320892
 30
0.0
 10
-380.0000049211084843
 20
0.0000260770320892
 30
0.0
  0
LWPOLYLINE
  5
76
  8
0
 62
0
370
-1
  6
BYLAYER
100
AcDbEntity
100
AcDbPolyline
 90
2
 70
0
 43
1.0
 10
-380.0000049211084843
 20
0.0000260770320892
 30
0.0
 10
-386.6666720379834032
 20
0.0000260770320892
 30
0.0
  0
LWPOLYLINE
  5
77
  8
0
 62
0
370
-1
  6
BYLAYER
100
AcDbEntity
100
AcDbPolyline
 90
2
 70
0
 43
1.0
 10
-386.6666720379834032
 20
0.0000260770320892
 30
0.0
 10
-393.3333390621399417
 20
0.0000260770320892
 30
0.0
  0
LWPOLYLINE
  5
78
  8
0
 62
0
370
-1
  6
BYLAYER
100
AcDbEntity
100
AcDbPolyline
 90
2
 70
0
 43
1.0
 10
-393.3333390621399417
 20
0.0000260770320892
 30
0.0
 10
-400.0000059604644775
 20
0.0000260770320892
 30
0.0
  0
LWPOLYLINE
  5
79
  8
0
 62
0
370
-1
  6
BYLAYER
100
AcDbEntity
100
AcDbPolyline
 90
2
 70
0
 43
1.0
 10
-400.0000059604644775
 20
0.0000260770320892
 30
0.0
 10
-400.0000059604644775
 20
0.0000260770320892
 30
0.0
  0
LWPOLYLINE
  5
7A
  8
0
 62
0
370
-1
  6
BYLAYER
100
AcDbEntity
100
AcDbPolyline
 90
2
 70
0
 43
1.0
 10
-400.0000059604644775
 20
0.0000260770320892
 30
0.0
 10
-400.0000059604644775
 20
0.0000260770320892
 30
0.0
  0
ENDBLK
  5
7B
100
AcDbEntity
  8
0
100
AcDbBlockEnd
  0
BLOCK
  5
7C
100
AcDbEntity
  8
0
100
AcDbBlockBegin
  2
W-0-1
 70
0
 10
0.0
 20
0.0
 30
0.0
  3
W-0-1
  1

  0
LWPOLYLINE
  5
7D
  8
0
 62
0
370
-1
  6
BYLAYER
100
AcDbEntity
100
AcDbPolyline
 90
2
 70
0
 43
3.0
 10
-394.0000056754797697
 20
-54.00000041350728
 30
0.0
 10
-394.0000056754797697
 20
-54.00000041350728
 30
0.0
  0
LWPOLYLINE
  5
7E
  8
0
 62
0
370
-1
  6
BYLAYER
100
AcDbEntity
100
AcDbPolyline
 90
2
 70
0
 43
3.0
 10
-394.0000056754797697
 20
-54.00000041350728
 30
0.0
 10
-328.0000025406479836
 20
-54.00000041350728
 30
0.0
  0
LWPOLYLINE
  5
7F
  8
0
 62
0
370
-1
  6
BYLAYER
100
AcDbEntity
100
AcDbPolyline
 90
2
 70
0
 43
3.0
 10
-328.0000025406479836
 20
-54.00000041350728
 30
0.0
 10
-261.9999994058161974
 20
-54.00000041350728
 30
0.0
  0
LWPOLYLINE
  5
80
  8
0
 62
0
370
-1
  6
BYLAYER
100
AcDbEntity
100
AcDbPolyline
 90
2
 70
0
 43
3.0
 10
-261.9999994058161974
 20
-54.00000041350728
 30
0.0
 10
-195.9999962709844112
 20
-54.00000041350728
 30
0.0
  0
LWPOLYLINE
  5
81
  8
0
 62
0
370
-1
  6
BYLAYER
100
AcDbEntity
100
AcDbPolyline
 90
2
 70
0
 43
3.0
 10
-195.9999962709844112
 20
-54.00000041350728
 30
0.0
 10
-129.9999931361526251
 20
-54.00000041350728
 30
0.0
  0
LWPOLYLINE
  5
82
  8
0
 62
0
370
-1
  6
BYLAYER
100
AcDbEntity
100
AcDbPolyline
 90
2
 70
0
 43
3.0
 10
-129.9999931361526251
 20
-54.00000041350728
 30
0.0
 10
-63.9999900013208389
 20
-54.00000041350728
 30
0.0
  0
LWPOLYLINE
  5
83
  8
0
 62
0
370
-1
  6
BYLAYER
100
AcDbEntity
100
AcDbPolyline
 90
2
 70
0
 43
3.0
 10
-63.9999900013208389
 20
-54.00000041350728
 30
0.0
 10
2.0000131335109472
 20
-54.00000041350728
 30
0.0
  0
LWPOLYLINE
  5
84
  8
0
 62
0
370
-1
  6
BYLAYER
100
AcDbEntity
100
AcDbPolyline
 90
2
 70
0
 43
3.0
 10
2.0000131335109472
 20
-54.00000041350728
 30
0.0
 10
68.0000162683427334
 20
-54.00000041350728
 30
0.0
  0
LWPOLYLINE
  5
85
  8
0
 62
0
370
-1
  6
BYLAYER
100
AcDbEntity
100
AcDbPolyline
 90
2
 70
0
 43
3.0
 10
68.0000162683427334
 20
-54.00000041350728
 30
0.0
 10
134.0000194031745195
 20
-54.00000041350728
 30
0.0
  0
LWPOLYLINE
  5
86
  8
0
 62
0
370
-1
  6
BYLAYER
100
AcDbEntity
100
AcDbPolyline
 90
2
 70
0
 43
3.0
 10
134.0000194031745195
 20
-54.00000041350728
 30
0.0
 10
200.0000225380063057
 20
-54.00000041350728
 30
0.0
  0
LWPOLYLINE
  5
87
  8
0
 62
0
370
-1
  6
BYLAYER
100
AcDbEntity
100
AcDbPolyline
 90
2
 70
0
 43
3.0
 10
200.0000225380063057
 20
-54.00000041350728
 30
0.0
 10
266.0000256728380919
 20
-54.00000041350728
 30
0.0
  0
LWPOLYLINE
  5
88
  8
0
 62
0
370
-1
  6
BYLAYER
100
AcDbEntity
100
AcDbPolyline
 90
2
 70
0
 43
3.0
 10
266.0000256728380919
 20
-54.00000041350728
 30
0.0
 10
332.000028807669878
 20
-54.00000041350728
 30
0.0
  0
LWPOLYLINE
  5
89
  8
0
 62
0
370
-1
  6
BYLAYER
100
AcDbEntity
100
AcDbPolyline
 90
2
 70
0
 43
3.0
 10
332.000028807669878
 20
-54.00000041350728
 30
0.0
 10
398.0000319425016642
 20
-54.00000041350728
 30
0.0
  0
LWPOLYLINE
  5
8A
  8
0
 62
0
370
-1
  6
BYLAYER
100
AcDbEntity
100
AcDbPolyline
 90
2
 70
0
 43
3.0
 10
398.0000319425016642
 20
-54.00000041350728
 30
0.0
 10
398.0000319425016642
 20
-44.6666678933910148
 30
0.0
  0
LWPOLYLINE
  5
8B
  8
0
 62
0
370
-1
  6
BYLAYER
100
AcDbEntity
100
AcDbPolyline
 90
2
 70
0
 43
3.0
 10
398.0000319425016642
 20
-44.6666678933910148
 30
0.0
 10
398.0000319425016642
 20
-35.3333351216107019
 30
0.0
  0
LWPOLYLINE
  5
8C
  8
0
 62
0
370
-1
  6
BYLAYER
100
AcDbEntity
100
AcDbPolyline
 90
2
 70
0
 43
3.0
 10
398.0000319425016642
 20
-35.3333351216107019
 30
0.0
 10
398.0000319425016642
 20
-26.0000021643937345
 30
0.0
  0
LWPOLYLINE
  5
8D
  8
0
 62
0
370
-1
  6
BYLAYER
100
AcDbEntity
100
AcDbPolyline
 90
2
 70
0
 43
3.0
 10
398.0000319425016642
 20
-26.0000021643937345
 30
0.0
 10
398.0000319425017778
 20
-16.6666690879674846
 30
0.0
  0
LWPOLYLINE
  5
8E
  8
0
 62
0
370
-1
  6
BYLAYER
100
AcDbEntity
100
AcDbPolyline
 90
2
 70
0
 43
3.0
 10
398.0000319425017778
 20
-16.6666690879674846
 30
0.0
 10
398.0000319425016642
 20
-7.3333359585593314
 30
0.0
  0
LWPOLYLINE
  5
8F
  8
0
 62
0
370
-1
  6
BYLAYER
100
AcDbEntity
100
AcDbPolyline
 90
2
 70
0
 43
3.0
 10
398.0000319425016642
 20
-7.3333359585593314
 30
0.0
 10
398.0000319425016642
 20
1.999997157603346
 30
0.0
  0
LWPOLYLINE
  5
90
  8
0
 62
0
370
-1
  6
BYLAYER
100
AcDbEntity
100
AcDbPolyline
 90
2
 70
0
 43
3.0
 10
398.0000319425016642
 20
1.999997157603346
 30
0.0
 10
398.0000319425016642
 20
11.3333301942931826
 30
0.0
  0
LWPOLYLINE
  5
91
  8
0
 62
0
370
-1
  6
BYLAYER
100
AcDbEntity
100
AcDbPolyline
 90
2
 70
0
 43
3.0
 10
398.0000319425016642
 20
11.3333301942931826
 30
0.0
 10
398.0000319425016642
 20
20.6666630852827495
 30
0.0
  0
LWPOLYLINE
  5
92
  8
0
 62
0
370
-1
  6
BYLAYER
100
AcDbEntity
100
AcDbPolyline
 90
2
 70
0
 43
3.0
 10
398.0000319425016642
 20
20.6666630852827495
 30
0.0
 10
398.0000319425016642
 20
29.9999957643447317
 30
0.0
  0
LWPOLYLINE
  5
93
  8
0
 62
0
370
-1
  6
BYLAYER
100
AcDbEntity
100
AcDbPolyline
 90
2
 70
0
 43
3.0
 10
398.0000319425016642
 20
29.9999957643447317
 30
0.0
 10
398.0000319425016642
 20
39.3333281652517286
 30
0.0
  0
LWPOLYLINE
  5
94
  8
0
 62
0
370
-1
  6
BYLAYER
100
AcDbEntity
100
AcDbPolyline
 90
2
 70
0
 43
3.0
 10
398.0000319425016642
 20
39.3333281652517286
 30
0.0
 10
398.0000319425016642
 20
48.6666602217763398
 30
0.0
  0
LWPOLYLINE
  5
95
  8
0
 62
0
370
-1
  6
BYLAYER
100
AcDbEntity
100
AcDbPolyline
 90
2
 70
0
 43
3.0
 10
398.0000319425016642
 20
48.6666602217763398
 30
0.0
 10
398.0000319425016642
 20
57.9999918676912216
 30
0.0
  0
LWPOLYLINE
  5
96
  8
0
 62
0
370
-1
  6
BYLAYER
100
AcDbEntity
100
AcDbPolyline
 90
2
 70
0
 43
3.0
 10
398.0000319425016642
 20
57.9999918676912216
 30
0.0
 10
332.0000288076697643
 20
57.9999918676911932
 30
0.0
  0
LWPOLYLINE
  5
97
  8
0
 62
0
370
-1
  6
BYLAYER
100
AcDbEntity
100
AcDbPolyline
 90
2
 70
0
 43
3.0
 10
332.0000288076697643
 20
57.9999918676911932
 30
0.0
 10
266.0000256728382055
 20
57.9999918676912216
 30
0.0
  0
LWPOLYLINE
  5
98
  8
0
 62
0
370
-1
  6
BYLAYER
100
AcDbEntity
100
AcDbPolyline
 90
2
 70
0
 43
3.0
 10
266.0000256728382055
 20
57.9999918676912216
 30
0.0
 10
200.0000225380063057
 20
57.9999918676912216
 30
0.0
  0
LWPOLYLINE
  5
99
  8
0
 62
0
370
-1
  6
BYLAYER
100
AcDbEntity
100
AcDbPolyline
 90
2
 70
0
 43
3.0
 10
200.0000225380063057
 20
57.9999918676912216
 30
0.0
 10
134.0000194031747469
 20
57.9999918676912216
 30
0.0
  0
LWPOLYLINE
  5
9A
  8
0
 62
0
370
-1
  6
BYLAYER
100
AcDbEntity
100
AcDbPolyline
 90
2
 70
0
 43
3.0
 10
134.0000194031747469
 20
57.9999918676912216
 30
0.0
 10
68.0000162683426197
 20
57.9999918676912216
 30
0.0
  0
LWPOLYLINE
  5
9B
  8
0
 62
0
370
-1
  6
BYLAYER
100
AcDbEntity
100
AcDbPolyline
 90
2
 70
0
 43
3.0
 10
68.0000162683426197
 20
57.9999918676912216
 30
0.0
 10
2.0000131335109472
 20
57.9999918676912216
 30
0.0
  0
LWPOLYLINE
  5
9C
  8
0
 62
0
370
-1
  6
BYLAYER
100
AcDbEntity
100
AcDbPolyline
 90
2
 70
0
 43
3.0
 10
2.0000131335109472
 20
57.9999918676912216
 30
0.0
 10
-63.9999900013208389
 20
57.9999918676912216
 30
0.0
  0
LWPOLYLINE
  5
9D
  8
0
 62
0
370
-1
  6
BYLAYER
100
AcDbEntity
100
AcDbPolyline
 90
2
 70
0
 43
3.0
 10
-63.9999900013208389
 20
57.9999918676912216
 30
0.0
 10
-129.9999931361526251
 20
57.9999918676912216
 30
0.0
  0
LWPOLYLINE
  5
9E
  8
0
 62
0
370
-1
  6
BYLAYER
100
AcDbEntity
100
AcDbPolyline
 90
2
 70
0
 43
3.0
 10
-129.9999931361526251
 20
57.9999918676912216
 30
0.0
 10
-195.9999962709844112
 20
57.9999918676912216
 30
0.0
  0
LWPOLYLINE
  5
9F
  8
0
 62
0
370
-1
  6
BYLAYER
100
AcDbEntity
100
AcDbPolyline
 90
2
 70
0
 43
3.0
 10
-195.9999962709844112
 20
57.9999918676912216
 30
0.0
 10
-261.9999994058161974
 20
57.9999918676912216
 30
0.0
  0
LWPOLYLINE
  5
A0
  8
0
 62
0
370
-1
  6
BYLAYER
100
AcDbEntity
100
AcDbPolyline
 90
2
 70
0
 43
3.0
 10
-261.9999994058161974
 20
57.9999918676912216
 30
0.0
 10
-328.0000025406479836
 20
57.9999918676912216
 30
0.0
  0
LWPOLYLINE
  5
A1
  8
0
 62
0
370
-1
  6
BYLAYER
100
AcDbEntity
100
AcDbPolyline
 90
2
 70
0
 43
3.0
 10
-328.0000025406479836
 20
57.9999918676912216
 30
0.0
 10
-394.0000056754797697
 20
57.9999918676912216
 30
0.0
  0
LWPOLYLINE
  5
A2
  8
0
 62
0
370
-1
  6
BYLAYER
100
AcDbEntity
100
AcDbPolyline
 90
2
 70
0
 43
3.0
 10
-394.0000056754797697
 20
57.9999918676912216
 30
0.0
 10
-394.0000056754797697
 20
48.6666602217763256
 30
0.0
  0
LWPOLYLINE
  5
A3
  8
0
 62
0
370
-1
  6
BYLAYER
100
AcDbEntity
100
AcDbPolyline
 90
2
 70
0
 43
3.0
 10
-394.0000056754797697
 20
48.6666602217763256
 30
0.0
 10
-394.0000056754797697
 20
39.333328165251757
 30
0.0
  0
LWPOLYLINE
  5
A4
  8
0
 62
0
370
-1
  6
BYLAYER
100
AcDbEntity
100
AcDbPolyline
 90
2
 70
0
 43
3.0
 10
-394.0000056754797697
 20
39.333328165251757
 30
0.0
 10
-394.0000056754797697
 20
29.9999957643447317
 30
0.0
  0
LWPOLYLINE
  5
A5
  8
0
 62
0
370
-1
  6
BYLAYER
100
AcDbEntity
100
AcDbPolyline
 90
2
 70
0
 43
3.0
 10
-394.0000056754797697
 20
29.9999957643447317
 30
0.0
 10
-394.0000056754797697
 20
20.6666630852827637
 30
0.0
  0
LWPOLYLINE
  5
A6
  8
0
 62
0
370
-1
  6
BYLAYER
100
AcDbEntity
100
AcDbPolyline
 90
2
 70
0
 43
3.0
 10
-394.0000056754797697
 20
20.6666630852827637
 30
0.0
 10
-394.0000056754797697
 20
11.3333301942931683
 30
0.0
  0
LWPOLYLINE
  5
A7
  8
0
 62
0
370
-1
  6
BYLAYER
100
AcDbEntity
100
AcDbPolyline
 90
2
 70
0
 43
3.0
 10
-394.0000056754797697
 20
11.3333301942931683
 30
0.0
 10
-394.0000056754797697
 20
1.999997157603346
 30
0.0
  0
LWPOLYLINE
  5
A8
  8
0
 62
0
370
-1
  6
BYLAYER
100
AcDbEntity
100
AcDbPolyline
 90
2
 70
0
 43
3.0
 10
-394.0000056754797697
 20
1.999997157603346
 30
0.0
 10
-394.0000056754797697
 20
-7.3333359585593314
 30
0.0
  0
LWPOLYLINE
  5
A9
  8
0
 62
0
370
-1
  6
BYLAYER
100
AcDbEntity
100
AcDbPolyline
 90
2
 70
0
 43
3.0
 10
-394.0000056754797697
 20
-7.3333359585593314
 30
0.0
 10
-394.0000056754797697
 20
-16.6666690879674846
 30
0.0
  0
LWPOLYLINE
  5
AA
  8
0
 62
0
370
-1
  6
BYLAYER
100
AcDbEntity
100
AcDbPolyline
 90
2
 70
0
 43
3.0
 10
-394.0000056754797697
 20
-16.6666690879674846
 30
0.0
 10
-394.0000056754797697
 20
-26.0000021643937345
 30
0.0
  0
LWPOLYLINE
  5
AB
  8
0
 62
0
370
-1
  6
BYLAYER
100
AcDbEntity
100
AcDbPolyline
 90
2
 70
0
 43
3.0
 10
-394.0000056754797697
 20
-26.0000021643937345
 30
0.0
 10
-394.0000056754797697
 20
-35.3333351216107019
 30
0.0
  0
LWPOLYLINE
  5
AC
  8
0
 62
0
370
-1
  6
BYLAYER
100
AcDbEntity
100
AcDbPolyline
 90
2
 70
0
 43
3.0
 10
-394.0000056754797697
 20
-35.3333351216107019
 30
0.0
 10
-394.0000056754797697
 20
-44.6666678933910077
 30
0.0
  0
LWPOLYLINE
  5
AD
  8
0
 62
0
370
-1
  6
BYLAYER
100
AcDbEntity
100
AcDbPolyline
 90
2
 70
0
 43
3.0
 10
-394.0000056754797697
 20
-44.6666678933910077
 30
0.0
 10
-394.0000056754797697
 20
-54.00000041350728
 30
0.0
  0
LWPOLYLINE
  5
AE
  8
0
 62
0
370
-1
  6
BYLAYER
100
AcDbEntity
100
AcDbPolyline
 90
2
 70
0
 43
3.0
 10
-394.0000056754797697
 20
-54.00000041350728
 30
0.0
 10
-394.0000056754797697
 20
-54.00000041350728
 30
0.0
  0
LWPOLYLINE
  5
AF
  8
0
 62
0
370
-1
  6
BYLAYER
100
AcDbEntity
100
AcDbPolyline
 90
2
 70
0
 43
3.0
 10
-394.0000056754797697
 20
-54.00000041350728
 30
0.0
 10
-394.0000056754797697
 20
-54.00000041350728
 30
0.0
  0
LWPOLYLINE
  5
B0
  8
0
 62
0
370
-1
  6
BYLAYER
100
AcDbEntity
100
AcDbPolyline
 90
2
 70
0
 43
6.0
 10
-366.0000043455511332
 20
3.1159967793299401
 30
0.0
 10
-366.0000043455511332
 20
3.1159967793299401
 30
0.0
  0
LWPOLYLINE
  5
B1
  8
0
 62
0
370
-1
  6
BYLAYER
100
AcDbEntity
100
AcDbPolyline
 90
2
 70
0
 43
6.0
 10
-366.0000043455511332
 20
3.1159967793299401
 30
0.0
 10
-337.7753331952566214
 20
3.0729965610409735
 30
0.0
  0
LWPOLYLINE
  5
B2
  8
0
 62
0
370
-1
  6
BYLAYER
100
AcDbEntity
100
AcDbPolyline
 90
2
 70
0
 43
6.0
 10
-337.7753331952566214
 20
3.0729965610409735
 30
0.0
 10
-309.5506631046002894
 20
3.0299963427520353
 30
0.0
  0
LWPOLYLINE
  5
B3
  8
0
 62
0
370
-1
  6
BYLAYER
100
AcDbEntity
100
AcDbPolyline
 90
2
 70
0
 43
6.0
 10
-309.5506631046002894
 20
3.0299963427520353
 30
0.0
 10
-281.3259938616544673
 20
2.9869961244630687
 30
0.0
  0
LWPOLYLINE
  5
B4
  8
0
 62
0
370
-1
  6
BYLAYER
100
AcDbEntity
100
AcDbPolyline
 90
2
 70
0
 43
6.0
 10
-281.3259938616544673
 20
2.9869961244630687
 30
0.0
 10
-253.1013252544915701
 20
2.9439959061741234
 30
0.0
  0
LWPOLYLINE
  5
B5
  8
0
 62
0
370
-1
  6
BYLAYER
100
AcDbEntity
100
AcDbPolyline
 90
2
 70
0
 43
6.0
 10
-253.1013252544915701
 20
2.9439959061741234
 30
0.0
 10
-224.8766570711839847
 20
2.9009956878851355
 30
0.0
  0
LWPOLYLINE
  5
B6
  8
0
 62
0
370
-1
  6
BYLAYER
100
AcDbEntity
100
AcDbPolyline
 90
2
 70
0
 43
6.0
 10
-224.8766570711839847
 20
2.9009956878851355
 30
0.0
 10
-196.6519890998039841
 20
2.8579954695961902
 30
0.0
  0
LWPOLYLINE
  5
B7
  8
0
 62
0
370
-1
  6
BYLAYER
100
AcDbEntity
100
AcDbPolyline
 90
2
 70
0
 43
6.0
 10
-196.6519890998039841
 20
2.8579954695961902
 30
0.0
 10
-168.4273211284239551
 20
2.8149952513072378
 30
0.0
  0
LWPOLYLINE
  5
B8
  8
0
 62
0
370
-1
  6
BYLAYER
100
AcDbEntity
100
AcDbPolyline
 90
2
 70
0
 43
6.0
 10
-168.4273211284239551
 20
2.8149952513072378
 30
0.0
 10
-140.2026529451164265
 20
2.7719950330182783
 30
0.0
  0
LWPOLYLINE
  5
B9
  8
0
 62
0
370
-1
  6
BYLAYER
100
AcDbEntity
100
AcDbPolyline
 90
2
 70
0
 43
6.0
 10
-140.2026529451164265
 20
2.7719950330182783
 30
0.0
 10
-111.9779843379535009
 20
2.7289948147293188
 30
0.0
  0
LWPOLYLINE
  5
BA
  8
0
 62
0
370
-1
  6
BYLAYER
100
AcDbEntity
100
AcDbPolyline
 90
2
 70
0
 43
6.0
 10
-111.9779843379535009
 20
2.7289948147293188
 30
0.0
 10
-83.7533150950076788
 20
2.6859945964403664
 30
0.0
  0
LWPOLYLINE
  5
BB
  8
0
 62
0
370
-1
  6
BYLAYER
100
AcDbEntity
100
AcDbPolyline
 90
2
 70
0
 43
6.0
 10
-83.7533150950076788
 20
2.6859945964403664
 30
0.0
 10
-55.5286450043513469
 20
2.6429943781514069
 30
0.0
  0
LWPOLYLINE
  5
BC
  8
0
 62
0
370
-1
  6
BYLAYER
100
AcDbEntity
100
AcDbPolyline
 90
2
 70
0
 43
6.0
 10
-55.5286450043513469
 20
2.6429943781514069
 30
0.0
 10
-27.3039738540568351
 20
2.5999941598624474
 30
0.0
  0
LWPOLYLINE
  5
BD
  8
0
 62
0
370
-1
  6
BYLAYER
100
AcDbEntity
100
AcDbPolyline
 90
2
 70
0
 43
3.0
 10
-394.0000056754797697
 20
-30.0000020675361725
 30
0.0
 10
-394.0000056754797697
 20
-30.0000020675361725
 30
0.0
  0
LWPOLYLINE
  5
BE
  8
0
 62
0
370
-1
  6
BYLAYER
100
AcDbEntity
100
AcDbPolyline
 90
2
 70
0
 43
3.0
 10
-394.0000056754797697
 20
-30.0000020675361725
 30
0.0
 10
-392.0000055804848671
 20
-30.0000020675361725
 30
0.0
  0
LWPOLYLINE
  5
BF
  8
0
 62
0
370
-1
  6
BYLAYER
100
AcDbEntity
100
AcDbPolyline
 90
2
 70
0
 43
3.0
 10
-392.0000055804848671
 20
-30.0000020675361725
 30
0.0
 10
-390.0000054854899645
 20
-30.0000020675361725
 30
0.0
  0
LWPOLYLINE
  5
C0
  8
0
 62
0
370
-1
  6
BYLAYER
100
AcDbEntity
100
AcDbPolyline
 90
2
 70
0
 43
3.0
 10
-390.0000054854899645
 20
-30.0000020675361725
 30
0.0
 10
-388.0000053904950619
 20
-30.0000020675361725
 30
0.0
  0
LWPOLYLINE
  5
C1
  8
0
 62
0
370
-1
  6
BYLAYER
100
AcDbEntity
100
AcDbPolyline
 90
2
 70
0
 43
3.0
 10
-388.0000053904950619
 20
-30.0000020675361725
 30
0.0
 10
-386.0000052955001593
 20
-30.0000020675361689
 30
0.0
  0
LWPOLYLINE
  5
C2
  8
0
 62
0
370
-1
  6
BYLAYER
100
AcDbEntity
100
AcDbPolyline
 90
2
 70
0
 43
3.0
 10
-386.0000052955001593
 20
-30.0000020675361689
 30
0.0
 10
-384.0000052005052567
 20
-30.0000020675361796
 30
0.0
  0
LWPOLYLINE
  5
C3
  8
0
 62
0
370
-1
  6
BYLAYER
100
AcDbEntity
100
AcDbPolyline
 90
2
 70
0
 43
3.0
 10
-384.0000052005052567
 20
-30.0000020675361796
 30
0.0
 10
-382.000005105510354
 20
-30.0000020675361725
 30
0.0
  0
LWPOLYLINE
  5
C4
  8
0
 62
0
370
-1
  6
BYLAYER
100
AcDbEntity
100
AcDbPolyline
 90
2
 70
0
 43
3.0
 10
-382.000005105510354
 20
-30.0000020675361725
 30
0.0
 10
-380.0000050105154514
 20
-30.0000020675361725
 30
0.0
  0
LWPOLYLINE
  5
C5
  8
0
 62
0
370
-1
  6
BYLAYER
100
AcDbEntity
100
AcDbPolyline
 90
2
 70
0
 43
3.0
 10
-380.0000050105154514
 20
-30.0000020675361725
 30
0.0
 10
-378.0000049155205488
 20
-30.0000020675361725
 30
0.0
  0
LWPOLYLINE
  5
C6
  8
0
 62
0
370
-1
  6
BYLAYER
100
AcDbEntity
100
AcDbPolyline
 90
2
 70
0
 43
3.0
 10
-378.0000049155205488
 20
-30.0000020675361725
 30
0.0
 10
-376.0000048205256462
 20
-30.0000020675361725
 30
0.0
  0
LWPOLYLINE
  5
C7
  8
0
 62
0
370
-1
  6
BYLAYER
100
AcDbEntity
100
AcDbPolyline
 90
2
 70
0
 43
3.0
 10
-376.0000048205256462
 20
-30.0000020675361725
 30
0.0
 10
-374.0000047255307436
 20
-30.0000020675361725
 30
0.0
  0
LWPOLYLINE
  5
C8
  8
0
 62
0
370
-1
  6
BYLAYER
100
AcDbEntity
100
AcDbPolyline
 90
2
 70
0
 43
3.0
 10
-374.0000047255307436
 20
-30.0000020675361725
 30
0.0
 10
-372.000004630535841
 20
-30.0000020675361725
 30
0.0
  0
LWPOLYLINE
  5
C9
  8
0
 62
0
370
-1
  6
BYLAYER
100
AcDbEntity
100
AcDbPolyline
 90
2
 70
0
 43
3.0
 10
-372.000004630535841
 20
-30.0000020675361725
 30
0.0
 10
-370.0000045355409384
 20
-30.0000020675361725
 30
0.0
  0
LWPOLYLINE
  5
CA
  8
0
 62
0
370
-1
  6
BYLAYER
100
AcDbEntity
100
AcDbPolyline
 90
2
 70
0
 43
3.0
 10
-370.0000045355409384
 20
-30.0000020675361725
 30
0.0
 10
-370.0000045355409384
 20
-24.6666686160973825
 30
0.0
  0
LWPOLYLINE
  5
CB
  8
0
 62
0
370
-1
  6
BYLAYER
100
AcDbEntity
100
AcDbPolyline
 90
2
 70
0
 43
3.0
 10
-370.0000045355409384
 20
-24.6666686160973825
 30
0.0
 10
-370.0000045355409384
 20
-19.3333354295680948
 30
0.0
  0
LWPOLYLINE
  5
CC
  8
0
 62
0
370
-1
  6
BYLAYER
100
AcDbEntity
100
AcDbPolyline
 90
2
 70
0
 43
3.0
 10
-370.0000045355409384
 20
-19.3333354295680948
 30
0.0
 10
-370.0000045355409384
 20
-14.0000024549664133
 30
0.0
  0
LWPOLYLINE
  5
CD
  8
0
 62
0
370
-1
  6
BYLAYER
100
AcDbEntity
100
AcDbPolyline
 90
2
 70
0
 43
3.0
 10
-370.0000045355409384
 20
-14.0000024549664133
 30
0.0
 10
-370.0000045355409384
 20
-8.6666696393104345
 30
0.0
  0
LWPOLYLINE
  5
CE
  8
0
 62
0
370
-1
  6
BYLAYER
100
AcDbEntity
100
AcDbPolyline
 90
2
 70
0
 43
3.0
 10
-370.0000045355409384
 20
-8.6666696393104345
 30
0.0
 10
-370.0000045355409384
 20
-3.333336929618298
 30
0.0
  0
LWPOLYLINE
  5
CF
  8
0
 62
0
370
-1
  6
BYLAYER
100
AcDbEntity
100
AcDbPolyline
 90
2
 70
0
 43
3.0
 10
-370.0000045355409384
 20
-3.333336929618298
 30
0.0
 10
-370.0000045355409384
 20
1.9999957270919708
 30
0.0
  0
LWPOLYLINE
  5
D0
  8
0
 62
0
370
-1
  6
BYLAYER
100
AcDbEntity
100
AcDbPolyline
 90
2
 70
0
 43
3.0
 10
-370.0000045355409384
 20
1.9999957270919708
 30
0.0
 10
-370.0000045355409384
 20
7.3333283838022254
 30
0.0
  0
LWPOLYLINE
  5
D1
  8
0
 62
0
370
-1
  6
BYLAYER
100
AcDbEntity
100
AcDbPolyline
 90
2
 70
0
 43
3.0
 10
-370.0000045355409384
 20
7.3333283838022254
 30
0.0
 10
-370.0000045355409384
 20
12.6666610934943833
 30
0.0
  0
LWPOLYLINE
  5
D2
  8
0
 62
0
370
-1
  6
BYLAYER
100
AcDbEntity
100
AcDbPolyline
 90
2
 70
0
 43
3.0
 10
-370.0000045355409384
 20
12.6666610934943833
 30
0.0
 10
-370.0000045355409384
 20
17.9999939091503478
 30
0.0
  0
LWPOLYLINE
  5
D3
  8
0
 62
0
370
-1
  6
BYLAYER
100
AcDbEntity
100
AcDbPolyline
 90
2
 70
0
 43
3.0
 10
-370.0000045355409384
 20
17.9999939091503478
 30
0.0
 10
-370.0000045355409384
 20
23.3333268837520365
 30
0.0
  0
LWPOLYLINE
  5
D4
  8
0
 62
0
370
-1
  6
BYLAYER
100
AcDbEntity
100
AcDbPolyline
 90
2
 70
0
 43
3.0
 10
-370.0000045355409384
 20
23.3333268837520365
 30
0.0
 10
-370.0000045355409384
 20
28.6666600702813099
 30
0.0
  0
LWPOLYLINE
  5
D5
  8
0
 62
0
370
-1
  6
BYLAYER
100
AcDbEntity
100
AcDbPolyline
 90
2
 70
0
 43
3.0
 10
-370.0000045355409384
 20
28.6666600702813099
 30
0.0
 10
-370.0000045355409384
 20
33.9999935217201141
 30
0.0
  0
LWPOLYLINE
  5
D6
  8
0
 62
0
370
-1
  6
BYLAYER
100
AcDbEntity
100
AcDbPolyline
 90
2
 70
0
 43
3.0
 10
-370.0000045355409384
 20
33.9999935217201141
 30
0.0
 10
-372.000004630535841
 20
33.9999935217200999
 30
0.0
  0
LWPOLYLINE
  5
D7
  8
0
 62
0
370
-1
  6
BYLAYER
100
AcDbEntity
100
AcDbPolyline
 90
2
 70
0
 43
3.0
 10
-372.000004630535841
 20
33.9999935217200999
 30
0.0
 10
-374.0000047255307436
 20
33.9999935217201283
 30
0.0
  0
LWPOLYLINE
  5
D8
  8
0
 62
0
370
-1
  6
BYLAYER
100
AcDbEntity
100
AcDbPolyline
 90
2
 70
0
 43
3.0
 10
-374.0000047255307436
 20
33.9999935217201283
 30
0.0
 10
-376.0000048205256462
 20
33.9999935217201141
 30
0.0
  0
LWPOLYLINE
  5
D9
  8
0
 62
0
370
-1
  6
BYLAYER
100
AcDbEntity
100
AcDbPolyline
 90
2
 70
0
 43
3.0
 10
-376.0000048205256462
 20
33.9999935217201141
 30
0.0
 10
-378.0000049155205488
 20
33.9999935217201141
 30
0.0
  0
LWPOLYLINE
  5
DA
  8
0
 62
0
370
-1
  6
BYLAYER
100
AcDbEntity
100
AcDbPolyline
 90
2
 70
0
 43
3.0
 10
-378.0000049155205488
 20
33.9999935217201141
 30
0.0
 10
-380.0000050105154514
 20
33.9999935217201141
 30
0.0
  0
LWPOLYLINE
  5
DB
  8
0
 62
0
370
-1
  6
BYLAYER
100
AcDbEntity
100
AcDbPolyline
 90
2
 70
0
 43
3.0
 10
-380.0000050105154514
 20
33.9999935217201141
 30
0.0
 10
-382.000005105510354
 20
33.9999935217201141
 30
0.0
  0
LWPOLYLINE
  5
DC
  8
0
 62
0
370
-1
  6
BYLAYER
100
AcDbEntity
100
AcDbPolyline
 90
2
 70
0
 43
3.0
 10
-382.000005105510354
 20
33.9999935217201141
 30
0.0
 10
-384.0000052005052567
 20
33.9999935217201141
 30
0.0
  0
LWPOLYLINE
  5
DD
  8
0
 62
0
370
-1
  6
BYLAYER
100
AcDbEntity
100
AcDbPolyline
 90
2
 70
0
 43
3.0
 10
-384.0000052005052567
 20
33.9999935217201141
 30
0.0
 10
-386.0000052955001593
 20
33.9999935217201141
 30
0.0
  0
LWPOLYLINE
  5
DE
  8
0
 62
0
370
-1
  6
BYLAYER
100
AcDbEntity
100
AcDbPolyline
 90
2
 70
0
 43
3.0
 10
-386.0000052955001593
 20
33.9999935217201141
 30
0.0
 10
-388.0000053904950619
 20
33.9999935217201141
 30
0.0
  0
LWPOLYLINE
  5
DF
  8
0
 62
0
370
-1
  6
BYLAYER
100
AcDbEntity
100
AcDbPolyline
 90
2
 70
0
 43
3.0
 10
-388.0000053904950619
 20
33.9999935217201141
 30
0.0
 10
-390.0000054854899645
 20
33.9999935217201141
 30
0.0
  0
LWPOLYLINE
  5
E0
  8
0
 62
0
370
-1
  6
BYLAYER
100
AcDbEntity
100
AcDbPolyline
 90
2
 70
0
 43
3.0
 10
-390.0000054854899645
 20
33.9999935217201141
 30
0.0
 10
-392.0000055804848671
 20
33.9999935217201141
 30
0.0
  0
LWPOLYLINE
  5
E1
  8
0
 62
0
370
-1
  6
BYLAYER
100
AcDbEntity
100
AcDbPolyline
 90
2
 70
0
 43
3.0
 10
-392.0000055804848671
 20
33.9999935217201141
 30
0.0
 10
-394.0000056754797697
 20
33.9999935217201141
 30
0.0
  0
LWPOLYLINE
  5
E2
  8
0
 62
0
370
-1
  6
BYLAYER
100
AcDbEntity
100
AcDbPolyline
 90
2
 70
0
 43
3.0
 10
-394.0000056754797697
 20
33.9999935217201141
 30
0.0
 10
-394.0000056754797697
 20
28.6666600702812957
 30
0.0
  0
LWPOLYLINE
  5
E3
  8
0
 62
0
370
-1
  6
BYLAYER
100
AcDbEntity
100
AcDbPolyline
 90
2
 70
0
 43
3.0
 10
-394.0000056754797697
 20
28.6666600702812957
 30
0.0
 10
-394.0000056754797697
 20
23.3333268837520507
 30
0.0
  0
LWPOLYLINE
  5
E4
  8
0
 62
0
370
-1
  6
BYLAYER
100
AcDbEntity
100
AcDbPolyline
 90
2
 70
0
 43
3.0
 10
-394.0000056754797697
 20
23.3333268837520507
 30
0.0
 10
-394.0000056754797697
 20
17.9999939091503478
 30
0.0
  0
LWPOLYLINE
  5
E5
  8
0
 62
0
370
-1
  6
BYLAYER
100
AcDbEntity
100
AcDbPolyline
 90
2
 70
0
 43
3.0
 10
-394.0000056754797697
 20
17.9999939091503478
 30
0.0
 10
-394.0000056754797697
 20
12.6666610934943975
 30
0.0
  0
LWPOLYLINE
  5
E6
  8
0
 62
0
370
-1
  6
BYLAYER
100
AcDbEntity
100
AcDbPolyline
 90
2
 70
0
 43
3.0
 10
-394.0000056754797697
 20
12.6666610934943975
 30
0.0
 10
-394.0000056754797697
 20
7.3333283838022112
 30
0.0
  0
LWPOLYLINE
  5
E7
  8
0
 62
0
370
-1
  6
BYLAYER
100
AcDbEntity
100
AcDbPolyline
 90
2
 70
0
 43
3.0
 10
-394.0000056754797697
 20
7.3333283838022112
 30
0.0
 10
-394.0000056754797697
 20
1.9999957270919708
 30
0.0
  0
LWPOLYLINE
  5
E8
  8
0
 62
0
370
-1
  6
BYLAYER
100
AcDbEntity
100
AcDbPolyline
 90
2
 70
0
 43
3.0
 10
-394.0000056754797697
 20
1.9999957270919708
 30
0.0
 10
-394.0000056754797697
 20
-3.3333369296182909
 30
0.0
  0
LWPOLYLINE
  5
E9
  8
0
 62
0
370
-1
  6
BYLAYER
100
AcDbEntity
100
AcDbPolyline
 90
2
 70
0
 43
3.0
 10
-394.0000056754797697
 20
-3.3333369296182909
 30
0.0
 10
-394.0000056754797697
 20
-8.6666696393104345
 30
0.0
  0
LWPOLYLINE
  5
EA
  8
0
 62
0
370
-1
  6
BYLAYER
100
AcDbEntity
100
AcDbPolyline
 90
2
 70
0
 43
3.0
 10
-394.0000056754797697
 20
-8.6666696393104345
 30
0.0
 10
-394.0000056754797697
 20
-14.0000024549664133
 30
0.0
  0
LWPOLYLINE
  5
EB
  8
0
 62
0
370
-1
  6
BYLAYER
100
AcDbEntity
100
AcDbPolyline
 90
2
 70
0
 43
3.0
 10
-394.0000056754797697
 20
-14.0000024549664133
 30
0.0
 10
-394.0000056754797697
 20
-19.3333354295681019
 30
0.0
  0
LWPOLYLINE
  5
EC
  8
0
 62
0
370
-1
  6
BYLAYER
100
AcDbEntity
100
AcDbPolyline
 90
2
 70
0
 43
3.0
 10
-394.0000056754797697
 20
-19.3333354295681019
 30
0.0
 10
-394.0000056754797697
 20
-24.6666686160973683
 30
0.0
  0
LWPOLYLINE
  5
ED
  8
0
 62
0
370
-1
  6
BYLAYER
100
AcDbEntity
100
AcDbPolyline
 90
2
 70
0
 43
3.0
 10
-394.0000056754797697
 20
-24.6666686160973683
 30
0.0
 10
-394.0000056754797697
 20
-30.0000020675361725
 30
0.0
  0
LWPOLYLINE
  5
EE
  8
0
 62
0
370
-1
  6
BYLAYER
100
AcDbEntity
100
AcDbPolyline
 90
2
 70
0
 43
3.0
 10
-394.0000056754797697
 20
-30.0000020675361725
 30
0.0
 10
-394.0000056754797697
 20
-30.0000020675361725
 30
0.0
  0
LWPOLYLINE
  5
EF
  8
0
 62
0
370
-1
  6
BYLAYER
100
AcDbEntity
100
AcDbPolyline
 90
2
 70
0
 43
3.0
 10
-394.0000056754797697
 20
-30.0000020675361725
 30
0.0
 10
-394.0000056754797697
 20
-30.0000020675361725
 30
0.0
  0
LWPOLYLINE
  5
F0
  8
0
 62
0
370
-1
  6
BYLAYER
100
AcDbEntity
100
AcDbPolyline
 90
2
 70
0
 43
3.0
 10
374.0000308025628328
 20
-30.0000020675361725
 30
0.0
 10
374.0000308025628328
 20
-30.0000020675361725
 30
0.0
  0
LWPOLYLINE
  5
F1
  8
0
 62
0
370
-1
  6
BYLAYER
100
AcDbEntity
100
AcDbPolyline
 90
2
 70
0
 43
3.0
 10
374.0000308025628328
 20
-30.0000020675361725
 30
0.0
 10
376.0000308975577354
 20
-30.0000020675361725
 30
0.0
  0
LWPOLYLINE
  5
F2
  8
0
 62
0
370
-1
  6
BYLAYER
100
AcDbEntity
100
AcDbPolyline
 90
2
 70
0
 43
3.0
 10
376.0000308975577354
 20
-30.0000020675361725
 30
0.0
 10
378.0000309925526381
 20
-30.0000020675361725
 30
0.0
  0
LWPOLYLINE
  5
F3
  8
0
 62
0
370
-1
  6
BYLAYER
100
AcDbEntity
100
AcDbPolyline
 90
2
 70
0
 43
3.0
 10
378.0000309925526381
 20
-30.0000020675361725
 30
0.0
 10
380.0000310875475407
 20
-30.0000020675361725
 30
0.0
  0
LWPOLYLINE
  5
F4
  8
0
 62
0
370
-1
  6
BYLAYER
100
AcDbEntity
100
AcDbPolyline
 90
2
 70
0
 43
3.0
 10
380.0000310875475407
 20
-30.0000020675361725
 30
0.0
 10
382.0000311825426706
 20
-30.0000020675361689
 30
0.0
  0
LWPOLYLINE
  5
F5
  8
0
 62
0
370
-1
  6
BYLAYER
100
AcDbEntity
100
AcDbPolyline
 90
2
 70
0
 43
3.0
 10
382.0000311825426706
 20
-30.0000020675361689
 30
0.0
 10
384.0000312775371185
 20
-30.0000020675361796
 30
0.0
  0
LWPOLYLINE
  5
F6
  8
0
 62
0
370
-1
  6
BYLAYER
100
AcDbEntity
100
AcDbPolyline
 90
2
 70
0
 43
3.0
 10
384.0000312775371185
 20
-30.0000020675361796
 30
0.0
 10
386.0000313725322485
 20
-30.0000020675361725
 30
0.0
  0
LWPOLYLINE
  5
F7
  8
0
 62
0
370
-1
  6
BYLAYER
100
AcDbEntity
100
AcDbPolyline
 90
2
 70
0
 43
3.0
 10
386.0000313725322485
 20
-30.0000020675361725
 30
0.0
 10
388.0000314675272648
 20
-30.0000020675361725
 30
0.0
  0
LWPOLYLINE
  5
F8
  8
0
 62
0
370
-1
  6
BYLAYER
100
AcDbEntity
100
AcDbPolyline
 90
2
 70
0
 43
3.0
 10
388.0000314675272648
 20
-30.0000020675361725
 30
0.0
 10
390.00003156252194
 20
-30.0000020675361725
 30
0.0
  0
LWPOLYLINE
  5
F9
  8
0
 62
0
370
-1
  6
BYLAYER
100
AcDbEntity
100
AcDbPolyline
 90
2
 70
0
 43
3.0
 10
390.00003156252194
 20
-30.0000020675361725
 30
0.0
 10
392.0000316575169563
 20
-30.0000020675361725
 30
0.0
  0
LWPOLYLINE
  5
FA
  8
0
 62
0
370
-1
  6
BYLAYER
100
AcDbEntity
100
AcDbPolyline
 90
2
 70
0
 43
3.0
 10
392.0000316575169563
 20
-30.0000020675361725
 30
0.0
 10
394.0000317525118589
 20
-30.0000020675361725
 30
0.0
  0
LWPOLYLINE
  5
FB
  8
0
 62
0
370
-1
  6
BYLAYER
100
AcDbEntity
100
AcDbPolyline
 90
2
 70
0
 43
3.0
 10
394.0000317525118589
 20
-30.0000020675361725
 30
0.0
 10
396.0000318475068752
 20
-30.0000020675361725
 30
0.0
  0
LWPOLYLINE
  5
FC
  8
0
 62
0
370
-1
  6
BYLAYER
100
AcDbEntity
100
AcDbPolyline
 90
2
 70
0
 43
3.0
 10
396.0000318475068752
 20
-30.0000020675361725
 30
0.0
 10
398.0000319425016642
 20
-30.0000020675361725
 30
0.0
  0
LWPOLYLINE
  5
FD
  8
0
 62
0
370
-1
  6
BYLAYER
100
AcDbEntity
100
AcDbPolyline
 90
2
 70
0
 43
3.0
 10
398.0000319425016642
 20
-30.0000020675361725
 30
0.0
 10
398.0000319425016642
 20
-24.6666686160973825
 30
0.0
  0
LWPOLYLINE
  5
FE
  8
0
 62
0
370
-1
  6
BYLAYER
100
AcDbEntity
100
AcDbPolyline
 90
2
 70
0
 43
3.0
 10
398.0000319425016642
 20
-24.6666686160973825
 30
0.0
 10
398.0000319425016642
 20
-19.3333354295680948
 30
0.0
  0
LWPOLYLINE
  5
FF
  8
0
 62
0
370
-1
  6
BYLAYER
100
AcDbEntity
100
AcDbPolyline
 90
2
 70
0
 43
3.0
 10
398.0000319425016642
 20
-19.3333354295680948
 30
0.0
 10
398.0000319425016642
 20
-14.0000024549664133
 30
0.0
  0
LWPOLYLINE
  5
100
  8
0
 62
0
370
-1
  6
BYLAYER
100
AcDbEntity
100
AcDbPolyline
 90
2
 70
0
 43
3.0
 10
398.0000319425016642
 20
-14.0000024549664133
 30
0.0
 10
398.0000319425017778
 20
-8.6666696393104345
 30
0.0
  0
LWPOLYLINE
  5
101
  8
0
 62
0
370
-1
  6
BYLAYER
100
AcDbEntity
100
AcDbPolyline
 90
2
 70
0
 43
3.0
 10
398.0000319425017778
 20
-8.6666696393104345
 30
0.0
 10
398.0000319425016642
 20
-3.333336929618298
 30
0.0
  0
LWPOLYLINE
  5
102
  8
0
 62
0
370
-1
  6
BYLAYER
100
AcDbEntity
100
AcDbPolyline
 90
2
 70
0
 43
3.0
 10
398.0000319425016642
 20
-3.333336929618298
 30
0.0
 10
398.0000319425016642
 20
1.9999957270919708
 30
0.0
  0
LWPOLYLINE
  5
103
  8
0
 62
0
370
-1
  6
BYLAYER
100
AcDbEntity
100
AcDbPolyline
 90
2
 70
0
 43
3.0
 10
398.0000319425016642
 20
1.9999957270919708
 30
0.0
 10
398.0000319425016642
 20
7.3333283838022254
 30
0.0
  0
LWPOLYLINE
  5
104
  8
0
 62
0
370
-1
  6
BYLAYER
100
AcDbEntity
100
AcDbPolyline
 90
2
 70
0
 43
3.0
 10
398.0000319425016642
 20
7.3333283838022254
 30
0.0
 10
398.0000319425016642
 20
12.6666610934943833
 30
0.0
  0
LWPOLYLINE
  5
105
  8
0
 62
0
370
-1
  6
BYLAYER
100
AcDbEntity
100
AcDbPolyline
 90
2
 70
0
 43
3.0
 10
398.0000319425016642
 20
12.6666610934943833
 30
0.0
 10
398.0000319425016642
 20
17.9999939091503478
 30
0.0
  0
LWPOLYLINE
  5
106
  8
0
 62
0
370
-1
  6
BYLAYER
100
AcDbEntity
100
AcDbPolyline
 90
2
 70
0
 43
3.0
 10
398.0000319425016642
 20
17.9999939091503478
 30
0.0
 10
398.0000319425016642
 20
23.3333268837520365
 30
0.0
  0
LWPOLYLINE
  5
107
  8
0
 62
0
370
-1
  6
BYLAYER
100
AcDbEntity
100
AcDbPolyline
 90
2
 70
0
 43
3.0
 10
398.0000319425016642
 20
23.3333268837520365
 30
0.0
 10
398.0000319425016642
 20
28.6666600702813099
 30
0.0
  0
LWPOLYLINE
  5
108
  8
0
 62
0
370
-1
  6
BYLAYER
100
AcDbEntity
100
AcDbPolyline
 90
2
 70
0
 43
3.0
 10
398.0000319425016642
 20
28.6666600702813099
 30
0.0
 10
398.0000319425016642
 20
33.9999935217201141
 30
0.0
  0
LWPOLYLINE
  5
109
  8
0
 62
0
370
-1
  6
BYLAYER
100
AcDbEntity
100
AcDbPolyline
 90
2
 70
0
 43
3.0
 10
398.0000319425016642
 20
33.9999935217201141
 30
0.0
 10
396.0000318475067616
 20
33.9999935217200999
 30
0.0
  0
LWPOLYLINE
  5
10A
  8
0
 62
0
370
-1
  6
BYLAYER
100
AcDbEntity
100
AcDbPolyline
 90
2
 70
0
 43
3.0
 10
396.0000318475067616
 20
33.9999935217200999
 30
0.0
 10
394.0000317525118589
 20
33.9999935217201283
 30
0.0
  0
LWPOLYLINE
  5
10B
  8
0
 62
0
370
-1
  6
BYLAYER
100
AcDbEntity
100
AcDbPolyline
 90
2
 70
0
 43
3.0
 10
394.0000317525118589
 20
33.9999935217201283
 30
0.0
 10
392.0000316575169563
 20
33.9999935217201141
 30
0.0
  0
LWPOLYLINE
  5
10C
  8
0
 62
0
370
-1
  6
BYLAYER
100
AcDbEntity
100
AcDbPolyline
 90
2
 70
0
 43
3.0
 10
392.0000316575169563
 20
33.9999935217201141
 30
0.0
 10
390.0000315625222811
 20
33.9999935217201141
 30
0.0
  0
LWPOLYLINE
  5
10D
  8
0
 62
0
370
-1
  6
BYLAYER
100
AcDbEntity
100
AcDbPolyline
 90
2
 70
0
 43
3.0
 10
390.0000315625222811
 20
33.9999935217201141
 30
0.0
 10
388.0000314675270374
 20
33.9999935217201141
 30
0.0
  0
LWPOLYLINE
  5
10E
  8
0
 62
0
370
-1
  6
BYLAYER
100
AcDbEntity
100
AcDbPolyline
 90
2
 70
0
 43
3.0
 10
388.0000314675270374
 20
33.9999935217201141
 30
0.0
 10
386.0000313725322485
 20
33.9999935217201141
 30
0.0
  0
LWPOLYLINE
  5
10F
  8
0
 62
0
370
-1
  6
BYLAYER
100
AcDbEntity
100
AcDbPolyline
 90
2
 70
0
 43
3.0
 10
386.0000313725322485
 20
33.9999935217201141
 30
0.0
 10
384.0000312775373459
 20
33.9999935217201141
 30
0.0
  0
LWPOLYLINE
  5
110
  8
0
 62
0
370
-1
  6
BYLAYER
100
AcDbEntity
100
AcDbPolyline
 90
2
 70
0
 43
3.0
 10
384.0000312775373459
 20
33.9999935217201141
 30
0.0
 10
382.0000311825426706
 20
33.9999935217201141
 30
0.0
  0
LWPOLYLINE
  5
111
  8
0
 62
0
370
-1
  6
BYLAYER
100
AcDbEntity
100
AcDbPolyline
 90
2
 70
0
 43
3.0
 10
382.0000311825426706
 20
33.9999935217201141
 30
0.0
 10
380.0000310875475407
 20
33.9999935217201141
 30
0.0
  0
LWPOLYLINE
  5
112
  8
0
 62
0
370
-1
  6
BYLAYER
100
AcDbEntity
100
AcDbPolyline
 90
2
 70
0
 43
3.0
 10
380.0000310875475407
 20
33.9999935217201141
 30
0.0
 10
378.0000309925526381
 20
33.9999935217201141
 30
0.0
  0
LWPOLYLINE
  5
113
  8
0
 62
0
370
-1
  6
BYLAYER
100
AcDbEntity
100
AcDbPolyline
 90
2
 70
0
 43
3.0
 10
378.0000309925526381
 20
33.9999935217201141
 30
0.0
 10
376.0000308975578491
 20
33.9999935217201141
 30
0.0
  0
LWPOLYLINE
  5
114
  8
0
 62
0
370
-1
  6
BYLAYER
100
AcDbEntity
100
AcDbPolyline
 90
2
 70
0
 43
3.0
 10
376.0000308975578491
 20
33.9999935217201141
 30
0.0
 10
374.0000308025628328
 20
33.9999935217201141
 30
0.0
  0
LWPOLYLINE
  5
115
  8
0
 62
0
370
-1
  6
BYLAYER
100
AcDbEntity
100
AcDbPolyline
 90
2
 70
0
 43
3.0
 10
374.0000308025628328
 20
33.9999935217201141
 30
0.0
 10
374.0000308025628328
 20
28.6666600702812957
 30
0.0
  0
LWPOLYLINE
  5
116
  8
0
 62
0
370
-1
  6
BYLAYER
100
AcDbEntity
100
AcDbPolyline
 90
2
 70
0
 43
3.0
 10
374.0000308025628328
 20
28.6666600702812957
 30
0.0
 10
374.0000308025628328
 20
23.3333268837520507
 30
0.0
  0
LWPOLYLINE
  5
117
  8
0
 62
0
370
-1
  6
BYLAYER
100
AcDbEntity
100
AcDbPolyline
 90
2
 70
0
 43
3.0
 10
374.0000308025628328
 20
23.3333268837520507
 30
0.0
 10
374.0000308025628328
 20
17.9999939091503478
 30
0.0
  0
LWPOLYLINE
  5
118
  8
0
 62
0
370
-1
  6
BYLAYER
100
AcDbEntity
100
AcDbPolyline
 90
2
 70
0
 43
3.0
 10
374.0000308025628328
 20
17.9999939091503478
 30
0.0
 10
374.0000308025629465
 20
12.6666610934943975
 30
0.0
  0
LWPOLYLINE
  5
119
  8
0
 62
0
370
-1
  6
BYLAYER
100
AcDbEntity
100
AcDbPolyline
 90
2
 70
0
 43
3.0
 10
374.0000308025629465
 20
12.6666610934943975
 30
0.0
 10
374.0000308025628328
 20
7.3333283838022112
 30
0.0
  0
LWPOLYLINE
  5
11A
  8
0
 62
0
370
-1
  6
BYLAYER
100
AcDbEntity
100
AcDbPolyline
 90
2
 70
0
 43
3.0
 10
374.0000308025628328
 20
7.3333283838022112
 30
0.0
 10
374.0000308025628328
 20
1.9999957270919708
 30
0.0
  0
LWPOLYLINE
  5
11B
  8
0
 62
0
370
-1
  6
BYLAYER
100
AcDbEntity
100
AcDbPolyline
 90
2
 70
0
 43
3.0
 10
374.0000308025628328
 20
1.9999957270919708
 30
0.0
 10
374.0000308025628328
 20
-3.3333369296182909
 30
0.0
  0
LWPOLYLINE
  5
11C
  8
0
 62
0
370
-1
  6
BYLAYER
100
AcDbEntity
100
AcDbPolyline
 90
2
 70
0
 43
3.0
 10
374.0000308025628328
 20
-3.3333369296182909
 30
0.0
 10
374.0000308025628328
 20
-8.6666696393104345
 30
0.0
  0
LWPOLYLINE
  5
11D
  8
0
 62
0
370
-1
  6
BYLAYER
100
AcDbEntity
100
AcDbPolyline
 90
2
 70
0
 43
3.0
 10
374.0000308025628328
 20
-8.6666696393104345
 30
0.0
 10
374.0000308025628328
 20
-14.0000024549664133
 30
0.0
  0
LWPOLYLINE
  5
11E
  8
0
 62
0
370
-1
  6
BYLAYER
100
AcDbEntity
100
AcDbPolyline
 90
2
 70
0
 43
3.0
 10
374.0000308025628328
 20
-14.0000024549664133
 30
0.0
 10
374.0000308025628328
 20
-19.3333354295681019
 30
0.0
  0
LWPOLYLINE
  5
11F
  8
0
 62
0
370
-1
  6
BYLAYER
100
AcDbEntity
100
AcDbPolyline
 90
2
 70
0
 43
3.0
 10
374.0000308025628328
 20
-19.3333354295681019
 30
0.0
 10
374.0000308025628328
 20
-24.6666686160973683
 30
0.0
  0
LWPOLYLINE
  5
120
  8
0
 62
0
370
-1
  6
BYLAYER
100
AcDbEntity
100
AcDbPolyline
 90
2
 70
0
 43
3.0
 10
374.0000308025628328
 20
-24.6666686160973683
 30
0.0
 10
374.0000308025628328
 20
-30.0000020675361725
 30
0.0
  0
LWPOLYLINE
  5
121
  8
0
 62
0
370
-1
  6
BYLAYER
100
AcDbEntity
100
AcDbPolyline
 90
2
 70
0
 43
3.0
 10
374.0000308025628328
 20
-30.0000020675361725
 30
0.0
 10
374.0000308025628328
 20
-30.0000020675361725
 30
0.0
  0
LWPOLYLINE
  5
122
  8
0
 62
0
370
-1
  6
BYLAYER
100
AcDbEntity
100
AcDbPolyline
 90
2
 70
0
 43
3.0
 10
374.0000308025628328
 20
-30.0000020675361725
 30
0.0
 10
374.0000308025628328
 20
-30.0000020675361725
 30
0.0
  0
LWPOLYLINE
  5
123
  8
0
 62
0
370
-1
  6
BYLAYER
100
AcDbEntity
100
AcDbPolyline
 90
2
 70
0
 43
6.0
 10
30.0000144634395838
 20
2.5199961490183185
 30
0.0
 10
30.0000144634395838
 20
2.5199961490183185
 30
0.0
  0
LWPOLYLINE
  5
124
  8
0
 62
0
370
-1
  6
BYLAYER
100
AcDbEntity
100
AcDbPolyline
 90
2
 70
0
 43
6.0
 10
30.0000144634395838
 20
2.5199961490183185
 30
0.0
 10
58.2246850132723921
 20
2.4766630233581708
 30
0.0
  0
LWPOLYLINE
  5
125
  8
0
 62
0
370
-1
  6
BYLAYER
100
AcDbEntity
100
AcDbPolyline
 90
2
 70
0
 43
6.0
 10
58.2246850132723921
 20
2.4766630233581708
 30
0.0
 10
86.4493534438290681
 20
2.4333297652432861
 30
0.0
  0
LWPOLYLINE
  5
126
  8
0
 62
0
370
-1
  6
BYLAYER
100
AcDbEntity
100
AcDbPolyline
 90
2
 70
0
 43
6.0
 10
86.4493534438290681
 20
2.4333297652432861
 30
0.0
 10
114.6740201789644971
 20
2.3899964011645736
 30
0.0
  0
LWPOLYLINE
  5
127
  8
0
 62
0
370
-1
  6
BYLAYER
100
AcDbEntity
100
AcDbPolyline
 90
2
 70
0
 43
6.0
 10
114.6740201789644971
 20
2.3899964011645736
 30
0.0
 10
142.898685642534133
 20
2.3466629576130345
 30
0.0
  0
LWPOLYLINE
  5
128
  8
0
 62
0
370
-1
  6
BYLAYER
100
AcDbEntity
100
AcDbPolyline
 90
2
 70
0
 43
6.0
 10
142.898685642534133
 20
2.3466629576130345
 30
0.0
 10
171.1233502583929749
 20
2.3033294610795423
 30
0.0
  0
LWPOLYLINE
  5
129
  8
0
 62
0
370
-1
  6
BYLAYER
100
AcDbEntity
100
AcDbPolyline
 90
2
 70
0
 43
6.0
 10
171.1233502583929749
 20
2.3033294610795423
 30
0.0
 10
199.3480144503969314
 20
2.2599959380551411
 30
0.0
  0
LWPOLYLINE
  5
12A
  8
0
 62
0
370
-1
  6
BYLAYER
100
AcDbEntity
100
AcDbPolyline
 90
2
 70
0
 43
6.0
 10
199.3480144503969314
 20
2.2599959380551411
 30
0.0
 10
227.5726786424008878
 20
2.2166624150307399
 30
0.0
  0
LWPOLYLINE
  5
12B
  8
0
 62
0
370
-1
  6
BYLAYER
100
AcDbEntity
100
AcDbPolyline
 90
2
 70
0
 43
6.0
 10
227.5726786424008878
 20
2.2166624150307399
 30
0.0
 10
255.7973432582598434
 20
2.1733289184972762
 30
0.0
  0
LWPOLYLINE
  5
12C
  8
0
 62
0
370
-1
  6
BYLAYER
100
AcDbEntity
100
AcDbPolyline
 90
2
 70
0
 43
6.0
 10
255.7973432582598434
 20
2.1733289184972762
 30
0.0
 10
284.0220087218294793
 20
2.1299954749457157
 30
0.0
  0
LWPOLYLINE
  5
12D
  8
0
 62
0
370
-1
  6
BYLAYER
100
AcDbEntity
100
AcDbPolyline
 90
2
 70
0
 43
6.0
 10
284.0220087218294793
 20
2.1299954749457157
 30
0.0
 10
312.2466754569647946
 20
2.0866621108670032
 30
0.0
  0
LWPOLYLINE
  5
12E
  8
0
 62
0
370
-1
  6
BYLAYER
100
AcDbEntity
100
AcDbPolyline
 90
2
 70
0
 43
6.0
 10
312.2466754569647946
 20
2.0866621108670032
 30
0.0
 10
340.4713438875215843
 20
2.0433288527521185
 30
0.0
  0
LWPOLYLINE
  5
12F
  8
0
 62
0
370
-1
  6
BYLAYER
100
AcDbEntity
100
AcDbPolyline
 90
2
 70
0
 43
6.0
 10
340.4713438875215843
 20
2.0433288527521185
 30
0.0
 10
368.6960144373542789
 20
1.9999957270919708
 30
0.0
  0
LWPOLYLINE
  5
130
  8
0
 62
0
370
-1
  6
BYLAYER
100
AcDbEntity
100
AcDbPolyline
 90
2
 70
0
 43
3.0
 10
-21.9999880064278841
 20
-29.1400015164540207
 30
0.0
 10
-21.9999880064278841
 20
-29.1400015164540207
 30
0.0
  0
LWPOLYLINE
  5
131
  8
0
 62
0
370
-1
  6
BYLAYER
100
AcDbEntity
100
AcDbPolyline
 90
2
 70
0
 43
3.0
 10
-21.9999880064278841
 20
-29.1400015164540207
 30
0.0
 10
-19.9999879114329815
 20
-29.1400015164540207
 30
0.0
  0
LWPOLYLINE
  5
132
  8
0
 62
0
370
-1
  6
BYLAYER
100
AcDbEntity
100
AcDbPolyline
 90
2
 70
0
 43
3.0
 10
-19.9999879114329815
 20
-29.1400015164540207
 30
0.0
 10
-17.9999878164380789
 20
-29.1400015164540207
 30
0.0
  0
LWPOLYLINE
  5
133
  8
0
 62
0
370
-1
  6
BYLAYER
100
AcDbEntity
100
AcDbPolyline
 90
2
 70
0
 43
3.0
 10
-17.9999878164380789
 20
-29.1400015164540207
 30
0.0
 10
-15.9999877214431763
 20
-29.1400015164540207
 30
0.0
  0
LWPOLYLINE
  5
134
  8
0
 62
0
370
-1
  6
BYLAYER
100
AcDbEntity
100
AcDbPolyline
 90
2
 70
0
 43
3.0
 10
-15.9999877214431763
 20
-29.1400015164540207
 30
0.0
 10
-13.9999876264482168
 20
-29.1400015164540171
 30
0.0
  0
LWPOLYLINE
  5
135
  8
0
 62
0
370
-1
  6
BYLAYER
100
AcDbEntity
100
AcDbPolyline
 90
2
 70
0
 43
3.0
 10
-13.9999876264482168
 20
-29.1400015164540171
 30
0.0
 10
-11.9999875314534279
 20
-29.1400015164540278
 30
0.0
  0
LWPOLYLINE
  5
136
  8
0
 62
0
370
-1
  6
BYLAYER
100
AcDbEntity
100
AcDbPolyline
 90
2
 70
0
 43
3.0
 10
-11.9999875314534279
 20
-29.1400015164540278
 30
0.0
 10
-9.9999874364584684
 20
-29.1400015164540207
 30
0.0
  0
LWPOLYLINE
  5
137
  8
0
 62
0
370
-1
  6
BYLAYER
100
AcDbEntity
100
AcDbPolyline
 90
2
 70
0
 43
3.0
 10
-9.9999874364584684
 20
-29.1400015164540207
 30
0.0
 10
-7.9999873414635658
 20
-29.1400015164540207
 30
0.0
  0
LWPOLYLINE
  5
138
  8
0
 62
0
370
-1
  6
BYLAYER
100
AcDbEntity
100
AcDbPolyline
 90
2
 70
0
 43
3.0
 10
-7.9999873414635658
 20
-29.1400015164540207
 30
0.0
 10
-5.9999872464686632
 20
-29.1400015164540207
 30
0.0
  0
LWPOLYLINE
  5
139
  8
0
 62
0
370
-1
  6
BYLAYER
100
AcDbEntity
100
AcDbPolyline
 90
2
 70
0
 43
3.0
 10
-5.9999872464686632
 20
-29.1400015164540207
 30
0.0
 10
-3.9999871514737606
 20
-29.1400015164540207
 30
0.0
  0
LWPOLYLINE
  5
13A
  8
0
 62
0
370
-1
  6
BYLAYER
100
AcDbEntity
100
AcDbPolyline
 90
2
 70
0
 43
3.0
 10
-3.9999871514737606
 20
-29.1400015164540207
 30
0.0
 10
-1.9999870564789717
 20
-29.1400015164540207
 30
0.0
  0
LWPOLYLINE
  5
13B
  8
0
 62
0
370
-1
  6
BYLAYER
100
AcDbEntity
100
AcDbPolyline
 90
2
 70
0
 43
3.0
 10
-1.9999870564789717
 20
-29.1400015164540207
 30
0.0
 10
0.0000130385160446
 20
-29.1400015164540207
 30
0.0
  0
LWPOLYLINE
  5
13C
  8
0
 62
0
370
-1
  6
BYLAYER
100
AcDbEntity
100
AcDbPolyline
 90
2
 70
0
 43
3.0
 10
0.0000130385160446
 20
-29.1400015164540207
 30
0.0
 10
2.0000131335109472
 20
-29.1400015164540207
 30
0.0
  0
LWPOLYLINE
  5
13D
  8
0
 62
0
370
-1
  6
BYLAYER
100
AcDbEntity
100
AcDbPolyline
 90
2
 70
0
 43
3.0
 10
2.0000131335109472
 20
-29.1400015164540207
 30
0.0
 10
2.0000131335109472
 20
-23.8066680650152236
 30
0.0
  0
LWPOLYLINE
  5
13E
  8
0
 62
0
370
-1
  6
BYLAYER
100
AcDbEntity
100
AcDbPolyline
 90
2
 70
0
 43
3.0
 10
2.0000131335109472
 20
-23.8066680650152236
 30
0.0
 10
2.0000131335109472
 20
-18.473334878485943
 30
0.0
  0
LWPOLYLINE
  5
13F
  8
0
 62
0
370
-1
  6
BYLAYER
100
AcDbEntity
100
AcDbPolyline
 90
2
 70
0
 43
3.0
 10
2.0000131335109472
 20
-18.473334878485943
 30
0.0
 10
2.0000131335109472
 20
-13.1400019038842615
 30
0.0
  0
LWPOLYLINE
  5
140
  8
0
 62
0
370
-1
  6
BYLAYER
100
AcDbEntity
100
AcDbPolyline
 90
2
 70
0
 43
3.0
 10
2.0000131335109472
 20
-13.1400019038842615
 30
0.0
 10
2.0000131335110041
 20
-7.8066690882282828
 30
0.0
  0
LWPOLYLINE
  5
141
  8
0
 62
0
370
-1
  6
BYLAYER
100
AcDbEntity
100
AcDbPolyline
 90
2
 70
0
 43
3.0
 10
2.0000131335110041
 20
-7.8066690882282828
 30
0.0
 10
2.0000131335109472
 20
-2.4733363785361462
 30
0.0
  0
LWPOLYLINE
  5
142
  8
0
 62
0
370
-1
  6
BYLAYER
100
AcDbEntity
100
AcDbPolyline
 90
2
 70
0
 43
3.0
 10
2.0000131335109472
 20
-2.4733363785361462
 30
0.0
 10
2.0000131335109472
 20
2.8599962781741226
 30
0.0
  0
LWPOLYLINE
  5
143
  8
0
 62
0
370
-1
  6
BYLAYER
100
AcDbEntity
100
AcDbPolyline
 90
2
 70
0
 43
3.0
 10
2.0000131335109472
 20
2.8599962781741226
 30
0.0
 10
2.0000131335109472
 20
8.1933289348843772
 30
0.0
  0
LWPOLYLINE
  5
144
  8
0
 62
0
370
-1
  6
BYLAYER
100
AcDbEntity
100
AcDbPolyline
 90
2
 70
0
 43
3.0
 10
2.0000131335109472
 20
8.1933289348843772
 30
0.0
 10
2.0000131335109472
 20
13.5266616445765351
 30
0.0
  0
LWPOLYLINE
  5
145
  8
0
 62
0
370
-1
  6
BYLAYER
100
AcDbEntity
100
AcDbPolyline
 90
2
 70
0
 43
3.0
 10
2.0000131335109472
 20
13.5266616445765351
 30
0.0
 10
2.0000131335109472
 20
18.8599944602324996
 30
0.0
  0
LWPOLYLINE
  5
146
  8
0
 62
0
370
-1
  6
BYLAYER
100
AcDbEntity
100
AcDbPolyline
 90
2
 70
0
 43
3.0
 10
2.0000131335109472
 20
18.8599944602324996
 30
0.0
 10
2.0000131335109472
 20
24.1933274348341882
 30
0.0
  0
LWPOLYLINE
  5
147
  8
0
 62
0
370
-1
  6
BYLAYER
100
AcDbEntity
100
AcDbPolyline
 90
2
 70
0
 43
3.0
 10
2.0000131335109472
 20
24.1933274348341882
 30
0.0
 10
2.0000131335109472
 20
29.5266606213634617
 30
0.0
  0
LWPOLYLINE
  5
148
  8
0
 62
0
370
-1
  6
BYLAYER
100
AcDbEntity
100
AcDbPolyline
 90
2
 70
0
 43
3.0
 10
2.0000131335109472
 20
29.5266606213634617
 30
0.0
 10
2.0000131335109472
 20
34.8599940728022659
 30
0.0
  0
LWPOLYLINE
  5
149
  8
0
 62
0
370
-1
  6
BYLAYER
100
AcDbEntity
100
AcDbPolyline
 90
2
 70
0
 43
3.0
 10
2.0000131335109472
 20
34.8599940728022659
 30
0.0
 10
0.0000130385159878
 20
34.8599940728022517
 30
0.0
  0
LWPOLYLINE
  5
14A
  8
0
 62
0
370
-1
  6
BYLAYER
100
AcDbEntity
100
AcDbPolyline
 90
2
 70
0
 43
3.0
 10
0.0000130385159878
 20
34.8599940728022517
 30
0.0
 10
-1.999987056478858
 20
34.8599940728022801
 30
0.0
  0
LWPOLYLINE
  5
14B
  8
0
 62
0
370
-1
  6
BYLAYER
100
AcDbEntity
100
AcDbPolyline
 90
2
 70
0
 43
3.0
 10
-1.999987056478858
 20
34.8599940728022801
 30
0.0
 10
-3.9999871514737606
 20
34.8599940728022659
 30
0.0
  0
LWPOLYLINE
  5
14C
  8
0
 62
0
370
-1
  6
BYLAYER
100
AcDbEntity
100
AcDbPolyline
 90
2
 70
0
 43
3.0
 10
-3.9999871514737606
 20
34.8599940728022659
 30
0.0
 10
-5.9999872464685495
 20
34.8599940728022659
 30
0.0
  0
LWPOLYLINE
  5
14D
  8
0
 62
0
370
-1
  6
BYLAYER
100
AcDbEntity
100
AcDbPolyline
 90
2
 70
0
 43
3.0
 10
-5.9999872464685495
 20
34.8599940728022659
 30
0.0
 10
-7.9999873414636795
 20
34.8599940728022659
 30
0.0
  0
LWPOLYLINE
  5
14E
  8
0
 62
0
370
-1
  6
BYLAYER
100
AcDbEntity
100
AcDbPolyline
 90
2
 70
0
 43
3.0
 10
-7.9999873414636795
 20
34.8599940728022659
 30
0.0
 10
-9.9999874364584684
 20
34.8599940728022659
 30
0.0
  0
LWPOLYLINE
  5
14F
  8
0
 62
0
370
-1
  6
BYLAYER
100
AcDbEntity
100
AcDbPolyline
 90
2
 70
0
 43
3.0
 10
-9.9999874364584684
 20
34.8599940728022659
 30
0.0
 10
-11.999987531453371
 20
34.8599940728022659
 30
0.0
  0
LWPOLYLINE
  5
150
  8
0
 62
0
370
-1
  6
BYLAYER
100
AcDbEntity
100
AcDbPolyline
 90
2
 70
0
 43
3.0
 10
-11.999987531453371
 20
34.8599940728022659
 30
0.0
 10
-13.9999876264482737
 20
34.8599940728022659
 30
0.0
  0
LWPOLYLINE
  5
151
  8
0
 62
0
370
-1
  6
BYLAYER
100
AcDbEntity
100
AcDbPolyline
 90
2
 70
0
 43
3.0
 10
-13.9999876264482737
 20
34.8599940728022659
 30
0.0
 10
-15.9999877214431763
 20
34.8599940728022659
 30
0.0
  0
LWPOLYLINE
  5
152
  8
0
 62
0
370
-1
  6
BYLAYER
100
AcDbEntity
100
AcDbPolyline
 90
2
 70
0
 43
3.0
 10
-15.9999877214431763
 20
34.8599940728022659
 30
0.0
 10
-17.9999878164380789
 20
34.8599940728022659
 30
0.0
  0
LWPOLYLINE
  5
153
  8
0
 62
0
370
-1
  6
BYLAYER
100
AcDbEntity
100
AcDbPolyline
 90
2
 70
0
 43
3.0
 10
-17.9999878164380789
 20
34.8599940728022659
 30
0.0
 10
-19.9999879114329815
 20
34.8599940728022659
 30
0.0
  0
LWPOLYLINE
  5
154
  8
0
 62
0
370
-1
  6
BYLAYER
100
AcDbEntity
100
AcDbPolyline
 90
2
 70
0
 43
3.0
 10
-19.9999879114329815
 20
34.8599940728022659
 30
0.0
 10
-21.9999880064278841
 20
34.8599940728022659
 30
0.0
  0
LWPOLYLINE
  5
155
  8
0
 62
0
370
-1
  6
BYLAYER
100
AcDbEntity
100
AcDbPolyline
 90
2
 70
0
 43
3.0
 10
-21.9999880064278841
 20
34.8599940728022659
 30
0.0
 10
-21.9999880064278841
 20
29.5266606213634475
 30
0.0
  0
LWPOLYLINE
  5
156
  8
0
 62
0
370
-1
  6
BYLAYER
100
AcDbEntity
100
AcDbPolyline
 90
2
 70
0
 43
3.0
 10
-21.9999880064278841
 20
29.5266606213634475
 30
0.0
 10
-21.9999880064278841
 20
24.1933274348342024
 30
0.0
  0
LWPOLYLINE
  5
157
  8
0
 62
0
370
-1
  6
BYLAYER
100
AcDbEntity
100
AcDbPolyline
 90
2
 70
0
 43
3.0
 10
-21.9999880064278841
 20
24.1933274348342024
 30
0.0
 10
-21.9999880064278841
 20
18.8599944602324996
 30
0.0
  0
LWPOLYLINE
  5
158
  8
0
 62
0
370
-1
  6
BYLAYER
100
AcDbEntity
100
AcDbPolyline
 90
2
 70
0
 43
3.0
 10
-21.9999880064278841
 20
18.8599944602324996
 30
0.0
 10
-21.9999880064278841
 20
13.5266616445765493
 30
0.0
  0
LWPOLYLINE
  5
159
  8
0
 62
0
370
-1
  6
BYLAYER
100
AcDbEntity
100
AcDbPolyline
 90
2
 70
0
 43
3.0
 10
-21.9999880064278841
 20
13.5266616445765493
 30
0.0
 10
-21.9999880064278841
 20
8.193328934884363
 30
0.0
  0
LWPOLYLINE
  5
15A
  8
0
 62
0
370
-1
  6
BYLAYER
100
AcDbEntity
100
AcDbPolyline
 90
2
 70
0
 43
3.0
 10
-21.9999880064278841
 20
8.193328934884363
 30
0.0
 10
-21.9999880064278841
 20
2.8599962781741226
 30
0.0
  0
LWPOLYLINE
  5
15B
  8
0
 62
0
370
-1
  6
BYLAYER
100
AcDbEntity
100
AcDbPolyline
 90
2
 70
0
 43
3.0
 10
-21.9999880064278841
 20
2.8599962781741226
 30
0.0
 10
-21.9999880064278841
 20
-2.4733363785361391
 30
0.0
  0
LWPOLYLINE
  5
15C
  8
0
 62
0
370
-1
  6
BYLAYER
100
AcDbEntity
100
AcDbPolyline
 90
2
 70
0
 43
3.0
 10
-21.9999880064278841
 20
-2.4733363785361391
 30
0.0
 10
-21.9999880064278841
 20
-7.8066690882282828
 30
0.0
  0
LWPOLYLINE
  5
15D
  8
0
 62
0
370
-1
  6
BYLAYER
100
AcDbEntity
100
AcDbPolyline
 90
2
 70
0
 43
3.0
 10
-21.9999880064278841
 20
-7.8066690882282828
 30
0.0
 10
-21.9999880064278841
 20
-13.1400019038842615
 30
0.0
  0
LWPOLYLINE
  5
15E
  8
0
 62
0
370
-1
  6
BYLAYER
100
AcDbEntity
100
AcDbPolyline
 90
2
 70
0
 43
3.0
 10
-21.9999880064278841
 20
-13.1400019038842615
 30
0.0
 10
-21.9999880064278841
 20
-18.4733348784859501
 30
0.0
  0
LWPOLYLINE
  5
15F
  8
0
 62
0
370
-1
  6
BYLAYER
100
AcDbEntity
100
AcDbPolyline
 90
2
 70
0
 43
3.0
 10
-21.9999880064278841
 20
-18.4733348784859501
 30
0.0
 10
-21.9999880064278841
 20
-23.8066680650152165
 30
0.0
  0
LWPOLYLINE
  5
160
  8
0
 62
0
370
-1
  6
BYLAYER
100
AcDbEntity
100
AcDbPolyline
 90
2
 70
0
 43
3.0
 10
-21.9999880064278841
 20
-23.8066680650152165
 30
0.0
 10
-21.9999880064278841
 20
-29.1400015164540207
 30
0.0
  0
LWPOLYLINE
  5
161
  8
0
 62
0
370
-1
  6
BYLAYER
100
AcDbEntity
100
AcDbPolyline
 90
2
 70
0
 43
3.0
 10
-21.9999880064278841
 20
-29.1400015164540207
 30
0.0
 10
-21.9999880064278841
 20
-29.1400015164540207
 30
0.0
  0
LWPOLYLINE
  5
162
  8
0
 62
0
370
-1
  6
BYLAYER
100
AcDbEntity
100
AcDbPolyline
 90
2
 70
0
 43
3.0
 10
-21.9999880064278841
 20
-29.1400015164540207
 30
0.0
 10
-21.9999880064278841
 20
-29.1400015164540207
 30
0.0
  0
LWPOLYLINE
  5
163
  8
0
 62
0
370
-1
  6
BYLAYER
100
AcDbEntity
100
AcDbPolyline
 90
2
 70
0
 43
3.0
 10
2.0000131335109472
 20
-29.1400015164540207
 30
0.0
 10
2.0000131335109472
 20
-29.1400015164540207
 30
0.0
  0
LWPOLYLINE
  5
164
  8
0
 62
0
370
-1
  6
BYLAYER
100
AcDbEntity
100
AcDbPolyline
 90
2
 70
0
 43
3.0
 10
2.0000131335109472
 20
-29.1400015164540207
 30
0.0
 10
4.000013228505793
 20
-29.1400015164540207
 30
0.0
  0
LWPOLYLINE
  5
165
  8
0
 62
0
370
-1
  6
BYLAYER
100
AcDbEntity
100
AcDbPolyline
 90
2
 70
0
 43
3.0
 10
4.000013228505793
 20
-29.1400015164540207
 30
0.0
 10
6.0000133235007524
 20
-29.1400015164540207
 30
0.0
  0
LWPOLYLINE
  5
166
  8
0
 62
0
370
-1
  6
BYLAYER
100
AcDbEntity
100
AcDbPolyline
 90
2
 70
0
 43
3.0
 10
6.0000133235007524
 20
-29.1400015164540207
 30
0.0
 10
8.0000134184956551
 20
-29.1400015164540207
 30
0.0
  0
LWPOLYLINE
  5
167
  8
0
 62
0
370
-1
  6
BYLAYER
100
AcDbEntity
100
AcDbPolyline
 90
2
 70
0
 43
3.0
 10
8.0000134184956551
 20
-29.1400015164540207
 30
0.0
 10
10.0000135134906714
 20
-29.1400015164540171
 30
0.0
  0
LWPOLYLINE
  5
168
  8
0
 62
0
370
-1
  6
BYLAYER
100
AcDbEntity
100
AcDbPolyline
 90
2
 70
0
 43
3.0
 10
10.0000135134906714
 20
-29.1400015164540171
 30
0.0
 10
12.0000136084854034
 20
-29.1400015164540278
 30
0.0
  0
LWPOLYLINE
  5
169
  8
0
 62
0
370
-1
  6
BYLAYER
100
AcDbEntity
100
AcDbPolyline
 90
2
 70
0
 43
3.0
 10
12.0000136084854034
 20
-29.1400015164540278
 30
0.0
 10
14.0000137034803629
 20
-29.1400015164540207
 30
0.0
  0
LWPOLYLINE
  5
16A
  8
0
 62
0
370
-1
  6
BYLAYER
100
AcDbEntity
100
AcDbPolyline
 90
2
 70
0
 43
3.0
 10
14.0000137034803629
 20
-29.1400015164540207
 30
0.0
 10
16.0000137984752087
 20
-29.1400015164540207
 30
0.0
  0
LWPOLYLINE
  5
16B
  8
0
 62
0
370
-1
  6
BYLAYER
100
AcDbEntity
100
AcDbPolyline
 90
2
 70
0
 43
3.0
 10
16.0000137984752087
 20
-29.1400015164540207
 30
0.0
 10
18.0000138934701681
 20
-29.1400015164540207
 30
0.0
  0
LWPOLYLINE
  5
16C
  8
0
 62
0
370
-1
  6
BYLAYER
100
AcDbEntity
100
AcDbPolyline
 90
2
 70
0
 43
3.0
 10
18.0000138934701681
 20
-29.1400015164540207
 30
0.0
 10
20.0000139884650707
 20
-29.1400015164540207
 30
0.0
  0
LWPOLYLINE
  5
16D
  8
0
 62
0
370
-1
  6
BYLAYER
100
AcDbEntity
100
AcDbPolyline
 90
2
 70
0
 43
3.0
 10
20.0000139884650707
 20
-29.1400015164540207
 30
0.0
 10
22.0000140834598596
 20
-29.1400015164540207
 30
0.0
  0
LWPOLYLINE
  5
16E
  8
0
 62
0
370
-1
  6
BYLAYER
100
AcDbEntity
100
AcDbPolyline
 90
2
 70
0
 43
3.0
 10
22.0000140834598596
 20
-29.1400015164540207
 30
0.0
 10
24.0000141784548759
 20
-29.1400015164540207
 30
0.0
  0
LWPOLYLINE
  5
16F
  8
0
 62
0
370
-1
  6
BYLAYER
100
AcDbEntity
100
AcDbPolyline
 90
2
 70
0
 43
3.0
 10
24.0000141784548759
 20
-29.1400015164540207
 30
0.0
 10
26.0000142734497786
 20
-29.1400015164540207
 30
0.0
  0
LWPOLYLINE
  5
170
  8
0
 62
0
370
-1
  6
BYLAYER
100
AcDbEntity
100
AcDbPolyline
 90
2
 70
0
 43
3.0
 10
26.0000142734497786
 20
-29.1400015164540207
 30
0.0
 10
26.0000142734497786
 20
-23.8066680650152236
 30
0.0
  0
LWPOLYLINE
  5
171
  8
0
 62
0
370
-1
  6
BYLAYER
100
AcDbEntity
100
AcDbPolyline
 90
2
 70
0
 43
3.0
 10
26.0000142734497786
 20
-23.8066680650152236
 30
0.0
 10
26.0000142734497786
 20
-18.473334878485943
 30
0.0
  0
LWPOLYLINE
  5
172
  8
0
 62
0
370
-1
  6
BYLAYER
100
AcDbEntity
100
AcDbPolyline
 90
2
 70
0
 43
3.0
 10
26.0000142734497786
 20
-18.473334878485943
 30
0.0
 10
26.0000142734497786
 20
-13.1400019038842615
 30
0.0
  0
LWPOLYLINE
  5
173
  8
0
 62
0
370
-1
  6
BYLAYER
100
AcDbEntity
100
AcDbPolyline
 90
2
 70
0
 43
3.0
 10
26.0000142734497786
 20
-13.1400019038842615
 30
0.0
 10
26.0000142734498354
 20
-7.8066690882282828
 30
0.0
  0
LWPOLYLINE
  5
174
  8
0
 62
0
370
-1
  6
BYLAYER
100
AcDbEntity
100
AcDbPolyline
 90
2
 70
0
 43
3.0
 10
26.0000142734498354
 20
-7.8066690882282828
 30
0.0
 10
26.0000142734497786
 20
-2.4733363785361462
 30
0.0
  0
LWPOLYLINE
  5
175
  8
0
 62
0
370
-1
  6
BYLAYER
100
AcDbEntity
100
AcDbPolyline
 90
2
 70
0
 43
3.0
 10
26.0000142734497786
 20
-2.4733363785361462
 30
0.0
 10
26.0000142734497786
 20
2.8599962781741226
 30
0.0
  0
LWPOLYLINE
  5
176
  8
0
 62
0
370
-1
  6
BYLAYER
100
AcDbEntity
100
AcDbPolyline
 90
2
 70
0
 43
3.0
 10
26.0000142734497786
 20
2.8599962781741226
 30
0.0
 10
26.0000142734497786
 20
8.1933289348843772
 30
0.0
  0
LWPOLYLINE
  5
177
  8
0
 62
0
370
-1
  6
BYLAYER
100
AcDbEntity
100
AcDbPolyline
 90
2
 70
0
 43
3.0
 10
26.0000142734497786
 20
8.1933289348843772
 30
0.0
 10
26.0000142734497786
 20
13.5266616445765351
 30
0.0
  0
LWPOLYLINE
  5
178
  8
0
 62
0
370
-1
  6
BYLAYER
100
AcDbEntity
100
AcDbPolyline
 90
2
 70
0
 43
3.0
 10
26.0000142734497786
 20
13.5266616445765351
 30
0.0
 10
26.0000142734497786
 20
18.8599944602324996
 30
0.0
  0
LWPOLYLINE
  5
179
  8
0
 62
0
370
-1
  6
BYLAYER
100
AcDbEntity
100
AcDbPolyline
 90
2
 70
0
 43
3.0
 10
26.0000142734497786
 20
18.8599944602324996
 30
0.0
 10
26.0000142734497786
 20
24.1933274348341882
 30
0.0
  0
LWPOLYLINE
  5
17A
  8
0
 62
0
370
-1
  6
BYLAYER
100
AcDbEntity
100
AcDbPolyline
 90
2
 70
0
 43
3.0
 10
26.0000142734497786
 20
24.1933274348341882
 30
0.0
 10
26.0000142734497786
 20
29.5266606213634617
 30
0.0
  0
LWPOLYLINE
  5
17B
  8
0
 62
0
370
-1
  6
BYLAYER
100
AcDbEntity
100
AcDbPolyline
 90
2
 70
0
 43
3.0
 10
26.0000142734497786
 20
29.5266606213634617
 30
0.0
 10
26.0000142734497786
 20
34.8599940728022659
 30
0.0
  0
LWPOLYLINE
  5
17C
  8
0
 62
0
370
-1
  6
BYLAYER
100
AcDbEntity
100
AcDbPolyline
 90
2
 70
0
 43
3.0
 10
26.0000142734497786
 20
34.8599940728022659
 30
0.0
 10
24.0000141784548191
 20
34.8599940728022517
 30
0.0
  0
LWPOLYLINE
  5
17D
  8
0
 62
0
370
-1
  6
BYLAYER
100
AcDbEntity
100
AcDbPolyline
 90
2
 70
0
 43
3.0
 10
24.0000141784548191
 20
34.8599940728022517
 30
0.0
 10
22.0000140834599733
 20
34.8599940728022801
 30
0.0
  0
LWPOLYLINE
  5
17E
  8
0
 62
0
370
-1
  6
BYLAYER
100
AcDbEntity
100
AcDbPolyline
 90
2
 70
0
 43
3.0
 10
22.0000140834599733
 20
34.8599940728022801
 30
0.0
 10
20.0000139884650707
 20
34.8599940728022659
 30
0.0
  0
LWPOLYLINE
  5
17F
  8
0
 62
0
370
-1
  6
BYLAYER
100
AcDbEntity
100
AcDbPolyline
 90
2
 70
0
 43
3.0
 10
20.0000139884650707
 20
34.8599940728022659
 30
0.0
 10
18.0000138934702818
 20
34.8599940728022659
 30
0.0
  0
LWPOLYLINE
  5
180
  8
0
 62
0
370
-1
  6
BYLAYER
100
AcDbEntity
100
AcDbPolyline
 90
2
 70
0
 43
3.0
 10
18.0000138934702818
 20
34.8599940728022659
 30
0.0
 10
16.0000137984751518
 20
34.8599940728022659
 30
0.0
  0
LWPOLYLINE
  5
181
  8
0
 62
0
370
-1
  6
BYLAYER
100
AcDbEntity
100
AcDbPolyline
 90
2
 70
0
 43
3.0
 10
16.0000137984751518
 20
34.8599940728022659
 30
0.0
 10
14.0000137034803629
 20
34.8599940728022659
 30
0.0
  0
LWPOLYLINE
  5
182
  8
0
 62
0
370
-1
  6
BYLAYER
100
AcDbEntity
100
AcDbPolyline
 90
2
 70
0
 43
3.0
 10
14.0000137034803629
 20
34.8599940728022659
 30
0.0
 10
12.0000136084855171
 20
34.8599940728022659
 30
0.0
  0
LWPOLYLINE
  5
183
  8
0
 62
0
370
-1
  6
BYLAYER
100
AcDbEntity
100
AcDbPolyline
 90
2
 70
0
 43
3.0
 10
12.0000136084855171
 20
34.8599940728022659
 30
0.0
 10
10.0000135134905577
 20
34.8599940728022659
 30
0.0
  0
LWPOLYLINE
  5
184
  8
0
 62
0
370
-1
  6
BYLAYER
100
AcDbEntity
100
AcDbPolyline
 90
2
 70
0
 43
3.0
 10
10.0000135134905577
 20
34.8599940728022659
 30
0.0
 10
8.0000134184956551
 20
34.8599940728022659
 30
0.0
  0
LWPOLYLINE
  5
185
  8
0
 62
0
370
-1
  6
BYLAYER
100
AcDbEntity
100
AcDbPolyline
 90
2
 70
0
 43
3.0
 10
8.0000134184956551
 20
34.8599940728022659
 30
0.0
 10
6.0000133235007524
 20
34.8599940728022659
 30
0.0
  0
LWPOLYLINE
  5
186
  8
0
 62
0
370
-1
  6
BYLAYER
100
AcDbEntity
100
AcDbPolyline
 90
2
 70
0
 43
3.0
 10
6.0000133235007524
 20
34.8599940728022659
 30
0.0
 10
4.000013228505793
 20
34.8599940728022659
 30
0.0
  0
LWPOLYLINE
  5
187
  8
0
 62
0
370
-1
  6
BYLAYER
100
AcDbEntity
100
AcDbPolyline
 90
2
 70
0
 43
3.0
 10
4.000013228505793
 20
34.8599940728022659
 30
0.0
 10
2.0000131335109472
 20
34.8599940728022659
 30
0.0
  0
LWPOLYLINE
  5
188
  8
0
 62
0
370
-1
  6
BYLAYER
100
AcDbEntity
100
AcDbPolyline
 90
2
 70
0
 43
3.0
 10
2.0000131335109472
 20
34.8599940728022659
 30
0.0
 10
2.0000131335109472
 20
29.5266606213634475
 30
0.0
  0
LWPOLYLINE
  5
189
  8
0
 62
0
370
-1
  6
BYLAYER
100
AcDbEntity
100
AcDbPolyline
 90
2
 70
0
 43
3.0
 10
2.0000131335109472
 20
29.5266606213634475
 30
0.0
 10
2.0000131335109472
 20
24.1933274348342024
 30
0.0
  0
LWPOLYLINE
  5
18A
  8
0
 62
0
370
-1
  6
BYLAYER
100
AcDbEntity
100
AcDbPolyline
 90
2
 70
0
 43
3.0
 10
2.0000131335109472
 20
24.1933274348342024
 30
0.0
 10
2.0000131335109472
 20
18.8599944602324996
 30
0.0
  0
LWPOLYLINE
  5
18B
  8
0
 62
0
370
-1
  6
BYLAYER
100
AcDbEntity
100
AcDbPolyline
 90
2
 70
0
 43
3.0
 10
2.0000131335109472
 20
18.8599944602324996
 30
0.0
 10
2.0000131335110041
 20
13.5266616445765493
 30
0.0
  0
LWPOLYLINE
  5
18C
  8
0
 62
0
370
-1
  6
BYLAYER
100
AcDbEntity
100
AcDbPolyline
 90
2
 70
0
 43
3.0
 10
2.0000131335110041
 20
13.5266616445765493
 30
0.0
 10
2.0000131335109472
 20
8.193328934884363
 30
0.0
  0
LWPOLYLINE
  5
18D
  8
0
 62
0
370
-1
  6
BYLAYER
100
AcDbEntity
100
AcDbPolyline
 90
2
 70
0
 43
3.0
 10
2.0000131335109472
 20
8.193328934884363
 30
0.0
 10
2.0000131335109472
 20
2.8599962781741226
 30
0.0
  0
LWPOLYLINE
  5
18E
  8
0
 62
0
370
-1
  6
BYLAYER
100
AcDbEntity
100
AcDbPolyline
 90
2
 70
0
 43
3.0
 10
2.0000131335109472
 20
2.8599962781741226
 30
0.0
 10
2.0000131335109472
 20
-2.4733363785361391
 30
0.0
  0
LWPOLYLINE
  5
18F
  8
0
 62
0
370
-1
  6
BYLAYER
100
AcDbEntity
100
AcDbPolyline
 90
2
 70
0
 43
3.0
 10
2.0000131335109472
 20
-2.4733363785361391
 30
0.0
 10
2.0000131335109472
 20
-7.8066690882282828
 30
0.0
  0
LWPOLYLINE
  5
190
  8
0
 62
0
370
-1
  6
BYLAYER
100
AcDbEntity
100
AcDbPolyline
 90
2
 70
0
 43
3.0
 10
2.0000131335109472
 20
-7.8066690882282828
 30
0.0
 10
2.0000131335109472
 20
-13.1400019038842615
 30
0.0
  0
LWPOLYLINE
  5
191
  8
0
 62
0
370
-1
  6
BYLAYER
100
AcDbEntity
100
AcDbPolyline
 90
2
 70
0
 43
3.0
 10
2.0000131335109472
 20
-13.1400019038842615
 30
0.0
 10
2.0000131335109472
 20
-18.4733348784859501
 30
0.0
  0
LWPOLYLINE
  5
192
  8
0
 62
0
370
-1
  6
BYLAYER
100
AcDbEntity
100
AcDbPolyline
 90
2
 70
0
 43
3.0
 10
2.0000131335109472
 20
-18.4733348784859501
 30
0.0
 10
2.0000131335109472
 20
-23.8066680650152165
 30
0.0
  0
LWPOLYLINE
  5
193
  8
0
 62
0
370
-1
  6
BYLAYER
100
AcDbEntity
100
AcDbPolyline
 90
2
 70
0
 43
3.0
 10
2.0000131335109472
 20
-23.8066680650152165
 30
0.0
 10
2.0000131335109472
 20
-29.1400015164540207
 30
0.0
  0
LWPOLYLINE
  5
194
  8
0
 62
0
370
-1
  6
BYLAYER
100
AcDbEntity
100
AcDbPolyline
 90
2
 70
0
 43
3.0
 10
2.0000131335109472
 20
-29.1400015164540207
 30
0.0
 10
2.0000131335109472
 20
-29.1400015164540207
 30
0.0
  0
LWPOLYLINE
  5
195
  8
0
 62
0
370
-1
  6
BYLAYER
100
AcDbEntity
100
AcDbPolyline
 90
2
 70
0
 43
3.0
 10
2.0000131335109472
 20
-29.1400015164540207
 30
0.0
 10
2.0000131335109472
 20
-29.1400015164540207
 30
0.0
  0
ENDBLK
  5
196
100
AcDbEntity
  8
0
100
AcDbBlockEnd
  0
BLOCK
  5
197
100
AcDbEntity
  8
0
100
AcDbBlockBegin
  2
W-0-2
 70
0
 10
0.0
 20
0.0
 30
0.0
  3
W-0-2
  1

  0
LWPOLYLINE
  5
198
  8
0
 62
0
370
-1
  6
BYLAYER
100
AcDbEntity
100
AcDbPolyline
 90
2
 70
0
 43
3.0
 10
-394.0000056754797697
 20
-54.00000041350728
 30
0.0
 10
-394.0000056754797697
 20
-54.00000041350728
 30
0.0
  0
LWPOLYLINE
  5
199
  8
0
 62
0
370
-1
  6
BYLAYER
100
AcDbEntity
100
AcDbPolyline
 90
2
 70
0
 43
3.0
 10
-394.0000056754797697
 20
-54.00000041350728
 30
0.0
 10
-328.0000025406479836
 20
-54.00000041350728
 30
0.0
  0
LWPOLYLINE
  5
19A
  8
0
 62
0
370
-1
  6
BYLAYER
100
AcDbEntity
100
AcDbPolyline
 90
2
 70
0
 43
3.0
 10
-328.0000025406479836
 20
-54.00000041350728
 30
0.0
 10
-261.9999994058161974
 20
-54.00000041350728
 30
0.0
  0
LWPOLYLINE
  5
19B
  8
0
 62
0
370
-1
  6
BYLAYER
100
AcDbEntity
100
AcDbPolyline
 90
2
 70
0
 43
3.0
 10
-261.9999994058161974
 20
-54.00000041350728
 30
0.0
 10
-195.9999962709844112
 20
-54.00000041350728
 30
0.0
  0
LWPOLYLINE
  5
19C
  8
0
 62
0
370
-1
  6
BYLAYER
100
AcDbEntity
100
AcDbPolyline
 90
2
 70
0
 43
3.0
 10
-195.9999962709844112
 20
-54.00000041350728
 30
0.0
 10
-129.9999931361526251
 20
-54.00000041350728
 30
0.0
  0
LWPOLYLINE
  5
19D
  8
0
 62
0
370
-1
  6
BYLAYER
100
AcDbEntity
100
AcDbPolyline
 90
2
 70
0
 43
3.0
 10
-129.9999931361526251
 20
-54.00000041350728
 30
0.0
 10
-63.9999900013208389
 20
-54.00000041350728
 30
0.0
  0
LWPOLYLINE
  5
19E
  8
0
 62
0
370
-1
  6
BYLAYER
100
AcDbEntity
100
AcDbPolyline
 90
2
 70
0
 43
3.0
 10
-63.9999900013208389
 20
-54.00000041350728
 30
0.0
 10
2.0000131335109472
 20
-54.00000041350728
 30
0.0
  0
LWPOLYLINE
  5
19F
  8
0
 62
0
370
-1
  6
BYLAYER
100
AcDbEntity
100
AcDbPolyline
 90
2
 70
0
 43
3.0
 10
2.0000131335109472
 20
-54.00000041350728
 30
0.0
 10
68.0000162683427334
 20
-54.00000041350728
 30
0.0
  0
LWPOLYLINE
  5
1A0
  8
0
 62
0
370
-1
  6
BYLAYER
100
AcDbEntity
100
AcDbPolyline
 90
2
 70
0
 43
3.0
 10
68.0000162683427334
 20
-54.00000041350728
 30
0.0
 10
134.0000194031745195
 20
-54.00000041350728
 30
0.0
  0
LWPOLYLINE
  5
1A1
  8
0
 62
0
370
-1
  6
BYLAYER
100
AcDbEntity
100
AcDbPolyline
 90
2
 70
0
 43
3.0
 10
134.0000194031745195
 20
-54.00000041350728
 30
0.0
 10
200.0000225380063057
 20
-54.00000041350728
 30
0.0
  0
LWPOLYLINE
  5
1A2
  8
0
 62
0
370
-1
  6
BYLAYER
100
AcDbEntity
100
AcDbPolyline
 90
2
 70
0
 43
3.0
 10
200.0000225380063057
 20
-54.00000041350728
 30
0.0
 10
266.0000256728380919
 20
-54.00000041350728
 30
0.0
  0
LWPOLYLINE
  5
1A3
  8
0
 62
0
370
-1
  6
BYLAYER
100
AcDbEntity
100
AcDbPolyline
 90
2
 70
0
 43
3.0
 10
266.0000256728380919
 20
-54.00000041350728
 30
0.0
 10
332.000028807669878
 20
-54.00000041350728
 30
0.0
  0
LWPOLYLINE
  5
1A4
  8
0
 62
0
370
-1
  6
BYLAYER
100
AcDbEntity
100
AcDbPolyline
 90
2
 70
0
 43
3.0
 10
332.000028807669878
 20
-54.00000041350728
 30
0.0
 10
398.0000319425016642
 20
-54.00000041350728
 30
0.0
  0
LWPOLYLINE
  5
1A5
  8
0
 62
0
370
-1
  6
BYLAYER
100
AcDbEntity
100
AcDbPolyline
 90
2
 70
0
 43
3.0
 10
398.0000319425016642
 20
-54.00000041350728
 30
0.0
 10
398.0000319425016642
 20
-44.6666678933910148
 30
0.0
  0
LWPOLYLINE
  5
1A6
  8
0
 62
0
370
-1
  6
BYLAYER
100
AcDbEntity
100
AcDbPolyline
 90
2
 70
0
 43
3.0
 10
398.0000319425016642
 20
-44.6666678933910148
 30
0.0
 10
398.0000319425016642
 20
-35.3333351216107019
 30
0.0
  0
LWPOLYLINE
  5
1A7
  8
0
 62
0
370
-1
  6
BYLAYER
100
AcDbEntity
100
AcDbPolyline
 90
2
 70
0
 43
3.0
 10
398.0000319425016642
 20
-35.3333351216107019
 30
0.0
 10
398.0000319425016642
 20
-26.0000021643937345
 30
0.0
  0
LWPOLYLINE
  5
1A8
  8
0
 62
0
370
-1
  6
BYLAYER
100
AcDbEntity
100
AcDbPolyline
 90
2
 70
0
 43
3.0
 10
398.0000319425016642
 20
-26.0000021643937345
 30
0.0
 10
398.0000319425017778
 20
-16.6666690879674846
 30
0.0
  0
LWPOLYLINE
  5
1A9
  8
0
 62
0
370
-1
  6
BYLAYER
100
AcDbEntity
100
AcDbPolyline
 90
2
 70
0
 43
3.0
 10
398.0000319425017778
 20
-16.6666690879674846
 30
0.0
 10
398.0000319425016642
 20
-7.3333359585593314
 30
0.0
  0
LWPOLYLINE
  5
1AA
  8
0
 62
0
370
-1
  6
BYLAYER
100
AcDbEntity
100
AcDbPolyline
 90
2
 70
0
 43
3.0
 10
398.0000319425016642
 20
-7.3333359585593314
 30
0.0
 10
398.0000319425016642
 20
1.999997157603346
 30
0.0
  0
LWPOLYLINE
  5
1AB
  8
0
 62
0
370
-1
  6
BYLAYER
100
AcDbEntity
100
AcDbPolyline
 90
2
 70
0
 43
3.0
 10
398.0000319425016642
 20
1.999997157603346
 30
0.0
 10
398.0000319425016642
 20
11.3333301942931826
 30
0.0
  0
LWPOLYLINE
  5
1AC
  8
0
 62
0
370
-1
  6
BYLAYER
100
AcDbEntity
100
AcDbPolyline
 90
2
 70
0
 43
3.0
 10
398.0000319425016642
 20
11.3333301942931826
 30
0.0
 10
398.0000319425016642
 20
20.6666630852827495
 30
0.0
  0
LWPOLYLINE
  5
1AD
  8
0
 62
0
370
-1
  6
BYLAYER
100
AcDbEntity
100
AcDbPolyline
 90
2
 70
0
 43
3.0
 10
398.0000319425016642
 20
20.6666630852827495
 30
0.0
 10
398.0000319425016642
 20
29.9999957643447317
 30
0.0
  0
LWPOLYLINE
  5
1AE
  8
0
 62
0
370
-1
  6
BYLAYER
100
AcDbEntity
100
AcDbPolyline
 90
2
 70
0
 43
3.0
 10
398.0000319425016642
 20
29.9999957643447317
 30
0.0
 10
398.0000319425016642
 20
39.3333281652517286
 30
0.0
  0
LWPOLYLINE
  5
1AF
  8
0
 62
0
370
-1
  6
BYLAYER
100
AcDbEntity
100
AcDbPolyline
 90
2
 70
0
 43
3.0
 10
398.0000319425016642
 20
39.3333281652517286
 30
0.0
 10
398.0000319425016642
 20
48.6666602217763398
 30
0.0
  0
LWPOLYLINE
  5
1B0
  8
0
 62
0
370
-1
  6
BYLAYER
100
AcDbEntity
100
AcDbPolyline
 90
2
 70
0
 43
3.0
 10
398.0000319425016642
 20
48.6666602217763398
 30
0.0
 10
398.0000319425016642
 20
57.9999918676912216
 30
0.0
  0
LWPOLYLINE
  5
1B1
  8
0
 62
0
370
-1
  6
BYLAYER
100
AcDbEntity
100
AcDbPolyline
 90
2
 70
0
 43
3.0
 10
398.0000319425016642
 20
57.9999918676912216
 30
0.0
 10
332.0000288076697643
 20
57.9999918676911932
 30
0.0
  0
LWPOLYLINE
  5
1B2
  8
0
 62
0
370
-1
  6
BYLAYER
100
AcDbEntity
100
AcDbPolyline
 90
2
 70
0
 43
3.0
 10
332.0000288076697643
 20
57.9999918676911932
 30
0.0
 10
266.0000256728382055
 20
57.9999918676912216
 30
0.0
  0
LWPOLYLINE
  5
1B3
  8
0
 62
0
370
-1
  6
BYLAYER
100
AcDbEntity
100
AcDbPolyline
 90
2
 70
0
 43
3.0
 10
266.0000256728382055
 20
57.9999918676912216
 30
0.0
 10
200.0000225380063057
 20
57.9999918676912216
 30
0.0
  0
LWPOLYLINE
  5
1B4
  8
0
 62
0
370
-1
  6
BYLAYER
100
AcDbEntity
100
AcDbPolyline
 90
2
 70
0
 43
3.0
 10
200.0000225380063057
 20
57.9999918676912216
 30
0.0
 10
134.0000194031747469
 20
57.9999918676912216
 30
0.0
  0
LWPOLYLINE
  5
1B5
  8
0
 62
0
370
-1
  6
BYLAYER
100
AcDbEntity
100
AcDbPolyline
 90
2
 70
0
 43
3.0
 10
134.0000194031747469
 20
57.9999918676912216
 30
0.0
 10
68.0000162683426197
 20
57.9999918676912216
 30
0.0
  0
LWPOLYLINE
  5
1B6
  8
0
 62
0
370
-1
  6
BYLAYER
100
AcDbEntity
100
AcDbPolyline
 90
2
 70
0
 43
3.0
 10
68.0000162683426197
 20
57.9999918676912216
 30
0.0
 10
2.0000131335109472
 20
57.9999918676912216
 30
0.0
  0
LWPOLYLINE
  5
1B7
  8
0
 62
0
370
-1
  6
BYLAYER
100
AcDbEntity
100
AcDbPolyline
 90
2
 70
0
 43
3.0
 10
2.0000131335109472
 20
57.9999918676912216
 30
0.0
 10
-63.9999900013208389
 20
57.9999918676912216
 30
0.0
  0
LWPOLYLINE
  5
1B8
  8
0
 62
0
370
-1
  6
BYLAYER
100
AcDbEntity
100
AcDbPolyline
 90
2
 70
0
 43
3.0
 10
-63.9999900013208389
 20
57.9999918676912216
 30
0.0
 10
-129.9999931361526251
 20
57.9999918676912216
 30
0.0
  0
LWPOLYLINE
  5
1B9
  8
0
 62
0
370
-1
  6
BYLAYER
100
AcDbEntity
100
AcDbPolyline
 90
2
 70
0
 43
3.0
 10
-129.9999931361526251
 20
57.9999918676912216
 30
0.0
 10
-195.9999962709844112
 20
57.9999918676912216
 30
0.0
  0
LWPOLYLINE
  5
1BA
  8
0
 62
0
370
-1
  6
BYLAYER
100
AcDbEntity
100
AcDbPolyline
 90
2
 70
0
 43
3.0
 10
-195.9999962709844112
 20
57.9999918676912216
 30
0.0
 10
-261.9999994058161974
 20
57.9999918676912216
 30
0.0
  0
LWPOLYLINE
  5
1BB
  8
0
 62
0
370
-1
  6
BYLAYER
100
AcDbEntity
100
AcDbPolyline
 90
2
 70
0
 43
3.0
 10
-261.9999994058161974
 20
57.9999918676912216
 30
0.0
 10
-328.0000025406479836
 20
57.9999918676912216
 30
0.0
  0
LWPOLYLINE
  5
1BC
  8
0
 62
0
370
-1
  6
BYLAYER
100
AcDbEntity
100
AcDbPolyline
 90
2
 70
0
 43
3.0
 10
-328.0000025406479836
 20
57.9999918676912216
 30
0.0
 10
-394.0000056754797697
 20
57.9999918676912216
 30
0.0
  0
LWPOLYLINE
  5
1BD
  8
0
 62
0
370
-1
  6
BYLAYER
100
AcDbEntity
100
AcDbPolyline
 90
2
 70
0
 43
3.0
 10
-394.0000056754797697
 20
57.9999918676912216
 30
0.0
 10
-394.0000056754797697
 20
48.6666602217763256
 30
0.0
  0
LWPOLYLINE
  5
1BE
  8
0
 62
0
370
-1
  6
BYLAYER
100
AcDbEntity
100
AcDbPolyline
 90
2
 70
0
 43
3.0
 10
-394.0000056754797697
 20
48.6666602217763256
 30
0.0
 10
-394.0000056754797697
 20
39.333328165251757
 30
0.0
  0
LWPOLYLINE
  5
1BF
  8
0
 62
0
370
-1
  6
BYLAYER
100
AcDbEntity
100
AcDbPolyline
 90
2
 70
0
 43
3.0
 10
-394.0000056754797697
 20
39.333328165251757
 30
0.0
 10
-394.0000056754797697
 20
29.9999957643447317
 30
0.0
  0
LWPOLYLINE
  5
1C0
  8
0
 62
0
370
-1
  6
BYLAYER
100
AcDbEntity
100
AcDbPolyline
 90
2
 70
0
 43
3.0
 10
-394.0000056754797697
 20
29.9999957643447317
 30
0.0
 10
-394.0000056754797697
 20
20.6666630852827637
 30
0.0
  0
LWPOLYLINE
  5
1C1
  8
0
 62
0
370
-1
  6
BYLAYER
100
AcDbEntity
100
AcDbPolyline
 90
2
 70
0
 43
3.0
 10
-394.0000056754797697
 20
20.6666630852827637
 30
0.0
 10
-394.0000056754797697
 20
11.3333301942931683
 30
0.0
  0
LWPOLYLINE
  5
1C2
  8
0
 62
0
370
-1
  6
BYLAYER
100
AcDbEntity
100
AcDbPolyline
 90
2
 70
0
 43
3.0
 10
-394.0000056754797697
 20
11.3333301942931683
 30
0.0
 10
-394.0000056754797697
 20
1.999997157603346
 30
0.0
  0
LWPOLYLINE
  5
1C3
  8
0
 62
0
370
-1
  6
BYLAYER
100
AcDbEntity
100
AcDbPolyline
 90
2
 70
0
 43
3.0
 10
-394.0000056754797697
 20
1.999997157603346
 30
0.0
 10
-394.0000056754797697
 20
-7.3333359585593314
 30
0.0
  0
LWPOLYLINE
  5
1C4
  8
0
 62
0
370
-1
  6
BYLAYER
100
AcDbEntity
100
AcDbPolyline
 90
2
 70
0
 43
3.0
 10
-394.0000056754797697
 20
-7.3333359585593314
 30
0.0
 10
-394.0000056754797697
 20
-16.6666690879674846
 30
0.0
  0
LWPOLYLINE
  5
1C5
  8
0
 62
0
370
-1
  6
BYLAYER
100
AcDbEntity
100
AcDbPolyline
 90
2
 70
0
 43
3.0
 10
-394.0000056754797697
 20
-16.6666690879674846
 30
0.0
 10
-394.0000056754797697
 20
-26.0000021643937345
 30
0.0
  0
LWPOLYLINE
  5
1C6
  8
0
 62
0
370
-1
  6
BYLAYER
100
AcDbEntity
100
AcDbPolyline
 90
2
 70
0
 43
3.0
 10
-394.0000056754797697
 20
-26.0000021643937345
 30
0.0
 10
-394.0000056754797697
 20
-35.3333351216107019
 30
0.0
  0
LWPOLYLINE
  5
1C7
  8
0
 62
0
370
-1
  6
BYLAYER
100
AcDbEntity
100
AcDbPolyline
 90
2
 70
0
 43
3.0
 10
-394.0000056754797697
 20
-35.3333351216107019
 30
0.0
 10
-394.0000056754797697
 20
-44.6666678933910077
 30
0.0
  0
LWPOLYLINE
  5
1C8
  8
0
 62
0
370
-1
  6
BYLAYER
100
AcDbEntity
100
AcDbPolyline
 90
2
 70
0
 43
3.0
 10
-394.0000056754797697
 20
-44.6666678933910077
 30
0.0
 10
-394.0000056754797697
 20
-54.00000041350728
 30
0.0
  0
LWPOLYLINE
  5
1C9
  8
0
 62
0
370
-1
  6
BYLAYER
100
AcDbEntity
100
AcDbPolyline
 90
2
 70
0
 43
3.0
 10
-394.0000056754797697
 20
-54.00000041350728
 30
0.0
 10
-394.0000056754797697
 20
-54.00000041350728
 30
0.0
  0
LWPOLYLINE
  5
1CA
  8
0
 62
0
370
-1
  6
BYLAYER
100
AcDbEntity
100
AcDbPolyline
 90
2
 70
0
 43
3.0
 10
-394.0000056754797697
 20
-54.00000041350728
 30
0.0
 10
-394.0000056754797697
 20
-54.00000041350728
 30
0.0
  0
LWPOLYLINE
  5
1CB
  8
0
 62
0
370
-1
  6
BYLAYER
100
AcDbEntity
100
AcDbPolyline
 90
2
 70
0
 43
6.0
 10
-366.0000043455511332
 20
3.1159967793299401
 30
0.0
 10
-366.0000043455511332
 20
3.1159967793299401
 30
0.0
  0
LWPOLYLINE
  5
1CC
  8
0
 62
0
370
-1
  6
BYLAYER
100
AcDbEntity
100
AcDbPolyline
 90
2
 70
0
 43
6.0
 10
-366.0000043455511332
 20
3.1159967793299401
 30
0.0
 10
-337.7753331952566214
 20
3.0729965610409735
 30
0.0
  0
LWPOLYLINE
  5
1CD
  8
0
 62
0
370
-1
  6
BYLAYER
100
AcDbEntity
100
AcDbPolyline
 90
2
 70
0
 43
6.0
 10
-337.7753331952566214
 20
3.0729965610409735
 30
0.0
 10
-309.5506631046002894
 20
3.0299963427520353
 30
0.0
  0
LWPOLYLINE
  5
1CE
  8
0
 62
0
370
-1
  6
BYLAYER
100
AcDbEntity
100
AcDbPolyline
 90
2
 70
0
 43
6.0
 10
-309.5506631046002894
 20
3.0299963427520353
 30
0.0
 10
-281.3259938616544673
 20
2.9869961244630687
 30
0.0
  0
LWPOLYLINE
  5
1CF
  8
0
 62
0
370
-1
  6
BYLAYER
100
AcDbEntity
100
AcDbPolyline
 90
2
 70
0
 43
6.0
 10
-281.3259938616544673
 20
2.9869961244630687
 30
0.0
 10
-253.1013252544915701
 20
2.9439959061741234
 30
0.0
  0
LWPOLYLINE
  5
1D0
  8
0
 62
0
370
-1
  6
BYLAYER
100
AcDbEntity
100
AcDbPolyline
 90
2
 70
0
 43
6.0
 10
-253.1013252544915701
 20
2.9439959061741234
 30
0.0
 10
-224.8766570711839847
 20
2.9009956878851355
 30
0.0
  0
LWPOLYLINE
  5
1D1
  8
0
 62
0
370
-1
  6
BYLAYER
100
AcDbEntity
100
AcDbPolyline
 90
2
 70
0
 43
6.0
 10
-224.8766570711839847
 20
2.9009956878851355
 30
0.0
 10
-196.6519890998039841
 20
2.8579954695961902
 30
0.0
  0
LWPOLYLINE
  5
1D2
  8
0
 62
0
370
-1
  6
BYLAYER
100
AcDbEntity
100
AcDbPolyline
 90
2
 70
0
 43
6.0
 10
-196.6519890998039841
 20
2.8579954695961902
 30
0.0
 10
-168.4273211284239551
 20
2.8149952513072378
 30
0.0
  0
LWPOLYLINE
  5
1D3
  8
0
 62
0
370
-1
  6
BYLAYER
100
AcDbEntity
100
AcDbPolyline
 90
2
 70
0
 43
6.0
 10
-168.4273211284239551
 20
2.8149952513072378
 30
0.0
 10
-140.2026529451164265
 20
2.7719950330182783
 30
0.0
  0
LWPOLYLINE
  5
1D4
  8
0
 62
0
370
-1
  6
BYLAYER
100
AcDbEntity
100
AcDbPolyline
 90
2
 70
0
 43
6.0
 10
-140.2026529451164265
 20
2.7719950330182783
 30
0.0
 10
-111.9779843379535009
 20
2.7289948147293188
 30
0.0
  0
LWPOLYLINE
  5
1D5
  8
0
 62
0
370
-1
  6
BYLAYER
100
AcDbEntity
100
AcDbPolyline
 90
2
 70
0
 43
6.0
 10
-111.9779843379535009
 20
2.7289948147293188
 30
0.0
 10
-83.7533150950076788
 20
2.6859945964403664
 30
0.0
  0
LWPOLYLINE
  5
1D6
  8
0
 62
0
370
-1
  6
BYLAYER
100
AcDbEntity
100
AcDbPolyline
 90
2
 70
0
 43
6.0
 10
-83.7533150950076788
 20
2.6859945964403664
 30
0.0
 10
-55.5286450043513469
 20
2.6429943781514069
 30
0.0
  0
LWPOLYLINE
  5
1D7
  8
0
 62
0
370
-1
  6
BYLAYER
100
AcDbEntity
100
AcDbPolyline
 90
2
 70
0
 43
6.0
 10
-55.5286450043513469
 20
2.6429943781514069
 30
0.0
 10
-27.3039738540568351
 20
2.5999941598624474
 30
0.0
  0
LWPOLYLINE
  5
1D8
  8
0
 62
0
370
-1
  6
BYLAYER
100
AcDbEntity
100
AcDbPolyline
 90
2
 70
0
 43
3.0
 10
-394.0000056754797697
 20
-30.0000020675361725
 30
0.0
 10
-394.0000056754797697
 20
-30.0000020675361725
 30
0.0
  0
LWPOLYLINE
  5
1D9
  8
0
 62
0
370
-1
  6
BYLAYER
100
AcDbEntity
100
AcDbPolyline
 90
2
 70
0
 43
3.0
 10
-394.0000056754797697
 20
-30.0000020675361725
 30
0.0
 10
-392.0000055804848671
 20
-30.0000020675361725
 30
0.0
  0
LWPOLYLINE
  5
1DA
  8
0
 62
0
370
-1
  6
BYLAYER
100
AcDbEntity
100
AcDbPolyline
 90
2
 70
0
 43
3.0
 10
-392.0000055804848671
 20
-30.0000020675361725
 30
0.0
 10
-390.0000054854899645
 20
-30.0000020675361725
 30
0.0
  0
LWPOLYLINE
  5
1DB
  8
0
 62
0
370
-1
  6
BYLAYER
100
AcDbEntity
100
AcDbPolyline
 90
2
 70
0
 43
3.0
 10
-390.0000054854899645
 20
-30.0000020675361725
 30
0.0
 10
-388.0000053904950619
 20
-30.0000020675361725
 30
0.0
  0
LWPOLYLINE
  5
1DC
  8
0
 62
0
370
-1
  6
BYLAYER
100
AcDbEntity
100
AcDbPolyline
 90
2
 70
0
 43
3.0
 10
-388.0000053904950619
 20
-30.0000020675361725
 30
0.0
 10
-386.0000052955001593
 20
-30.0000020675361689
 30
0.0
  0
LWPOLYLINE
  5
1DD
  8
0
 62
0
370
-1
  6
BYLAYER
100
AcDbEntity
100
AcDbPolyline
 90
2
 70
0
 43
3.0
 10
-386.0000052955001593
 20
-30.0000020675361689
 30
0.0
 10
-384.0000052005052567
 20
-30.0000020675361796
 30
0.0
  0
LWPOLYLINE
  5
1DE
  8
0
 62
0
370
-1
  6
BYLAYER
100
AcDbEntity
100
AcDbPolyline
 90
2
 70
0
 43
3.0
 10
-384.0000052005052567
 20
-30.0000020675361796
 30
0.0
 10
-382.000005105510354
 20
-30.0000020675361725
 30
0.0
  0
LWPOLYLINE
  5
1DF
  8
0
 62
0
370
-1
  6
BYLAYER
100
AcDbEntity
100
AcDbPolyline
 90
2
 70
0
 43
3.0
 10
-382.000005105510354
 20
-30.0000020675361725
 30
0.0
 10
-380.0000050105154514
 20
-30.0000020675361725
 30
0.0
  0
LWPOLYLINE
  5
1E0
  8
0
 62
0
370
-1
  6
BYLAYER
100
AcDbEntity
100
AcDbPolyline
 90
2
 70
0
 43
3.0
 10
-380.0000050105154514
 20
-30.0000020675361725
 30
0.0
 10
-378.0000049155205488
 20
-30.0000020675361725
 30
0.0
  0
LWPOLYLINE
  5
1E1
  8
0
 62
0
370
-1
  6
BYLAYER
100
AcDbEntity
100
AcDbPolyline
 90
2
 70
0
 43
3.0
 10
-378.0000049155205488
 20
-30.0000020675361725
 30
0.0
 10
-376.0000048205256462
 20
-30.0000020675361725
 30
0.0
  0
LWPOLYLINE
  5
1E2
  8
0
 62
0
370
-1
  6
BYLAYER
100
AcDbEntity
100
AcDbPolyline
 90
2
 70
0
 43
3.0
 10
-376.0000048205256462
 20
-30.0000020675361725
 30
0.0
 10
-374.0000047255307436
 20
-30.0000020675361725
 30
0.0
  0
LWPOLYLINE
  5
1E3
  8
0
 62
0
370
-1
  6
BYLAYER
100
AcDbEntity
100
AcDbPolyline
 90
2
 70
0
 43
3.0
 10
-374.0000047255307436
 20
-30.0000020675361725
 30
0.0
 10
-372.000004630535841
 20
-30.0000020675361725
 30
0.0
  0
LWPOLYLINE
  5
1E4
  8
0
 62
0
370
-1
  6
BYLAYER
100
AcDbEntity
100
AcDbPolyline
 90
2
 70
0
 43
3.0
 10
-372.000004630535841
 20
-30.0000020675361725
 30
0.0
 10
-370.0000045355409384
 20
-30.0000020675361725
 30
0.0
  0
LWPOLYLINE
  5
1E5
  8
0
 62
0
370
-1
  6
BYLAYER
100
AcDbEntity
100
AcDbPolyline
 90
2
 70
0
 43
3.0
 10
-370.0000045355409384
 20
-30.0000020675361725
 30
0.0
 10
-370.0000045355409384
 20
-24.6666686160973825
 30
0.0
  0
LWPOLYLINE
  5
1E6
  8
0
 62
0
370
-1
  6
BYLAYER
100
AcDbEntity
100
AcDbPolyline
 90
2
 70
0
 43
3.0
 10
-370.0000045355409384
 20
-24.6666686160973825
 30
0.0
 10
-370.0000045355409384
 20
-19.3333354295680948
 30
0.0
  0
LWPOLYLINE
  5
1E7
  8
0
 62
0
370
-1
  6
BYLAYER
100
AcDbEntity
100
AcDbPolyline
 90
2
 70
0
 43
3.0
 10
-370.0000045355409384
 20
-19.3333354295680948
 30
0.0
 10
-370.0000045355409384
 20
-14.0000024549664133
 30
0.0
  0
LWPOLYLINE
  5
1E8
  8
0
 62
0
370
-1
  6
BYLAYER
100
AcDbEntity
100
AcDbPolyline
 90
2
 70
0
 43
3.0
 10
-370.0000045355409384
 20
-14.0000024549664133
 30
0.0
 10
-370.0000045355409384
 20
-8.6666696393104345
 30
0.0
  0
LWPOLYLINE
  5
1E9
  8
0
 62
0
370
-1
  6
BYLAYER
100
AcDbEntity
100
AcDbPolyline
 90
2
 70
0
 43
3.0
 10
-370.0000045355409384
 20
-8.6666696393104345
 30
0.0
 10
-370.0000045355409384
 20
-3.333336929618298
 30
0.0
  0
LWPOLYLINE
  5
1EA
  8
0
 62
0
370
-1
  6
BYLAYER
100
AcDbEntity
100
AcDbPolyline
 90
2
 70
0
 43
3.0
 10
-370.0000045355409384
 20
-3.333336929618298
 30
0.0
 10
-370.0000045355409384
 20
1.9999957270919708
 30
0.0
  0
LWPOLYLINE
  5
1EB
  8
0
 62
0
370
-1
  6
BYLAYER
100
AcDbEntity
100
AcDbPolyline
 90
2
 70
0
 43
3.0
 10
-370.0000045355409384
 20
1.9999957270919708
 30
0.0
 10
-370.0000045355409384
 20
7.3333283838022254
 30
0.0
  0
LWPOLYLINE
  5
1EC
  8
0
 62
0
370
-1
  6
BYLAYER
100
AcDbEntity
100
AcDbPolyline
 90
2
 70
0
 43
3.0
 10
-370.0000045355409384
 20
7.3333283838022254
 30
0.0
 10
-370.0000045355409384
 20
12.6666610934943833
 30
0.0
  0
LWPOLYLINE
  5
1ED
  8
0
 62
0
370
-1
  6
BYLAYER
100
AcDbEntity
100
AcDbPolyline
 90
2
 70
0
 43
3.0
 10
-370.0000045355409384
 20
12.6666610934943833
 30
0.0
 10
-370.0000045355409384
 20
17.9999939091503478
 30
0.0
  0
LWPOLYLINE
  5
1EE
  8
0
 62
0
370
-1
  6
BYLAYER
100
AcDbEntity
100
AcDbPolyline
 90
2
 70
0
 43
3.0
 10
-370.0000045355409384
 20
17.9999939091503478
 30
0.0
 10
-370.0000045355409384
 20
23.3333268837520365
 30
0.0
  0
LWPOLYLINE
  5
1EF
  8
0
 62
0
370
-1
  6
BYLAYER
100
AcDbEntity
100
AcDbPolyline
 90
2
 70
0
 43
3.0
 10
-370.0000045355409384
 20
23.3333268837520365
 30
0.0
 10
-370.0000045355409384
 20
28.6666600702813099
 30
0.0
  0
LWPOLYLINE
  5
1F0
  8
0
 62
0
370
-1
  6
BYLAYER
100
AcDbEntity
100
AcDbPolyline
 90
2
 70
0
 43
3.0
 10
-370.0000045355409384
 20
28.6666600702813099
 30
0.0
 10
-370.0000045355409384
 20
33.9999935217201141
 30
0.0
  0
LWPOLYLINE
  5
1F1
  8
0
 62
0
370
-1
  6
BYLAYER
100
AcDbEntity
100
AcDbPolyline
 90
2
 70
0
 43
3.0
 10
-370.0000045355409384
 20
33.9999935217201141
 30
0.0
 10
-372.000004630535841
 20
33.9999935217200999
 30
0.0
  0
LWPOLYLINE
  5
1F2
  8
0
 62
0
370
-1
  6
BYLAYER
100
AcDbEntity
100
AcDbPolyline
 90
2
 70
0
 43
3.0
 10
-372.000004630535841
 20
33.9999935217200999
 30
0.0
 10
-374.0000047255307436
 20
33.9999935217201283
 30
0.0
  0
LWPOLYLINE
  5
1F3
  8
0
 62
0
370
-1
  6
BYLAYER
100
AcDbEntity
100
AcDbPolyline
 90
2
 70
0
 43
3.0
 10
-374.0000047255307436
 20
33.9999935217201283
 30
0.0
 10
-376.0000048205256462
 20
33.9999935217201141
 30
0.0
  0
LWPOLYLINE
  5
1F4
  8
0
 62
0
370
-1
  6
BYLAYER
100
AcDbEntity
100
AcDbPolyline
 90
2
 70
0
 43
3.0
 10
-376.0000048205256462
 20
33.9999935217201141
 30
0.0
 10
-378.0000049155205488
 20
33.9999935217201141
 30
0.0
  0
LWPOLYLINE
  5
1F5
  8
0
 62
0
370
-1
  6
BYLAYER
100
AcDbEntity
100
AcDbPolyline
 90
2
 70
0
 43
3.0
 10
-378.0000049155205488
 20
33.9999935217201141
 30
0.0
 10
-380.0000050105154514
 20
33.9999935217201141
 30
0.0
  0
LWPOLYLINE
  5
1F6
  8
0
 62
0
370
-1
  6
BYLAYER
100
AcDbEntity
100
AcDbPolyline
 90
2
 70
0
 43
3.0
 10
-380.0000050105154514
 20
33.9999935217201141
 30
0.0
 10
-382.000005105510354
 20
33.9999935217201141
 30
0.0
  0
LWPOLYLINE
  5
1F7
  8
0
 62
0
370
-1
  6
BYLAYER
100
AcDbEntity
100
AcDbPolyline
 90
2
 70
0
 43
3.0
 10
-382.000005105510354
 20
33.9999935217201141
 30
0.0
 10
-384.0000052005052567
 20
33.9999935217201141
 30
0.0
  0
LWPOLYLINE
  5
1F8
  8
0
 62
0
370
-1
  6
BYLAYER
100
AcDbEntity
100
AcDbPolyline
 90
2
 70
0
 43
3.0
 10
-384.0000052005052567
 20
33.9999935217201141
 30
0.0
 10
-386.0000052955001593
 20
33.9999935217201141
 30
0.0
  0
LWPOLYLINE
  5
1F9
  8
0
 62
0
370
-1
  6
BYLAYER
100
AcDbEntity
100
AcDbPolyline
 90
2
 70
0
 43
3.0
 10
-386.0000052955001593
 20
33.9999935217201141
 30
0.0
 10
-388.0000053904950619
 20
33.9999935217201141
 30
0.0
  0
LWPOLYLINE
  5
1FA
  8
0
 62
0
370
-1
  6
BYLAYER
100
AcDbEntity
100
AcDbPolyline
 90
2
 70
0
 43
3.0
 10
-388.0000053904950619
 20
33.9999935217201141
 30
0.0
 10
-390.0000054854899645
 20
33.9999935217201141
 30
0.0
  0
LWPOLYLINE
  5
1FB
  8
0
 62
0
370
-1
  6
BYLAYER
100
AcDbEntity
100
AcDbPolyline
 90
2
 70
0
 43
3.0
 10
-390.0000054854899645
 20
33.9999935217201141
 30
0.0
 10
-392.0000055804848671
 20
33.9999935217201141
 30
0.0
  0
LWPOLYLINE
  5
1FC
  8
0
 62
0
370
-1
  6
BYLAYER
100
AcDbEntity
100
AcDbPolyline
 90
2
 70
0
 43
3.0
 10
-392.0000055804848671
 20
33.9999935217201141
 30
0.0
 10
-394.0000056754797697
 20
33.9999935217201141
 30
0.0
  0
LWPOLYLINE
  5
1FD
  8
0
 62
0
370
-1
  6
BYLAYER
100
AcDbEntity
100
AcDbPolyline
 90
2
 70
0
 43
3.0
 10
-394.0000056754797697
 20
33.9999935217201141
 30
0.0
 10
-394.0000056754797697
 20
28.6666600702812957
 30
0.0
  0
LWPOLYLINE
  5
1FE
  8
0
 62
0
370
-1
  6
BYLAYER
100
AcDbEntity
100
AcDbPolyline
 90
2
 70
0
 43
3.0
 10
-394.0000056754797697
 20
28.6666600702812957
 30
0.0
 10
-394.0000056754797697
 20
23.3333268837520507
 30
0.0
  0
LWPOLYLINE
  5
1FF
  8
0
 62
0
370
-1
  6
BYLAYER
100
AcDbEntity
100
AcDbPolyline
 90
2
 70
0
 43
3.0
 10
-394.0000056754797697
 20
23.3333268837520507
 30
0.0
 10
-394.0000056754797697
 20
17.9999939091503478
 30
0.0
  0
LWPOLYLINE
  5
200
  8
0
 62
0
370
-1
  6
BYLAYER
100
AcDbEntity
100
AcDbPolyline
 90
2
 70
0
 43
3.0
 10
-394.0000056754797697
 20
17.9999939091503478
 30
0.0
 10
-394.0000056754797697
 20
12.6666610934943975
 30
0.0
  0
LWPOLYLINE
  5
201
  8
0
 62
0
370
-1
  6
BYLAYER
100
AcDbEntity
100
AcDbPolyline
 90
2
 70
0
 43
3.0
 10
-394.0000056754797697
 20
12.6666610934943975
 30
0.0
 10
-394.0000056754797697
 20
7.3333283838022112
 30
0.0
  0
LWPOLYLINE
  5
202
  8
0
 62
0
370
-1
  6
BYLAYER
100
AcDbEntity
100
AcDbPolyline
 90
2
 70
0
 43
3.0
 10
-394.0000056754797697
 20
7.3333283838022112
 30
0.0
 10
-394.0000056754797697
 20
1.9999957270919708
 30
0.0
  0
LWPOLYLINE
  5
203
  8
0
 62
0
370
-1
  6
BYLAYER
100
AcDbEntity
100
AcDbPolyline
 90
2
 70
0
 43
3.0
 10
-394.0000056754797697
 20
1.9999957270919708
 30
0.0
 10
-394.0000056754797697
 20
-3.3333369296182909
 30
0.0
  0
LWPOLYLINE
  5
204
  8
0
 62
0
370
-1
  6
BYLAYER
100
AcDbEntity
100
AcDbPolyline
 90
2
 70
0
 43
3.0
 10
-394.0000056754797697
 20
-3.3333369296182909
 30
0.0
 10
-394.0000056754797697
 20
-8.6666696393104345
 30
0.0
  0
LWPOLYLINE
  5
205
  8
0
 62
0
370
-1
  6
BYLAYER
100
AcDbEntity
100
AcDbPolyline
 90
2
 70
0
 43
3.0
 10
-394.0000056754797697
 20
-8.6666696393104345
 30
0.0
 10
-394.0000056754797697
 20
-14.0000024549664133
 30
0.0
  0
LWPOLYLINE
  5
206
  8
0
 62
0
370
-1
  6
BYLAYER
100
AcDbEntity
100
AcDbPolyline
 90
2
 70
0
 43
3.0
 10
-394.0000056754797697
 20
-14.0000024549664133
 30
0.0
 10
-394.0000056754797697
 20
-19.3333354295681019
 30
0.0
  0
LWPOLYLINE
  5
207
  8
0
 62
0
370
-1
  6
BYLAYER
100
AcDbEntity
100
AcDbPolyline
 90
2
 70
0
 43
3.0
 10
-394.0000056754797697
 20
-19.3333354295681019
 30
0.0
 10
-394.0000056754797697
 20
-24.6666686160973683
 30
0.0
  0
LWPOLYLINE
  5
208
  8
0
 62
0
370
-1
  6
BYLAYER
100
AcDbEntity
100
AcDbPolyline
 90
2
 70
0
 43
3.0
 10
-394.0000056754797697
 20
-24.6666686160973683
 30
0.0
 10
-394.0000056754797697
 20
-30.0000020675361725
 30
0.0
  0
LWPOLYLINE
  5
209
  8
0
 62
0
370
-1
  6
BYLAYER
100
AcDbEntity
100
AcDbPolyline
 90
2
 70
0
 43
3.0
 10
-394.0000056754797697
 20
-30.0000020675361725
 30
0.0
 10
-394.0000056754797697
 20
-30.0000020675361725
 30
0.0
  0
LWPOLYLINE
  5
20A
  8
0
 62
0
370
-1
  6
BYLAYER
100
AcDbEntity
100
AcDbPolyline
 90
2
 70
0
 43
3.0
 10
-394.0000056754797697
 20
-30.0000020675361725
 30
0.0
 10
-394.0000056754797697
 20
-30.0000020675361725
 30
0.0
  0
LWPOLYLINE
  5
20B
  8
0
 62
0
370
-1
  6
BYLAYER
100
AcDbEntity
100
AcDbPolyline
 90
2
 70
0
 43
3.0
 10
374.0000308025628328
 20
-30.0000020675361725
 30
0.0
 10
374.0000308025628328
 20
-30.0000020675361725
 30
0.0
  0
LWPOLYLINE
  5
20C
  8
0
 62
0
370
-1
  6
BYLAYER
100
AcDbEntity
100
AcDbPolyline
 90
2
 70
0
 43
3.0
 10
374.0000308025628328
 20
-30.0000020675361725
 30
0.0
 10
376.0000308975577354
 20
-30.0000020675361725
 30
0.0
  0
LWPOLYLINE
  5
20D
  8
0
 62
0
370
-1
  6
BYLAYER
100
AcDbEntity
100
AcDbPolyline
 90
2
 70
0
 43
3.0
 10
376.0000308975577354
 20
-30.0000020675361725
 30
0.0
 10
378.0000309925526381
 20
-30.0000020675361725
 30
0.0
  0
LWPOLYLINE
  5
20E
  8
0
 62
0
370
-1
  6
BYLAYER
100
AcDbEntity
100
AcDbPolyline
 90
2
 70
0
 43
3.0
 10
378.0000309925526381
 20
-30.0000020675361725
 30
0.0
 10
380.0000310875475407
 20
-30.0000020675361725
 30
0.0
  0
LWPOLYLINE
  5
20F
  8
0
 62
0
370
-1
  6
BYLAYER
100
AcDbEntity
100
AcDbPolyline
 90
2
 70
0
 43
3.0
 10
380.0000310875475407
 20
-30.0000020675361725
 30
0.0
 10
382.0000311825426706
 20
-30.0000020675361689
 30
0.0
  0
LWPOLYLINE
  5
210
  8
0
 62
0
370
-1
  6
BYLAYER
100
AcDbEntity
100
AcDbPolyline
 90
2
 70
0
 43
3.0
 10
382.0000311825426706
 20
-30.0000020675361689
 30
0.0
 10
384.0000312775371185
 20
-30.0000020675361796
 30
0.0
  0
LWPOLYLINE
  5
211
  8
0
 62
0
370
-1
  6
BYLAYER
100
AcDbEntity
100
AcDbPolyline
 90
2
 70
0
 43
3.0
 10
384.0000312775371185
 20
-30.0000020675361796
 30
0.0
 10
386.0000313725322485
 20
-30.0000020675361725
 30
0.0
  0
LWPOLYLINE
  5
212
  8
0
 62
0
370
-1
  6
BYLAYER
100
AcDbEntity
100
AcDbPolyline
 90
2
 70
0
 43
3.0
 10
386.0000313725322485
 20
-30.0000020675361725
 30
0.0
 10
388.0000314675272648
 20
-30.0000020675361725
 30
0.0
  0
LWPOLYLINE
  5
213
  8
0
 62
0
370
-1
  6
BYLAYER
100
AcDbEntity
100
AcDbPolyline
 90
2
 70
0
 43
3.0
 10
388.0000314675272648
 20
-30.0000020675361725
 30
0.0
 10
390.00003156252194
 20
-30.0000020675361725
 30
0.0
  0
LWPOLYLINE
  5
214
  8
0
 62
0
370
-1
  6
BYLAYER
100
AcDbEntity
100
AcDbPolyline
 90
2
 70
0
 43
3.0
 10
390.00003156252194
 20
-30.0000020675361725
 30
0.0
 10
392.0000316575169563
 20
-30.0000020675361725
 30
0.0
  0
LWPOLYLINE
  5
215
  8
0
 62
0
370
-1
  6
BYLAYER
100
AcDbEntity
100
AcDbPolyline
 90
2
 70
0
 43
3.0
 10
392.0000316575169563
 20
-30.0000020675361725
 30
0.0
 10
394.0000317525118589
 20
-30.0000020675361725
 30
0.0
  0
LWPOLYLINE
  5
216
  8
0
 62
0
370
-1
  6
BYLAYER
100
AcDbEntity
100
AcDbPolyline
 90
2
 70
0
 43
3.0
 10
394.0000317525118589
 20
-30.0000020675361725
 30
0.0
 10
396.0000318475068752
 20
-30.0000020675361725
 30
0.0
  0
LWPOLYLINE
  5
217
  8
0
 62
0
370
-1
  6
BYLAYER
100
AcDbEntity
100
AcDbPolyline
 90
2
 70
0
 43
3.0
 10
396.0000318475068752
 20
-30.0000020675361725
 30
0.0
 10
398.0000319425016642
 20
-30.0000020675361725
 30
0.0
  0
LWPOLYLINE
  5
218
  8
0
 62
0
370
-1
  6
BYLAYER
100
AcDbEntity
100
AcDbPolyline
 90
2
 70
0
 43
3.0
 10
398.0000319425016642
 20
-30.0000020675361725
 30
0.0
 10
398.0000319425016642
 20
-24.6666686160973825
 30
0.0
  0
LWPOLYLINE
  5
219
  8
0
 62
0
370
-1
  6
BYLAYER
100
AcDbEntity
100
AcDbPolyline
 90
2
 70
0
 43
3.0
 10
398.0000319425016642
 20
-24.6666686160973825
 30
0.0
 10
398.0000319425016642
 20
-19.3333354295680948
 30
0.0
  0
LWPOLYLINE
  5
21A
  8
0
 62
0
370
-1
  6
BYLAYER
100
AcDbEntity
100
AcDbPolyline
 90
2
 70
0
 43
3.0
 10
398.0000319425016642
 20
-19.3333354295680948
 30
0.0
 10
398.0000319425016642
 20
-14.0000024549664133
 30
0.0
  0
LWPOLYLINE
  5
21B
  8
0
 62
0
370
-1
  6
BYLAYER
100
AcDbEntity
100
AcDbPolyline
 90
2
 70
0
 43
3.0
 10
398.0000319425016642
 20
-14.0000024549664133
 30
0.0
 10
398.0000319425017778
 20
-8.6666696393104345
 30
0.0
  0
LWPOLYLINE
  5
21C
  8
0
 62
0
370
-1
  6
BYLAYER
100
AcDbEntity
100
AcDbPolyline
 90
2
 70
0
 43
3.0
 10
398.0000319425017778
 20
-8.6666696393104345
 30
0.0
 10
398.0000319425016642
 20
-3.333336929618298
 30
0.0
  0
LWPOLYLINE
  5
21D
  8
0
 62
0
370
-1
  6
BYLAYER
100
AcDbEntity
100
AcDbPolyline
 90
2
 70
0
 43
3.0
 10
398.0000319425016642
 20
-3.333336929618298
 30
0.0
 10
398.0000319425016642
 20
1.9999957270919708
 30
0.0
  0
LWPOLYLINE
  5
21E
  8
0
 62
0
370
-1
  6
BYLAYER
100
AcDbEntity
100
AcDbPolyline
 90
2
 70
0
 43
3.0
 10
398.0000319425016642
 20
1.9999957270919708
 30
0.0
 10
398.0000319425016642
 20
7.3333283838022254
 30
0.0
  0
LWPOLYLINE
  5
21F
  8
0
 62
0
370
-1
  6
BYLAYER
100
AcDbEntity
100
AcDbPolyline
 90
2
 70
0
 43
3.0
 10
398.0000319425016642
 20
7.3333283838022254
 30
0.0
 10
398.0000319425016642
 20
12.6666610934943833
 30
0.0
  0
LWPOLYLINE
  5
220
  8
0
 62
0
370
-1
  6
BYLAYER
100
AcDbEntity
100
AcDbPolyline
 90
2
 70
0
 43
3.0
 10
398.0000319425016642
 20
12.6666610934943833
 30
0.0
 10
398.0000319425016642
 20
17.9999939091503478
 30
0.0
  0
LWPOLYLINE
  5
221
  8
0
 62
0
370
-1
  6
BYLAYER
100
AcDbEntity
100
AcDbPolyline
 90
2
 70
0
 43
3.0
 10
398.0000319425016642
 20
17.9999939091503478
 30
0.0
 10
398.0000319425016642
 20
23.3333268837520365
 30
0.0
  0
LWPOLYLINE
  5
222
  8
0
 62
0
370
-1
  6
BYLAYER
100
AcDbEntity
100
AcDbPolyline
 90
2
 70
0
 43
3.0
 10
398.0000319425016642
 20
23.3333268837520365
 30
0.0
 10
398.0000319425016642
 20
28.6666600702813099
 30
0.0
  0
LWPOLYLINE
  5
223
  8
0
 62
0
370
-1
  6
BYLAYER
100
AcDbEntity
100
AcDbPolyline
 90
2
 70
0
 43
3.0
 10
398.0000319425016642
 20
28.6666600702813099
 30
0.0
 10
398.0000319425016642
 20
33.9999935217201141
 30
0.0
  0
LWPOLYLINE
  5
224
  8
0
 62
0
370
-1
  6
BYLAYER
100
AcDbEntity
100
AcDbPolyline
 90
2
 70
0
 43
3.0
 10
398.0000319425016642
 20
33.9999935217201141
 30
0.0
 10
396.0000318475067616
 20
33.9999935217200999
 30
0.0
  0
LWPOLYLINE
  5
225
  8
0
 62
0
370
-1
  6
BYLAYER
100
AcDbEntity
100
AcDbPolyline
 90
2
 70
0
 43
3.0
 10
396.0000318475067616
 20
33.9999935217200999
 30
0.0
 10
394.0000317525118589
 20
33.9999935217201283
 30
0.0
  0
LWPOLYLINE
  5
226
  8
0
 62
0
370
-1
  6
BYLAYER
100
AcDbEntity
100
AcDbPolyline
 90
2
 70
0
 43
3.0
 10
394.0000317525118589
 20
33.9999935217201283
 30
0.0
 10
392.0000316575169563
 20
33.9999935217201141
 30
0.0
  0
LWPOLYLINE
  5
227
  8
0
 62
0
370
-1
  6
BYLAYER
100
AcDbEntity
100
AcDbPolyline
 90
2
 70
0
 43
3.0
 10
392.0000316575169563
 20
33.9999935217201141
 30
0.0
 10
390.0000315625222811
 20
33.9999935217201141
 30
0.0
  0
LWPOLYLINE
  5
228
  8
0
 62
0
370
-1
  6
BYLAYER
100
AcDbEntity
100
AcDbPolyline
 90
2
 70
0
 43
3.0
 10
390.0000315625222811
 20
33.9999935217201141
 30
0.0
 10
388.0000314675270374
 20
33.9999935217201141
 30
0.0
  0
LWPOLYLINE
  5
229
  8
0
 62
0
370
-1
  6
BYLAYER
100
AcDbEntity
100
AcDbPolyline
 90
2
 70
0
 43
3.0
 10
388.0000314675270374
 20
33.9999935217201141
 30
0.0
 10
386.0000313725322485
 20
33.9999935217201141
 30
0.0
  0
LWPOLYLINE
  5
22A
  8
0
 62
0
370
-1
  6
BYLAYER
100
AcDbEntity
100
AcDbPolyline
 90
2
 70
0
 43
3.0
 10
386.0000313725322485
 20
33.9999935217201141
 30
0.0
 10
384.0000312775373459
 20
33.9999935217201141
 30
0.0
  0
LWPOLYLINE
  5
22B
  8
0
 62
0
370
-1
  6
BYLAYER
100
AcDbEntity
100
AcDbPolyline
 90
2
 70
0
 43
3.0
 10
384.0000312775373459
 20
33.9999935217201141
 30
0.0
 10
382.0000311825426706
 20
33.9999935217201141
 30
0.0
  0
LWPOLYLINE
  5
22C
  8
0
 62
0
370
-1
  6
BYLAYER
100
AcDbEntity
100
AcDbPolyline
 90
2
 70
0
 43
3.0
 10
382.0000311825426706
 20
33.9999935217201141
 30
0.0
 10
380.0000310875475407
 20
33.9999935217201141
 30
0.0
  0
LWPOLYLINE
  5
22D
  8
0
 62
0
370
-1
  6
BYLAYER
100
AcDbEntity
100
AcDbPolyline
 90
2
 70
0
 43
3.0
 10
380.0000310875475407
 20
33.9999935217201141
 30
0.0
 10
378.0000309925526381
 20
33.9999935217201141
 30
0.0
  0
LWPOLYLINE
  5
22E
  8
0
 62
0
370
-1
  6
BYLAYER
100
AcDbEntity
100
AcDbPolyline
 90
2
 70
0
 43
3.0
 10
378.0000309925526381
 20
33.9999935217201141
 30
0.0
 10
376.0000308975578491
 20
33.9999935217201141
 30
0.0
  0
LWPOLYLINE
  5
22F
  8
0
 62
0
370
-1
  6
BYLAYER
100
AcDbEntity
100
AcDbPolyline
 90
2
 70
0
 43
3.0
 10
376.0000308975578491
 20
33.9999935217201141
 30
0.0
 10
374.0000308025628328
 20
33.9999935217201141
 30
0.0
  0
LWPOLYLINE
  5
230
  8
0
 62
0
370
-1
  6
BYLAYER
100
AcDbEntity
100
AcDbPolyline
 90
2
 70
0
 43
3.0
 10
374.0000308025628328
 20
33.9999935217201141
 30
0.0
 10
374.0000308025628328
 20
28.6666600702812957
 30
0.0
  0
LWPOLYLINE
  5
231
  8
0
 62
0
370
-1
  6
BYLAYER
100
AcDbEntity
100
AcDbPolyline
 90
2
 70
0
 43
3.0
 10
374.0000308025628328
 20
28.6666600702812957
 30
0.0
 10
374.0000308025628328
 20
23.3333268837520507
 30
0.0
  0
LWPOLYLINE
  5
232
  8
0
 62
0
370
-1
  6
BYLAYER
100
AcDbEntity
100
AcDbPolyline
 90
2
 70
0
 43
3.0
 10
374.0000308025628328
 20
23.3333268837520507
 30
0.0
 10
374.0000308025628328
 20
17.9999939091503478
 30
0.0
  0
LWPOLYLINE
  5
233
  8
0
 62
0
370
-1
  6
BYLAYER
100
AcDbEntity
100
AcDbPolyline
 90
2
 70
0
 43
3.0
 10
374.0000308025628328
 20
17.9999939091503478
 30
0.0
 10
374.0000308025629465
 20
12.6666610934943975
 30
0.0
  0
LWPOLYLINE
  5
234
  8
0
 62
0
370
-1
  6
BYLAYER
100
AcDbEntity
100
AcDbPolyline
 90
2
 70
0
 43
3.0
 10
374.0000308025629465
 20
12.6666610934943975
 30
0.0
 10
374.0000308025628328
 20
7.3333283838022112
 30
0.0
  0
LWPOLYLINE
  5
235
  8
0
 62
0
370
-1
  6
BYLAYER
100
AcDbEntity
100
AcDbPolyline
 90
2
 70
0
 43
3.0
 10
374.0000308025628328
 20
7.3333283838022112
 30
0.0
 10
374.0000308025628328
 20
1.9999957270919708
 30
0.0
  0
LWPOLYLINE
  5
236
  8
0
 62
0
370
-1
  6
BYLAYER
100
AcDbEntity
100
AcDbPolyline
 90
2
 70
0
 43
3.0
 10
374.0000308025628328
 20
1.9999957270919708
 30
0.0
 10
374.0000308025628328
 20
-3.3333369296182909
 30
0.0
  0
LWPOLYLINE
  5
237
  8
0
 62
0
370
-1
  6
BYLAYER
100
AcDbEntity
100
AcDbPolyline
 90
2
 70
0
 43
3.0
 10
374.0000308025628328
 20
-3.3333369296182909
 30
0.0
 10
374.0000308025628328
 20
-8.6666696393104345
 30
0.0
  0
LWPOLYLINE
  5
238
  8
0
 62
0
370
-1
  6
BYLAYER
100
AcDbEntity
100
AcDbPolyline
 90
2
 70
0
 43
3.0
 10
374.0000308025628328
 20
-8.6666696393104345
 30
0.0
 10
374.0000308025628328
 20
-14.0000024549664133
 30
0.0
  0
LWPOLYLINE
  5
239
  8
0
 62
0
370
-1
  6
BYLAYER
100
AcDbEntity
100
AcDbPolyline
 90
2
 70
0
 43
3.0
 10
374.0000308025628328
 20
-14.0000024549664133
 30
0.0
 10
374.0000308025628328
 20
-19.3333354295681019
 30
0.0
  0
LWPOLYLINE
  5
23A
  8
0
 62
0
370
-1
  6
BYLAYER
100
AcDbEntity
100
AcDbPolyline
 90
2
 70
0
 43
3.0
 10
374.0000308025628328
 20
-19.3333354295681019
 30
0.0
 10
374.0000308025628328
 20
-24.6666686160973683
 30
0.0
  0
LWPOLYLINE
  5
23B
  8
0
 62
0
370
-1
  6
BYLAYER
100
AcDbEntity
100
AcDbPolyline
 90
2
 70
0
 43
3.0
 10
374.0000308025628328
 20
-24.6666686160973683
 30
0.0
 10
374.0000308025628328
 20
-30.0000020675361725
 30
0.0
  0
LWPOLYLINE
  5
23C
  8
0
 62
0
370
-1
  6
BYLAYER
100
AcDbEntity
100
AcDbPolyline
 90
2
 70
0
 43
3.0
 10
374.0000308025628328
 20
-30.0000020675361725
 30
0.0
 10
374.0000308025628328
 20
-30.0000020675361725
 30
0.0
  0
LWPOLYLINE
  5
23D
  8
0
 62
0
370
-1
  6
BYLAYER
100
AcDbEntity
100
AcDbPolyline
 90
2
 70
0
 43
3.0
 10
374.0000308025628328
 20
-30.0000020675361725
 30
0.0
 10
374.0000308025628328
 20
-30.0000020675361725
 30
0.0
  0
LWPOLYLINE
  5
23E
  8
0
 62
0
370
-1
  6
BYLAYER
100
AcDbEntity
100
AcDbPolyline
 90
2
 70
0
 43
6.0
 10
30.0000144634395838
 20
2.5199961490183185
 30
0.0
 10
30.0000144634395838
 20
2.5199961490183185
 30
0.0
  0
LWPOLYLINE
  5
23F
  8
0
 62
0
370
-1
  6
BYLAYER
100
AcDbEntity
100
AcDbPolyline
 90
2
 70
0
 43
6.0
 10
30.0000144634395838
 20
2.5199961490183185
 30
0.0
 10
58.2246850132723921
 20
2.4766630233581708
 30
0.0
  0
LWPOLYLINE
  5
240
  8
0
 62
0
370
-1
  6
BYLAYER
100
AcDbEntity
100
AcDbPolyline
 90
2
 70
0
 43
6.0
 10
58.2246850132723921
 20
2.4766630233581708
 30
0.0
 10
86.4493534438290681
 20
2.4333297652432861
 30
0.0
  0
LWPOLYLINE
  5
241
  8
0
 62
0
370
-1
  6
BYLAYER
100
AcDbEntity
100
AcDbPolyline
 90
2
 70
0
 43
6.0
 10
86.4493534438290681
 20
2.4333297652432861
 30
0.0
 10
114.6740201789644971
 20
2.3899964011645736
 30
0.0
  0
LWPOLYLINE
  5
242
  8
0
 62
0
370
-1
  6
BYLAYER
100
AcDbEntity
100
AcDbPolyline
 90
2
 70
0
 43
6.0
 10
114.6740201789644971
 20
2.3899964011645736
 30
0.0
 10
142.898685642534133
 20
2.3466629576130345
 30
0.0
  0
LWPOLYLINE
  5
243
  8
0
 62
0
370
-1
  6
BYLAYER
100
AcDbEntity
100
AcDbPolyline
 90
2
 70
0
 43
6.0
 10
142.898685642534133
 20
2.3466629576130345
 30
0.0
 10
171.1233502583929749
 20
2.3033294610795423
 30
0.0
  0
LWPOLYLINE
  5
244
  8
0
 62
0
370
-1
  6
BYLAYER
100
AcDbEntity
100
AcDbPolyline
 90
2
 70
0
 43
6.0
 10
171.1233502583929749
 20
2.3033294610795423
 30
0.0
 10
199.3480144503969314
 20
2.2599959380551411
 30
0.0
  0
LWPOLYLINE
  5
245
  8
0
 62
0
370
-1
  6
BYLAYER
100
AcDbEntity
100
AcDbPolyline
 90
2
 70
0
 43
6.0
 10
199.3480144503969314
 20
2.2599959380551411
 30
0.0
 10
227.5726786424008878
 20
2.2166624150307399
 30
0.0
  0
LWPOLYLINE
  5
246
  8
0
 62
0
370
-1
  6
BYLAYER
100
AcDbEntity
100
AcDbPolyline
 90
2
 70
0
 43
6.0
 10
227.5726786424008878
 20
2.2166624150307399
 30
0.0
 10
255.7973432582598434
 20
2.1733289184972762
 30
0.0
  0
LWPOLYLINE
  5
247
  8
0
 62
0
370
-1
  6
BYLAYER
100
AcDbEntity
100
AcDbPolyline
 90
2
 70
0
 43
6.0
 10
255.7973432582598434
 20
2.1733289184972762
 30
0.0
 10
284.0220087218294793
 20
2.1299954749457157
 30
0.0
  0
LWPOLYLINE
  5
248
  8
0
 62
0
370
-1
  6
BYLAYER
100
AcDbEntity
100
AcDbPolyline
 90
2
 70
0
 43
6.0
 10
284.0220087218294793
 20
2.1299954749457157
 30
0.0
 10
312.2466754569647946
 20
2.0866621108670032
 30
0.0
  0
LWPOLYLINE
  5
249
  8
0
 62
0
370
-1
  6
BYLAYER
100
AcDbEntity
100
AcDbPolyline
 90
2
 70
0
 43
6.0
 10
312.2466754569647946
 20
2.0866621108670032
 30
0.0
 10
340.4713438875215843
 20
2.0433288527521185
 30
0.0
  0
LWPOLYLINE
  5
24A
  8
0
 62
0
370
-1
  6
BYLAYER
100
AcDbEntity
100
AcDbPolyline
 90
2
 70
0
 43
6.0
 10
340.4713438875215843
 20
2.0433288527521185
 30
0.0
 10
368.6960144373542789
 20
1.9999957270919708
 30
0.0
  0
LWPOLYLINE
  5
24B
  8
0
 62
0
370
-1
  6
BYLAYER
100
AcDbEntity
100
AcDbPolyline
 90
2
 70
0
 43
3.0
 10
-21.9999880064278841
 20
-29.1400015164540207
 30
0.0
 10
-21.9999880064278841
 20
-29.1400015164540207
 30
0.0
  0
LWPOLYLINE
  5
24C
  8
0
 62
0
370
-1
  6
BYLAYER
100
AcDbEntity
100
AcDbPolyline
 90
2
 70
0
 43
3.0
 10
-21.9999880064278841
 20
-29.1400015164540207
 30
0.0
 10
-19.9999879114329815
 20
-29.1400015164540207
 30
0.0
  0
LWPOLYLINE
  5
24D
  8
0
 62
0
370
-1
  6
BYLAYER
100
AcDbEntity
100
AcDbPolyline
 90
2
 70
0
 43
3.0
 10
-19.9999879114329815
 20
-29.1400015164540207
 30
0.0
 10
-17.9999878164380789
 20
-29.1400015164540207
 30
0.0
  0
LWPOLYLINE
  5
24E
  8
0
 62
0
370
-1
  6
BYLAYER
100
AcDbEntity
100
AcDbPolyline
 90
2
 70
0
 43
3.0
 10
-17.9999878164380789
 20
-29.1400015164540207
 30
0.0
 10
-15.9999877214431763
 20
-29.1400015164540207
 30
0.0
  0
LWPOLYLINE
  5
24F
  8
0
 62
0
370
-1
  6
BYLAYER
100
AcDbEntity
100
AcDbPolyline
 90
2
 70
0
 43
3.0
 10
-15.9999877214431763
 20
-29.1400015164540207
 30
0.0
 10
-13.9999876264482168
 20
-29.1400015164540171
 30
0.0
  0
LWPOLYLINE
  5
250
  8
0
 62
0
370
-1
  6
BYLAYER
100
AcDbEntity
100
AcDbPolyline
 90
2
 70
0
 43
3.0
 10
-13.9999876264482168
 20
-29.1400015164540171
 30
0.0
 10
-11.9999875314534279
 20
-29.1400015164540278
 30
0.0
  0
LWPOLYLINE
  5
251
  8
0
 62
0
370
-1
  6
BYLAYER
100
AcDbEntity
100
AcDbPolyline
 90
2
 70
0
 43
3.0
 10
-11.9999875314534279
 20
-29.1400015164540278
 30
0.0
 10
-9.9999874364584684
 20
-29.1400015164540207
 30
0.0
  0
LWPOLYLINE
  5
252
  8
0
 62
0
370
-1
  6
BYLAYER
100
AcDbEntity
100
AcDbPolyline
 90
2
 70
0
 43
3.0
 10
-9.9999874364584684
 20
-29.1400015164540207
 30
0.0
 10
-7.9999873414635658
 20
-29.1400015164540207
 30
0.0
  0
LWPOLYLINE
  5
253
  8
0
 62
0
370
-1
  6
BYLAYER
100
AcDbEntity
100
AcDbPolyline
 90
2
 70
0
 43
3.0
 10
-7.9999873414635658
 20
-29.1400015164540207
 30
0.0
 10
-5.9999872464686632
 20
-29.1400015164540207
 30
0.0
  0
LWPOLYLINE
  5
254
  8
0
 62
0
370
-1
  6
BYLAYER
100
AcDbEntity
100
AcDbPolyline
 90
2
 70
0
 43
3.0
 10
-5.9999872464686632
 20
-29.1400015164540207
 30
0.0
 10
-3.9999871514737606
 20
-29.1400015164540207
 30
0.0
  0
LWPOLYLINE
  5
255
  8
0
 62
0
370
-1
  6
BYLAYER
100
AcDbEntity
100
AcDbPolyline
 90
2
 70
0
 43
3.0
 10
-3.9999871514737606
 20
-29.1400015164540207
 30
0.0
 10
-1.9999870564789717
 20
-29.1400015164540207
 30
0.0
  0
LWPOLYLINE
  5
256
  8
0
 62
0
370
-1
  6
BYLAYER
100
AcDbEntity
100
AcDbPolyline
 90
2
 70
0
 43
3.0
 10
-1.9999870564789717
 20
-29.1400015164540207
 30
0.0
 10
0.0000130385160446
 20
-29.1400015164540207
 30
0.0
  0
LWPOLYLINE
  5
257
  8
0
 62
0
370
-1
  6
BYLAYER
100
AcDbEntity
100
AcDbPolyline
 90
2
 70
0
 43
3.0
 10
0.0000130385160446
 20
-29.1400015164540207
 30
0.0
 10
2.0000131335109472
 20
-29.1400015164540207
 30
0.0
  0
LWPOLYLINE
  5
258
  8
0
 62
0
370
-1
  6
BYLAYER
100
AcDbEntity
100
AcDbPolyline
 90
2
 70
0
 43
3.0
 10
2.0000131335109472
 20
-29.1400015164540207
 30
0.0
 10
2.0000131335109472
 20
-23.8066680650152236
 30
0.0
  0
LWPOLYLINE
  5
259
  8
0
 62
0
370
-1
  6
BYLAYER
100
AcDbEntity
100
AcDbPolyline
 90
2
 70
0
 43
3.0
 10
2.0000131335109472
 20
-23.8066680650152236
 30
0.0
 10
2.0000131335109472
 20
-18.473334878485943
 30
0.0
  0
LWPOLYLINE
  5
25A
  8
0
 62
0
370
-1
  6
BYLAYER
100
AcDbEntity
100
AcDbPolyline
 90
2
 70
0
 43
3.0
 10
2.0000131335109472
 20
-18.473334878485943
 30
0.0
 10
2.0000131335109472
 20
-13.1400019038842615
 30
0.0
  0
LWPOLYLINE
  5
25B
  8
0
 62
0
370
-1
  6
BYLAYER
100
AcDbEntity
100
AcDbPolyline
 90
2
 70
0
 43
3.0
 10
2.0000131335109472
 20
-13.1400019038842615
 30
0.0
 10
2.0000131335110041
 20
-7.8066690882282828
 30
0.0
  0
LWPOLYLINE
  5
25C
  8
0
 62
0
370
-1
  6
BYLAYER
100
AcDbEntity
100
AcDbPolyline
 90
2
 70
0
 43
3.0
 10
2.0000131335110041
 20
-7.8066690882282828
 30
0.0
 10
2.0000131335109472
 20
-2.4733363785361462
 30
0.0
  0
LWPOLYLINE
  5
25D
  8
0
 62
0
370
-1
  6
BYLAYER
100
AcDbEntity
100
AcDbPolyline
 90
2
 70
0
 43
3.0
 10
2.0000131335109472
 20
-2.4733363785361462
 30
0.0
 10
2.0000131335109472
 20
2.8599962781741226
 30
0.0
  0
LWPOLYLINE
  5
25E
  8
0
 62
0
370
-1
  6
BYLAYER
100
AcDbEntity
100
AcDbPolyline
 90
2
 70
0
 43
3.0
 10
2.0000131335109472
 20
2.8599962781741226
 30
0.0
 10
2.0000131335109472
 20
8.1933289348843772
 30
0.0
  0
LWPOLYLINE
  5
25F
  8
0
 62
0
370
-1
  6
BYLAYER
100
AcDbEntity
100
AcDbPolyline
 90
2
 70
0
 43
3.0
 10
2.0000131335109472
 20
8.1933289348843772
 30
0.0
 10
2.0000131335109472
 20
13.5266616445765351
 30
0.0
  0
LWPOLYLINE
  5
260
  8
0
 62
0
370
-1
  6
BYLAYER
100
AcDbEntity
100
AcDbPolyline
 90
2
 70
0
 43
3.0
 10
2.0000131335109472
 20
13.5266616445765351
 30
0.0
 10
2.0000131335109472
 20
18.8599944602324996
 30
0.0
  0
LWPOLYLINE
  5
261
  8
0
 62
0
370
-1
  6
BYLAYER
100
AcDbEntity
100
AcDbPolyline
 90
2
 70
0
 43
3.0
 10
2.0000131335109472
 20
18.8599944602324996
 30
0.0
 10
2.0000131335109472
 20
24.1933274348341882
 30
0.0
  0
LWPOLYLINE
  5
262
  8
0
 62
0
370
-1
  6
BYLAYER
100
AcDbEntity
100
AcDbPolyline
 90
2
 70
0
 43
3.0
 10
2.0000131335109472
 20
24.1933274348341882
 30
0.0
 10
2.0000131335109472
 20
29.5266606213634617
 30
0.0
  0
LWPOLYLINE
  5
263
  8
0
 62
0
370
-1
  6
BYLAYER
100
AcDbEntity
100
AcDbPolyline
 90
2
 70
0
 43
3.0
 10
2.0000131335109472
 20
29.5266606213634617
 30
0.0
 10
2.0000131335109472
 20
34.8599940728022659
 30
0.0
  0
LWPOLYLINE
  5
264
  8
0
 62
0
370
-1
  6
BYLAYER
100
AcDbEntity
100
AcDbPolyline
 90
2
 70
0
 43
3.0
 10
2.0000131335109472
 20
34.8599940728022659
 30
0.0
 10
0.0000130385159878
 20
34.8599940728022517
 30
0.0
  0
LWPOLYLINE
  5
265
  8
0
 62
0
370
-1
  6
BYLAYER
100
AcDbEntity
100
AcDbPolyline
 90
2
 70
0
 43
3.0
 10
0.0000130385159878
 20
34.8599940728022517
 30
0.0
 10
-1.999987056478858
 20
34.8599940728022801
 30
0.0
  0
LWPOLYLINE
  5
266
  8
0
 62
0
370
-1
  6
BYLAYER
100
AcDbEntity
100
AcDbPolyline
 90
2
 70
0
 43
3.0
 10
-1.999987056478858
 20
34.8599940728022801
 30
0.0
 10
-3.9999871514737606
 20
34.8599940728022659
 30
0.0
  0
LWPOLYLINE
  5
267
  8
0
 62
0
370
-1
  6
BYLAYER
100
AcDbEntity
100
AcDbPolyline
 90
2
 70
0
 43
3.0
 10
-3.9999871514737606
 20
34.8599940728022659
 30
0.0
 10
-5.9999872464685495
 20
34.8599940728022659
 30
0.0
  0
LWPOLYLINE
  5
268
  8
0
 62
0
370
-1
  6
BYLAYER
100
AcDbEntity
100
AcDbPolyline
 90
2
 70
0
 43
3.0
 10
-5.9999872464685495
 20
34.8599940728022659
 30
0.0
 10
-7.9999873414636795
 20
34.8599940728022659
 30
0.0
  0
LWPOLYLINE
  5
269
  8
0
 62
0
370
-1
  6
BYLAYER
100
AcDbEntity
100
AcDbPolyline
 90
2
 70
0
 43
3.0
 10
-7.9999873414636795
 20
34.8599940728022659
 30
0.0
 10
-9.9999874364584684
 20
34.8599940728022659
 30
0.0
  0
LWPOLYLINE
  5
26A
  8
0
 62
0
370
-1
  6
BYLAYER
100
AcDbEntity
100
AcDbPolyline
 90
2
 70
0
 43
3.0
 10
-9.9999874364584684
 20
34.8599940728022659
 30
0.0
 10
-11.999987531453371
 20
34.8599940728022659
 30
0.0
  0
LWPOLYLINE
  5
26B
  8
0
 62
0
370
-1
  6
BYLAYER
100
AcDbEntity
100
AcDbPolyline
 90
2
 70
0
 43
3.0
 10
-11.999987531453371
 20
34.8599940728022659
 30
0.0
 10
-13.9999876264482737
 20
34.8599940728022659
 30
0.0
  0
LWPOLYLINE
  5
26C
  8
0
 62
0
370
-1
  6
BYLAYER
100
AcDbEntity
100
AcDbPolyline
 90
2
 70
0
 43
3.0
 10
-13.9999876264482737
 20
34.8599940728022659
 30
0.0
 10
-15.9999877214431763
 20
34.8599940728022659
 30
0.0
  0
LWPOLYLINE
  5
26D
  8
0
 62
0
370
-1
  6
BYLAYER
100
AcDbEntity
100
AcDbPolyline
 90
2
 70
0
 43
3.0
 10
-15.9999877214431763
 20
34.8599940728022659
 30
0.0
 10
-17.9999878164380789
 20
34.8599940728022659
 30
0.0
  0
LWPOLYLINE
  5
26E
  8
0
 62
0
370
-1
  6
BYLAYER
100
AcDbEntity
100
AcDbPolyline
 90
2
 70
0
 43
3.0
 10
-17.9999878164380789
 20
34.8599940728022659
 30
0.0
 10
-19.9999879114329815
 20
34.8599940728022659
 30
0.0
  0
LWPOLYLINE
  5
26F
  8
0
 62
0
370
-1
  6
BYLAYER
100
AcDbEntity
100
AcDbPolyline
 90
2
 70
0
 43
3.0
 10
-19.9999879114329815
 20
34.8599940728022659
 30
0.0
 10
-21.9999880064278841
 20
34.8599940728022659
 30
0.0
  0
LWPOLYLINE
  5
270
  8
0
 62
0
370
-1
  6
BYLAYER
100
AcDbEntity
100
AcDbPolyline
 90
2
 70
0
 43
3.0
 10
-21.9999880064278841
 20
34.8599940728022659
 30
0.0
 10
-21.9999880064278841
 20
29.5266606213634475
 30
0.0
  0
LWPOLYLINE
  5
271
  8
0
 62
0
370
-1
  6
BYLAYER
100
AcDbEntity
100
AcDbPolyline
 90
2
 70
0
 43
3.0
 10
-21.9999880064278841
 20
29.5266606213634475
 30
0.0
 10
-21.9999880064278841
 20
24.1933274348342024
 30
0.0
  0
LWPOLYLINE
  5
272
  8
0
 62
0
370
-1
  6
BYLAYER
100
AcDbEntity
100
AcDbPolyline
 90
2
 70
0
 43
3.0
 10
-21.9999880064278841
 20
24.1933274348342024
 30
0.0
 10
-21.9999880064278841
 20
18.8599944602324996
 30
0.0
  0
LWPOLYLINE
  5
273
  8
0
 62
0
370
-1
  6
BYLAYER
100
AcDbEntity
100
AcDbPolyline
 90
2
 70
0
 43
3.0
 10
-21.9999880064278841
 20
18.8599944602324996
 30
0.0
 10
-21.9999880064278841
 20
13.5266616445765493
 30
0.0
  0
LWPOLYLINE
  5
274
  8
0
 62
0
370
-1
  6
BYLAYER
100
AcDbEntity
100
AcDbPolyline
 90
2
 70
0
 43
3.0
 10
-21.9999880064278841
 20
13.5266616445765493
 30
0.0
 10
-21.9999880064278841
 20
8.193328934884363
 30
0.0
  0
LWPOLYLINE
  5
275
  8
0
 62
0
370
-1
  6
BYLAYER
100
AcDbEntity
100
AcDbPolyline
 90
2
 70
0
 43
3.0
 10
-21.9999880064278841
 20
8.193328934884363
 30
0.0
 10
-21.9999880064278841
 20
2.8599962781741226
 30
0.0
  0
LWPOLYLINE
  5
276
  8
0
 62
0
370
-1
  6
BYLAYER
100
AcDbEntity
100
AcDbPolyline
 90
2
 70
0
 43
3.0
 10
-21.9999880064278841
 20
2.8599962781741226
 30
0.0
 10
-21.9999880064278841
 20
-2.4733363785361391
 30
0.0
  0
LWPOLYLINE
  5
277
  8
0
 62
0
370
-1
  6
BYLAYER
100
AcDbEntity
100
AcDbPolyline
 90
2
 70
0
 43
3.0
 10
-21.9999880064278841
 20
-2.4733363785361391
 30
0.0
 10
-21.9999880064278841
 20
-7.8066690882282828
 30
0.0
  0
LWPOLYLINE
  5
278
  8
0
 62
0
370
-1
  6
BYLAYER
100
AcDbEntity
100
AcDbPolyline
 90
2
 70
0
 43
3.0
 10
-21.9999880064278841
 20
-7.8066690882282828
 30
0.0
 10
-21.9999880064278841
 20
-13.1400019038842615
 30
0.0
  0
LWPOLYLINE
  5
279
  8
0
 62
0
370
-1
  6
BYLAYER
100
AcDbEntity
100
AcDbPolyline
 90
2
 70
0
 43
3.0
 10
-21.9999880064278841
 20
-13.1400019038842615
 30
0.0
 10
-21.9999880064278841
 20
-18.4733348784859501
 30
0.0
  0
LWPOLYLINE
  5
27A
  8
0
 62
0
370
-1
  6
BYLAYER
100
AcDbEntity
100
AcDbPolyline
 90
2
 70
0
 43
3.0
 10
-21.9999880064278841
 20
-18.4733348784859501
 30
0.0
 10
-21.9999880064278841
 20
-23.8066680650152165
 30
0.0
  0
LWPOLYLINE
  5
27B
  8
0
 62
0
370
-1
  6
BYLAYER
100
AcDbEntity
100
AcDbPolyline
 90
2
 70
0
 43
3.0
 10
-21.9999880064278841
 20
-23.8066680650152165
 30
0.0
 10
-21.9999880064278841
 20
-29.1400015164540207
 30
0.0
  0
LWPOLYLINE
  5
27C
  8
0
 62
0
370
-1
  6
BYLAYER
100
AcDbEntity
100
AcDbPolyline
 90
2
 70
0
 43
3.0
 10
-21.9999880064278841
 20
-29.1400015164540207
 30
0.0
 10
-21.9999880064278841
 20
-29.1400015164540207
 30
0.0
  0
LWPOLYLINE
  5
27D
  8
0
 62
0
370
-1
  6
BYLAYER
100
AcDbEntity
100
AcDbPolyline
 90
2
 70
0
 43
3.0
 10
-21.9999880064278841
 20
-29.1400015164540207
 30
0.0
 10
-21.9999880064278841
 20
-29.1400015164540207
 30
0.0
  0
LWPOLYLINE
  5
27E
  8
0
 62
0
370
-1
  6
BYLAYER
100
AcDbEntity
100
AcDbPolyline
 90
2
 70
0
 43
3.0
 10
2.0000131335109472
 20
-29.1400015164540207
 30
0.0
 10
2.0000131335109472
 20
-29.1400015164540207
 30
0.0
  0
LWPOLYLINE
  5
27F
  8
0
 62
0
370
-1
  6
BYLAYER
100
AcDbEntity
100
AcDbPolyline
 90
2
 70
0
 43
3.0
 10
2.0000131335109472
 20
-29.1400015164540207
 30
0.0
 10
4.000013228505793
 20
-29.1400015164540207
 30
0.0
  0
LWPOLYLINE
  5
280
  8
0
 62
0
370
-1
  6
BYLAYER
100
AcDbEntity
100
AcDbPolyline
 90
2
 70
0
 43
3.0
 10
4.000013228505793
 20
-29.1400015164540207
 30
0.0
 10
6.0000133235007524
 20
-29.1400015164540207
 30
0.0
  0
LWPOLYLINE
  5
281
  8
0
 62
0
370
-1
  6
BYLAYER
100
AcDbEntity
100
AcDbPolyline
 90
2
 70
0
 43
3.0
 10
6.0000133235007524
 20
-29.1400015164540207
 30
0.0
 10
8.0000134184956551
 20
-29.1400015164540207
 30
0.0
  0
LWPOLYLINE
  5
282
  8
0
 62
0
370
-1
  6
BYLAYER
100
AcDbEntity
100
AcDbPolyline
 90
2
 70
0
 43
3.0
 10
8.0000134184956551
 20
-29.1400015164540207
 30
0.0
 10
10.0000135134906714
 20
-29.1400015164540171
 30
0.0
  0
LWPOLYLINE
  5
283
  8
0
 62
0
370
-1
  6
BYLAYER
100
AcDbEntity
100
AcDbPolyline
 90
2
 70
0
 43
3.0
 10
10.0000135134906714
 20
-29.1400015164540171
 30
0.0
 10
12.0000136084854034
 20
-29.1400015164540278
 30
0.0
  0
LWPOLYLINE
  5
284
  8
0
 62
0
370
-1
  6
BYLAYER
100
AcDbEntity
100
AcDbPolyline
 90
2
 70
0
 43
3.0
 10
12.0000136084854034
 20
-29.1400015164540278
 30
0.0
 10
14.0000137034803629
 20
-29.1400015164540207
 30
0.0
  0
LWPOLYLINE
  5
285
  8
0
 62
0
370
-1
  6
BYLAYER
100
AcDbEntity
100
AcDbPolyline
 90
2
 70
0
 43
3.0
 10
14.0000137034803629
 20
-29.1400015164540207
 30
0.0
 10
16.0000137984752087
 20
-29.1400015164540207
 30
0.0
  0
LWPOLYLINE
  5
286
  8
0
 62
0
370
-1
  6
BYLAYER
100
AcDbEntity
100
AcDbPolyline
 90
2
 70
0
 43
3.0
 10
16.0000137984752087
 20
-29.1400015164540207
 30
0.0
 10
18.0000138934701681
 20
-29.1400015164540207
 30
0.0
  0
LWPOLYLINE
  5
287
  8
0
 62
0
370
-1
  6
BYLAYER
100
AcDbEntity
100
AcDbPolyline
 90
2
 70
0
 43
3.0
 10
18.0000138934701681
 20
-29.1400015164540207
 30
0.0
 10
20.0000139884650707
 20
-29.1400015164540207
 30
0.0
  0
LWPOLYLINE
  5
288
  8
0
 62
0
370
-1
  6
BYLAYER
100
AcDbEntity
100
AcDbPolyline
 90
2
 70
0
 43
3.0
 10
20.0000139884650707
 20
-29.1400015164540207
 30
0.0
 10
22.0000140834598596
 20
-29.1400015164540207
 30
0.0
  0
LWPOLYLINE
  5
289
  8
0
 62
0
370
-1
  6
BYLAYER
100
AcDbEntity
100
AcDbPolyline
 90
2
 70
0
 43
3.0
 10
22.0000140834598596
 20
-29.1400015164540207
 30
0.0
 10
24.0000141784548759
 20
-29.1400015164540207
 30
0.0
  0
LWPOLYLINE
  5
28A
  8
0
 62
0
370
-1
  6
BYLAYER
100
AcDbEntity
100
AcDbPolyline
 90
2
 70
0
 43
3.0
 10
24.0000141784548759
 20
-29.1400015164540207
 30
0.0
 10
26.0000142734497786
 20
-29.1400015164540207
 30
0.0
  0
LWPOLYLINE
  5
28B
  8
0
 62
0
370
-1
  6
BYLAYER
100
AcDbEntity
100
AcDbPolyline
 90
2
 70
0
 43
3.0
 10
26.0000142734497786
 20
-29.1400015164540207
 30
0.0
 10
26.0000142734497786
 20
-23.8066680650152236
 30
0.0
  0
LWPOLYLINE
  5
28C
  8
0
 62
0
370
-1
  6
BYLAYER
100
AcDbEntity
100
AcDbPolyline
 90
2
 70
0
 43
3.0
 10
26.0000142734497786
 20
-23.8066680650152236
 30
0.0
 10
26.0000142734497786
 20
-18.473334878485943
 30
0.0
  0
LWPOLYLINE
  5
28D
  8
0
 62
0
370
-1
  6
BYLAYER
100
AcDbEntity
100
AcDbPolyline
 90
2
 70
0
 43
3.0
 10
26.0000142734497786
 20
-18.473334878485943
 30
0.0
 10
26.0000142734497786
 20
-13.1400019038842615
 30
0.0
  0
LWPOLYLINE
  5
28E
  8
0
 62
0
370
-1
  6
BYLAYER
100
AcDbEntity
100
AcDbPolyline
 90
2
 70
0
 43
3.0
 10
26.0000142734497786
 20
-13.1400019038842615
 30
0.0
 10
26.0000142734498354
 20
-7.8066690882282828
 30
0.0
  0
LWPOLYLINE
  5
28F
  8
0
 62
0
370
-1
  6
BYLAYER
100
AcDbEntity
100
AcDbPolyline
 90
2
 70
0
 43
3.0
 10
26.0000142734498354
 20
-7.8066690882282828
 30
0.0
 10
26.0000142734497786
 20
-2.4733363785361462
 30
0.0
  0
LWPOLYLINE
  5
290
  8
0
 62
0
370
-1
  6
BYLAYER
100
AcDbEntity
100
AcDbPolyline
 90
2
 70
0
 43
3.0
 10
26.0000142734497786
 20
-2.4733363785361462
 30
0.0
 10
26.0000142734497786
 20
2.8599962781741226
 30
0.0
  0
LWPOLYLINE
  5
291
  8
0
 62
0
370
-1
  6
BYLAYER
100
AcDbEntity
100
AcDbPolyline
 90
2
 70
0
 43
3.0
 10
26.0000142734497786
 20
2.8599962781741226
 30
0.0
 10
26.0000142734497786
 20
8.1933289348843772
 30
0.0
  0
LWPOLYLINE
  5
292
  8
0
 62
0
370
-1
  6
BYLAYER
100
AcDbEntity
100
AcDbPolyline
 90
2
 70
0
 43
3.0
 10
26.0000142734497786
 20
8.1933289348843772
 30
0.0
 10
26.0000142734497786
 20
13.5266616445765351
 30
0.0
  0
LWPOLYLINE
  5
293
  8
0
 62
0
370
-1
  6
BYLAYER
100
AcDbEntity
100
AcDbPolyline
 90
2
 70
0
 43
3.0
 10
26.0000142734497786
 20
13.5266616445765351
 30
0.0
 10
26.0000142734497786
 20
18.8599944602324996
 30
0.0
  0
LWPOLYLINE
  5
294
  8
0
 62
0
370
-1
  6
BYLAYER
100
AcDbEntity
100
AcDbPolyline
 90
2
 70
0
 43
3.0
 10
26.0000142734497786
 20
18.8599944602324996
 30
0.0
 10
26.0000142734497786
 20
24.1933274348341882
 30
0.0
  0
LWPOLYLINE
  5
295
  8
0
 62
0
370
-1
  6
BYLAYER
100
AcDbEntity
100
AcDbPolyline
 90
2
 70
0
 43
3.0
 10
26.0000142734497786
 20
24.1933274348341882
 30
0.0
 10
26.0000142734497786
 20
29.5266606213634617
 30
0.0
  0
LWPOLYLINE
  5
296
  8
0
 62
0
370
-1
  6
BYLAYER
100
AcDbEntity
100
AcDbPolyline
 90
2
 70
0
 43
3.0
 10
26.0000142734497786
 20
29.5266606213634617
 30
0.0
 10
26.0000142734497786
 20
34.8599940728022659
 30
0.0
  0
LWPOLYLINE
  5
297
  8
0
 62
0
370
-1
  6
BYLAYER
100
AcDbEntity
100
AcDbPolyline
 90
2
 70
0
 43
3.0
 10
26.0000142734497786
 20
34.8599940728022659
 30
0.0
 10
24.0000141784548191
 20
34.8599940728022517
 30
0.0
  0
LWPOLYLINE
  5
298
  8
0
 62
0
370
-1
  6
BYLAYER
100
AcDbEntity
100
AcDbPolyline
 90
2
 70
0
 43
3.0
 10
24.0000141784548191
 20
34.8599940728022517
 30
0.0
 10
22.0000140834599733
 20
34.8599940728022801
 30
0.0
  0
LWPOLYLINE
  5
299
  8
0
 62
0
370
-1
  6
BYLAYER
100
AcDbEntity
100
AcDbPolyline
 90
2
 70
0
 43
3.0
 10
22.0000140834599733
 20
34.8599940728022801
 30
0.0
 10
20.0000139884650707
 20
34.8599940728022659
 30
0.0
  0
LWPOLYLINE
  5
29A
  8
0
 62
0
370
-1
  6
BYLAYER
100
AcDbEntity
100
AcDbPolyline
 90
2
 70
0
 43
3.0
 10
20.0000139884650707
 20
34.8599940728022659
 30
0.0
 10
18.0000138934702818
 20
34.8599940728022659
 30
0.0
  0
LWPOLYLINE
  5
29B
  8
0
 62
0
370
-1
  6
BYLAYER
100
AcDbEntity
100
AcDbPolyline
 90
2
 70
0
 43
3.0
 10
18.0000138934702818
 20
34.8599940728022659
 30
0.0
 10
16.0000137984751518
 20
34.8599940728022659
 30
0.0
  0
LWPOLYLINE
  5
29C
  8
0
 62
0
370
-1
  6
BYLAYER
100
AcDbEntity
100
AcDbPolyline
 90
2
 70
0
 43
3.0
 10
16.0000137984751518
 20
34.8599940728022659
 30
0.0
 10
14.0000137034803629
 20
34.8599940728022659
 30
0.0
  0
LWPOLYLINE
  5
29D
  8
0
 62
0
370
-1
  6
BYLAYER
100
AcDbEntity
100
AcDbPolyline
 90
2
 70
0
 43
3.0
 10
14.0000137034803629
 20
34.8599940728022659
 30
0.0
 10
12.0000136084855171
 20
34.8599940728022659
 30
0.0
  0
LWPOLYLINE
  5
29E
  8
0
 62
0
370
-1
  6
BYLAYER
100
AcDbEntity
100
AcDbPolyline
 90
2
 70
0
 43
3.0
 10
12.0000136084855171
 20
34.8599940728022659
 30
0.0
 10
10.0000135134905577
 20
34.8599940728022659
 30
0.0
  0
LWPOLYLINE
  5
29F
  8
0
 62
0
370
-1
  6
BYLAYER
100
AcDbEntity
100
AcDbPolyline
 90
2
 70
0
 43
3.0
 10
10.0000135134905577
 20
34.8599940728022659
 30
0.0
 10
8.0000134184956551
 20
34.8599940728022659
 30
0.0
  0
LWPOLYLINE
  5
2A0
  8
0
 62
0
370
-1
  6
BYLAYER
100
AcDbEntity
100
AcDbPolyline
 90
2
 70
0
 43
3.0
 10
8.0000134184956551
 20
34.8599940728022659
 30
0.0
 10
6.0000133235007524
 20
34.8599940728022659
 30
0.0
  0
LWPOLYLINE
  5
2A1
  8
0
 62
0
370
-1
  6
BYLAYER
100
AcDbEntity
100
AcDbPolyline
 90
2
 70
0
 43
3.0
 10
6.0000133235007524
 20
34.8599940728022659
 30
0.0
 10
4.000013228505793
 20
34.8599940728022659
 30
0.0
  0
LWPOLYLINE
  5
2A2
  8
0
 62
0
370
-1
  6
BYLAYER
100
AcDbEntity
100
AcDbPolyline
 90
2
 70
0
 43
3.0
 10
4.000013228505793
 20
34.8599940728022659
 30
0.0
 10
2.0000131335109472
 20
34.8599940728022659
 30
0.0
  0
LWPOLYLINE
  5
2A3
  8
0
 62
0
370
-1
  6
BYLAYER
100
AcDbEntity
100
AcDbPolyline
 90
2
 70
0
 43
3.0
 10
2.0000131335109472
 20
34.8599940728022659
 30
0.0
 10
2.0000131335109472
 20
29.5266606213634475
 30
0.0
  0
LWPOLYLINE
  5
2A4
  8
0
 62
0
370
-1
  6
BYLAYER
100
AcDbEntity
100
AcDbPolyline
 90
2
 70
0
 43
3.0
 10
2.0000131335109472
 20
29.5266606213634475
 30
0.0
 10
2.0000131335109472
 20
24.1933274348342024
 30
0.0
  0
LWPOLYLINE
  5
2A5
  8
0
 62
0
370
-1
  6
BYLAYER
100
AcDbEntity
100
AcDbPolyline
 90
2
 70
0
 43
3.0
 10
2.0000131335109472
 20
24.1933274348342024
 30
0.0
 10
2.0000131335109472
 20
18.8599944602324996
 30
0.0
  0
LWPOLYLINE
  5
2A6
  8
0
 62
0
370
-1
  6
BYLAYER
100
AcDbEntity
100
AcDbPolyline
 90
2
 70
0
 43
3.0
 10
2.0000131335109472
 20
18.8599944602324996
 30
0.0
 10
2.0000131335110041
 20
13.5266616445765493
 30
0.0
  0
LWPOLYLINE
  5
2A7
  8
0
 62
0
370
-1
  6
BYLAYER
100
AcDbEntity
100
AcDbPolyline
 90
2
 70
0
 43
3.0
 10
2.0000131335110041
 20
13.5266616445765493
 30
0.0
 10
2.0000131335109472
 20
8.193328934884363
 30
0.0
  0
LWPOLYLINE
  5
2A8
  8
0
 62
0
370
-1
  6
BYLAYER
100
AcDbEntity
100
AcDbPolyline
 90
2
 70
0
 43
3.0
 10
2.0000131335109472
 20
8.193328934884363
 30
0.0
 10
2.0000131335109472
 20
2.8599962781741226
 30
0.0
  0
LWPOLYLINE
  5
2A9
  8
0
 62
0
370
-1
  6
BYLAYER
100
AcDbEntity
100
AcDbPolyline
 90
2
 70
0
 43
3.0
 10
2.0000131335109472
 20
2.8599962781741226
 30
0.0
 10
2.0000131335109472
 20
-2.4733363785361391
 30
0.0
  0
LWPOLYLINE
  5
2AA
  8
0
 62
0
370
-1
  6
BYLAYER
100
AcDbEntity
100
AcDbPolyline
 90
2
 70
0
 43
3.0
 10
2.0000131335109472
 20
-2.4733363785361391
 30
0.0
 10
2.0000131335109472
 20
-7.8066690882282828
 30
0.0
  0
LWPOLYLINE
  5
2AB
  8
0
 62
0
370
-1
  6
BYLAYER
100
AcDbEntity
100
AcDbPolyline
 90
2
 70
0
 43
3.0
 10
2.0000131335109472
 20
-7.8066690882282828
 30
0.0
 10
2.0000131335109472
 20
-13.1400019038842615
 30
0.0
  0
LWPOLYLINE
  5
2AC
  8
0
 62
0
370
-1
  6
BYLAYER
100
AcDbEntity
100
AcDbPolyline
 90
2
 70
0
 43
3.0
 10
2.0000131335109472
 20
-13.1400019038842615
 30
0.0
 10
2.0000131335109472
 20
-18.4733348784859501
 30
0.0
  0
LWPOLYLINE
  5
2AD
  8
0
 62
0
370
-1
  6
BYLAYER
100
AcDbEntity
100
AcDbPolyline
 90
2
 70
0
 43
3.0
 10
2.0000131335109472
 20
-18.4733348784859501
 30
0.0
 10
2.0000131335109472
 20
-23.8066680650152165
 30
0.0
  0
LWPOLYLINE
  5
2AE
  8
0
 62
0
370
-1
  6
BYLAYER
100
AcDbEntity
100
AcDbPolyline
 90
2
 70
0
 43
3.0
 10
2.0000131335109472
 20
-23.8066680650152165
 30
0.0
 10
2.0000131335109472
 20
-29.1400015164540207
 30
0.0
  0
LWPOLYLINE
  5
2AF
  8
0
 62
0
370
-1
  6
BYLAYER
100
AcDbEntity
100
AcDbPolyline
 90
2
 70
0
 43
3.0
 10
2.0000131335109472
 20
-29.1400015164540207
 30
0.0
 10
2.0000131335109472
 20
-29.1400015164540207
 30
0.0
  0
LWPOLYLINE
  5
2B0
  8
0
 62
0
370
-1
  6
BYLAYER
100
AcDbEntity
100
AcDbPolyline
 90
2
 70
0
 43
3.0
 10
2.0000131335109472
 20
-29.1400015164540207
 30
0.0
 10
2.0000131335109472
 20
-29.1400015164540207
 30
0.0
  0
ENDBLK
  5
2B1
100
AcDbEntity
  8
0
100
AcDbBlockEnd
  0
ENDSEC
  0
SECTION
  2
ENTITIES
  0
LWPOLYLINE
  5
2B2
  8
walls
 62
256
370
-1
  6
BYLAYER
100
AcDbEntity
100
AcDbPolyline
 90
8
 70
1
 10
1.4470000000000001
 20
3.0800000000000001
 30
0.0
 10
-2.0009999999999999
 20
3.0800000000000001
 30
0.0
 10
-2.0009999999999999
 20
-0.464
 30
0.0
 10
-1.196
 20
-0.464
 30
0.0
 10
-1.196
 20
-0.714
 30
0.0
 10
-2.2519999999999998
 20
-0.714
 30
0.0
 10
-2.2519999999999998
 20
3.3300000000000001
 30
0.0
 10
1.4470000000000001
 20
3.3300000000000001
 30
0.0
  0
LWPOLYLINE
  5
2B3
  8
walls
 62
256
370
-1
  6
BYLAYER
100
AcDbEntity
100
AcDbPolyline
 90
4
 70
1
 10
0.931
 20
-0.714
 30
0.0
 10
-0.396
 20
-0.714
 30
0.0
 10
-0.396
 20
-0.464
 30
0.0
 10
0.931
 20
-0.464
 30
0.0
  0
LWPOLYLINE
  5
2B4
  8
walls
 62
256
370
-1
  6
BYLAYER
100
AcDbEntity
100
AcDbPolyline
 90
8
 70
1
 10
2.5600000000000001
 20
-0.714
 30
0.0
 10
1.7310000000000001
 20
-0.714
 30
0.0
 10
1.7310000000000001
 20
-0.464
 30
0.0
 10
2.3100000000000001
 20
-0.464
 30
0.0
 10
2.3109999999999999
 20
3.0800000000000001
 30
0.0
 10
2.2469999999999999
 20
3.0800000000000001
 30
0.0
 10
2.2469999999999999
 20
3.3300000000000001
 30
0.0
 10
2.5609999999999999
 20
3.3300000000000001
 30
0.0
  0
TEXT
  5
2B5
100
AcDbEntity
100
AcDbText
  8
texts
 62
256
370
-1
  6
BYLAYER
 10
-0.3126749908637991
 20
1.4982250050973898
 30
0.0
 40
0.2
  1
\U+0053\U+0061\U+006c\U+006f\U+006e
 50
0.0
 41
1.0
  7
STANDARD
 71
0
 72
1
 11
0.6873250091362009
 21
1.4982250050973898
 31
0.0
100
AcDbText
 73
2
  0
INSERT
  5
2B6
100
AcDbEntity
100
AcDbBlockReference
  8
doors
 62
256
370
-1
  6
BYLAYER
  2
W-0-0
 10
1.847106546692848
 20
3.1402150050973896
 30
0.0
 41
0.001
 42
0.001
 43
1.0
 70
0
 71
0
  0
INSERT
  5
2B7
100
AcDbEntity
100
AcDbBlockReference
  8
windows
 62
256
370
-1
  6
BYLAYER
  2
W-0-1
 10
1.3311844309999996
 20
-0.5246969178226388
 30
0.0
 41
0.001
 42
0.001
 43
1.0
 50
179.990169903708022
 70
0
 71
0
  0
INSERT
  5
2B8
100
AcDbEntity
100
AcDbBlockReference
  8
windows
 62
256
370
-1
  6
BYLAYER
  2
W-0-2
 10
-0.796674923271889
 20
-0.5243318462112345
 30
0.0
 41
0.001
 42
0.001
 43
1.0
 50
179.990169903708022
 70
0
 71
0
  0
ENDSEC
  0
SECTION
  2
OBJECTS
  0
DICTIONARY
  5
C
100
AcDbDictionary
280
0
281
1
  3
ACAD_GROUP
350
D
  3
ACAD_LAYOUT
350
1A
  3
ACAD_MLINESTYLE
350
17
  3
ACAD_PLOTSETTINGS
350
19
  3
ACAD_PLOTSTYLENAME
350
E
  3
AcDbVariableDictionary
350
2B9
  0
DICTIONARY
  5
D
100
AcDbDictionary
280
0
281
1
  0
ACDBDICTIONARYWDFLT
  5
E
100
AcDbDictionary
281
1
  3
Normal
350
F
100
AcDbDictionaryWithDefault
340
F
  0
ACDBPLACEHOLDER
  5
F
  0
DICTIONARY
  5
17
100
AcDbDictionary
280
0
281
1
  3
Standard
350
18
  0
MLINESTYLE
  5
18
100
AcDbMlineStyle
  2
STANDARD
 70
0
  3

 62
256
 51
90.0
 52
90.0
 71
2
 49
0.5
 62
256
  6
BYLAYER
 49
-0.5
 62
256
  6
BYLAYER
  0
DICTIONARY
  5
19
100
AcDbDictionary
280
0
281
1
  0
DICTIONARY
  5
1A
100
AcDbDictionary
281
1
  3
Layout1
350
1E
  3
Layout2
350
26
  3
Model
350
22
  0
LAYOUT
  5
1E
100
AcDbPlotSettings
  1

  2
none_device
  4

  6

 40
0.0
 41
0.0
 42
0.0
 43
0.0
 44
0.0
 45
0.0
 46
0.0
 47
0.0
 48
0.0
 49
0.0
140
0.0
141
0.0
142
1.0
143
1.0
 70
688
 72
0
 73
0
 74
5
  7

 75
16
147
1.0
148
0.0
149
0.0
100
AcDbLayout
  1
Layout1
 70
1
 71
1
 10
0.0
 20
0.0
 11
420.0
 21
297.0
 12
0.0
 22
0.0
 32
0.0
 14
100000000000000000000.0
 24
100000000000000000000.0
 34
100000000000000000000.0
 15
-100000000000000000000.0
 25
-100000000000000000000.0
 35
-100000000000000000000.0
146
0.0
 13
0.0
 23
0.0
 33
0.0
 16
1.0
 26
0.0
 36
0.0
 17
0.0
 27
1.0
 37
0.0
 76
0
330
1B
  0
LAYOUT
  5
22
100
AcDbPlotSettings
  1

  2
none_device
  4

  6

 40
0.0
 41
0.0
 42
0.0
 43
0.0
 44
0.0
 45
0.0
 46
0.0
 47
0.0
 48
0.0
 49
0.0
140
0.0
141
0.0
142
1.0
143
1.0
 70
1712
 72
0
 73
0
 74
0
  7

 75
0
147
1.0
148
0.0
149
0.0
100
AcDbLayout
  1
Model
 70
1
 71
0
 10
0.0
 20
0.0
 11
12.0
 21
9.0
 12
0.0
 22
0.0
 32
0.0
 14
0.0
 24
0.0
 34
0.0
 15
0.0
 25
0.0
 35
0.0
146
0.0
 13
0.0
 23
0.0
 33
0.0
 16
1.0
 26
0.0
 36
0.0
 17
0.0
 27
1.0
 37
0.0
 76
0
330
1F
  0
LAYOUT
  5
26
100
AcDbPlotSettings
  1

  2
none_device
  4

  6

 40
0.0
 41
0.0
 42
0.0
 43
0.0
 44
0.0
 45
0.0
 46
0.0
 47
0.0
 48
0.0
 49
0.0
140
0.0
141
0.0
142
1.0
143
1.0
 70
688
 72
0
 73
0
 74
5
  7

 75
16
147
1.0
148
0.0
149
0.0
100
AcDbLayout
  1
Layout2
 70
1
 71
2
 10
0.0
 20
0.0
 11
12.0
 21
9.0
 12
0.0
 22
0.0
 32
0.0
 14
0.0
 24
0.0
 34
0.0
 15
0.0
 25
0.0
 35
0.0
146
0.0
 13
0.0
 23
0.0
 33
0.0
 16
1.0
 26
0.0
 36
0.0
 17
0.0
 27
1.0
 37
0.0
 76
0
330
23
  0
DICTIONARY
  5
2B9
100
AcDbDictionary
281
1
  3
DIMASSOC
350
2BB
  3
HIDETEXT
350
2BA
  0
DICTIONARYVAR
  5
2BA
100
DictionaryVariables
280
0
  1
2
  0
DICTIONARYVAR
  5
2BB
100
DictionaryVariables
280
0
  1
1
  0
ENDSEC
  0
EOF
